{"glyphs":{"0":{"ha":813,"x_min":76,"x_max":738,"o":"m 407 -28 q 224 25 299 -28 q 113 165 150 78 q 76 356 76 253 q 113 546 76 460 q 224 684 150 632 q 407 736 299 736 q 585 683 510 736 q 699 543 660 631 q 738 356 738 456 q 699 168 738 256 q 585 26 660 81 q 407 -28 510 -28 m 408 24 q 553 110 501 24 q 604 356 604 196 q 553 600 604 515 q 408 685 501 685 q 261 601 313 685 q 210 356 210 517 q 261 109 210 194 q 408 24 313 24 z "},"1":{"ha":594,"x_min":71,"x_max":586,"o":"m 96 -4 q 71 29 71 -4 q 77 51 72 46 q 93 57 82 57 q 203 63 171 57 q 252 96 236 69 q 268 185 268 122 l 268 474 q 262 567 269 539 q 235 604 254 596 q 171 613 215 613 l 103 613 q 78 646 78 613 q 86 672 79 667 q 103 676 93 676 q 118 676 114 676 q 232 695 176 676 q 353 740 288 714 q 367 743 361 743 q 389 711 389 743 l 389 185 q 403 97 389 124 q 449 64 418 71 q 550 57 481 57 l 564 57 q 580 51 575 57 q 586 29 585 46 q 561 -4 586 -4 q 328 0 461 0 q 96 -4 196 0 z "},"2":{"ha":682,"x_min":64,"x_max":626,"o":"m 113 0 q 64 50 64 0 q 80 97 65 79 q 128 138 94 115 q 298 259 238 211 q 407 381 358 307 q 456 546 456 454 q 420 649 456 613 q 321 686 385 686 q 231 659 267 686 q 196 585 196 632 q 207 545 196 561 q 230 519 218 529 q 242 508 242 510 q 223 485 242 499 q 178 471 204 471 q 109 498 135 471 q 83 567 83 525 q 121 661 83 622 q 216 718 158 700 q 333 736 274 736 q 513 685 438 736 q 589 528 589 633 q 547 389 589 451 q 448 283 506 326 q 297 179 390 239 q 188 106 224 133 l 188 99 l 560 99 q 610 91 594 99 q 626 50 626 83 q 578 0 626 0 l 113 0 z "},"3":{"ha":676,"x_min":71,"x_max":600,"o":"m 313 -28 q 141 12 211 -28 q 71 128 71 51 q 96 197 71 168 q 165 226 121 226 q 210 213 192 226 q 229 189 229 199 q 217 178 229 188 q 194 154 204 169 q 183 115 183 139 q 220 48 183 72 q 317 24 257 24 q 465 189 465 24 q 429 298 465 257 q 321 343 393 339 l 269 343 q 254 351 260 343 q 249 371 249 360 q 254 392 249 383 q 269 403 260 401 l 321 403 q 408 451 375 408 q 440 556 440 494 q 403 658 440 622 q 315 693 365 693 q 234 666 268 693 q 200 592 200 639 q 212 551 200 561 q 235 538 224 540 q 246 535 246 536 q 227 511 246 525 q 182 497 208 497 q 113 525 138 497 q 88 596 88 553 q 151 701 88 664 q 317 739 215 739 q 496 692 425 739 q 567 556 567 644 q 526 447 567 497 q 408 376 485 397 l 408 371 q 543 322 486 363 q 600 192 600 281 q 518 26 600 79 q 313 -28 436 -28 z "},"4":{"ha":689,"x_min":21,"x_max":639,"o":"m 458 -17 q 417 -10 435 -17 q 397 10 399 -3 l 397 222 l 65 222 q 32 236 43 222 q 21 271 21 250 q 31 301 21 289 l 421 728 q 464 742 435 742 q 501 730 486 742 q 518 693 517 718 l 518 290 l 601 290 q 629 285 621 290 q 639 257 638 281 q 633 232 639 242 q 613 222 626 222 l 518 222 l 518 10 q 500 -10 518 -3 q 458 -17 482 -17 m 101 290 l 397 290 l 397 619 l 101 290 z "},"5":{"ha":674,"x_min":58,"x_max":586,"o":"m 297 -28 q 126 10 194 -28 q 58 126 58 47 q 84 202 58 169 q 153 235 110 235 q 198 221 179 235 q 217 197 217 207 q 204 185 217 196 q 181 158 192 174 q 171 121 171 142 q 205 49 171 74 q 300 24 239 24 q 415 78 376 24 q 453 219 453 132 q 414 353 453 300 q 293 407 375 407 q 228 395 256 407 q 171 361 201 383 q 141 342 153 349 q 118 336 129 336 q 96 375 96 336 l 97 392 l 140 722 l 522 722 q 553 710 542 722 q 565 675 565 697 q 513 624 565 624 l 204 624 l 175 431 q 325 468 236 468 q 445 442 385 468 q 546 361 506 415 q 586 226 586 307 q 547 88 586 146 q 441 1 507 31 q 297 -28 375 -28 z "},"6":{"ha":707,"x_min":74,"x_max":647,"o":"m 363 -28 q 152 54 231 -28 q 74 278 74 136 q 127 488 74 390 q 278 651 181 585 q 500 739 375 717 q 521 740 507 740 q 549 715 549 740 q 524 686 549 693 q 221 401 269 607 q 312 444 267 432 q 406 457 357 457 q 528 427 472 457 q 615 345 583 397 q 647 226 647 293 q 607 94 647 151 q 501 4 567 36 q 363 -28 436 -28 m 363 17 q 471 72 428 17 q 514 214 514 126 q 471 345 514 296 q 358 394 428 394 q 286 377 324 394 q 215 331 249 360 q 207 276 207 297 q 222 161 207 221 q 272 59 236 101 q 363 17 307 17 z "},"7":{"ha":592,"x_min":56,"x_max":565,"o":"m 224 -28 q 192 -12 206 -28 q 178 32 178 4 q 247 231 178 93 q 426 569 315 369 l 458 626 l 215 626 q 159 621 178 626 q 128 594 140 615 q 111 529 117 574 q 102 513 108 518 q 79 508 96 508 q 56 532 56 508 l 61 694 q 101 725 61 725 l 525 725 q 565 699 565 725 q 535 626 565 678 q 440 434 483 540 q 343 182 396 328 q 281 17 300 64 q 224 -28 260 -28 z "},"8":{"ha":713,"x_min":75,"x_max":636,"o":"m 346 -28 q 203 -1 265 -28 q 108 71 142 25 q 75 175 75 117 q 116 281 75 236 q 238 361 157 326 q 140 443 171 401 q 108 538 108 485 q 144 638 108 592 q 240 710 181 683 q 368 736 300 736 q 492 711 438 736 q 576 643 546 686 q 607 546 607 600 q 572 452 607 496 q 468 374 538 408 q 598 292 560 335 q 636 182 636 249 q 599 77 636 125 q 497 1 563 29 q 346 -28 431 -28 m 421 399 q 478 465 458 425 q 499 547 499 504 q 463 648 499 607 q 361 689 426 689 q 261 653 299 689 q 224 561 224 617 q 274 474 224 510 q 421 399 325 439 m 358 18 q 469 57 428 18 q 511 157 511 96 q 485 227 511 197 q 419 278 460 257 q 290 339 378 300 q 224 269 247 310 q 200 181 200 229 q 244 63 200 108 q 358 18 288 18 z "},"9":{"ha":706,"x_min":58,"x_max":632,"o":"m 206 -31 q 185 -32 199 -32 q 157 -7 157 -32 q 182 22 157 15 q 485 307 436 101 q 394 264 439 276 q 300 251 349 251 q 178 281 233 251 q 90 363 122 311 q 58 482 58 415 q 99 615 58 557 q 204 704 139 672 q 343 736 269 736 q 553 654 475 736 q 632 431 632 572 q 578 221 632 318 q 428 58 525 124 q 206 -31 331 -8 m 347 314 q 419 331 382 314 q 490 378 457 349 q 499 432 499 411 q 484 547 499 488 q 434 649 469 607 q 343 692 399 692 q 235 637 278 692 q 192 494 192 582 q 235 363 192 413 q 347 314 278 314 z "},"\r":{"ha":833,"x_min":0,"x_max":0,"o":""}," ":{"ha":310,"x_min":0,"x_max":0,"o":""},"A":{"ha":907,"x_min":-17,"x_max":915,"o":"m 8 -4 q -10 5 -4 -4 q -17 26 -17 14 q -8 51 -15 47 q 8 56 -1 56 q 21 56 18 56 q 82 77 63 56 q 113 126 101 99 q 129 163 125 153 l 372 738 q 381 771 381 758 q 361 807 381 796 q 307 825 342 818 q 278 833 283 829 q 272 857 272 838 q 281 879 272 874 q 310 885 290 885 q 420 874 379 885 q 492 833 461 864 q 549 738 522 801 l 782 163 q 822 83 803 110 q 881 56 842 57 l 889 56 q 908 51 903 56 q 915 26 914 46 q 909 5 915 14 q 890 -4 903 -4 q 738 0 801 0 q 565 -4 654 0 q 547 5 553 -4 q 540 26 540 14 q 547 51 542 46 q 567 56 553 56 q 633 65 614 56 q 653 97 653 74 q 636 163 653 115 l 589 278 l 246 278 q 206 178 211 192 q 201 163 201 164 q 185 94 185 110 q 206 63 185 71 q 285 56 226 56 l 293 56 q 313 51 307 56 q 319 26 318 46 q 313 5 319 14 q 294 -4 307 -4 q 143 0 206 0 q 8 -4 99 0 m 272 338 l 564 338 l 424 694 l 419 694 l 272 338 z "},"Á":{"ha":907,"x_min":-17,"x_max":915,"o":"m 8 -4 q -10 5 -4 -4 q -17 26 -17 14 q -8 51 -15 47 q 8 56 -1 56 q 21 56 18 56 q 82 77 63 56 q 113 126 101 99 q 129 163 125 153 l 372 738 q 381 771 381 758 q 361 807 381 796 q 307 825 342 818 q 278 833 283 829 q 272 857 272 838 q 281 879 272 874 q 310 885 290 885 q 420 874 379 885 q 492 833 461 864 q 549 738 522 801 l 782 163 q 822 83 803 110 q 881 56 842 57 l 889 56 q 908 51 903 56 q 915 26 914 46 q 909 5 915 14 q 890 -4 903 -4 q 738 0 801 0 q 565 -4 654 0 q 547 5 553 -4 q 540 26 540 14 q 547 51 542 46 q 567 56 553 56 q 633 65 614 56 q 653 97 653 74 q 636 163 653 115 l 589 278 l 246 278 q 206 178 211 192 q 201 163 201 164 q 185 94 185 110 q 206 63 185 71 q 285 56 226 56 l 293 56 q 313 51 307 56 q 319 26 318 46 q 313 5 319 14 q 294 -4 307 -4 q 143 0 206 0 q 8 -4 99 0 m 272 338 l 564 338 l 424 694 l 419 694 l 272 338 m 411 961 q 399 958 407 958 q 374 969 385 958 q 364 992 364 979 q 371 1008 364 1001 q 426 1064 378 1015 q 518 1146 474 1113 q 556 1171 540 1163 q 585 1179 571 1179 q 621 1160 606 1179 q 635 1128 635 1144 q 583 1064 635 1099 q 411 961 478 996 z "},"Â":{"ha":907,"x_min":-17,"x_max":915,"o":"m 8 -4 q -10 5 -4 -4 q -17 26 -17 14 q -8 51 -15 47 q 8 56 -1 56 q 21 56 18 56 q 82 77 63 56 q 113 126 101 99 q 129 163 125 153 l 372 738 q 381 771 381 758 q 361 807 381 796 q 307 825 342 818 q 278 833 283 829 q 272 857 272 838 q 281 879 272 874 q 310 885 290 885 q 420 874 379 885 q 492 833 461 864 q 549 738 522 801 l 782 163 q 822 83 803 110 q 881 56 842 57 l 889 56 q 908 51 903 56 q 915 26 914 46 q 909 5 915 14 q 890 -4 903 -4 q 738 0 801 0 q 565 -4 654 0 q 547 5 553 -4 q 540 26 540 14 q 547 51 542 46 q 567 56 553 56 q 633 65 614 56 q 653 97 653 74 q 636 163 653 115 l 589 278 l 246 278 q 206 178 211 192 q 201 163 201 164 q 185 94 185 110 q 206 63 185 71 q 285 56 226 56 l 293 56 q 313 51 307 56 q 319 26 318 46 q 313 5 319 14 q 294 -4 307 -4 q 143 0 206 0 q 8 -4 99 0 m 272 338 l 564 338 l 424 694 l 419 694 l 272 338 m 232 958 q 211 953 222 953 q 183 964 194 953 q 175 983 175 972 q 189 1007 175 994 l 372 1151 q 413 1167 392 1167 q 453 1151 433 1167 l 636 1007 q 650 982 650 994 q 642 964 650 972 q 614 953 631 953 q 593 958 603 953 l 413 1047 l 232 958 z "},"Ä":{"ha":907,"x_min":-17,"x_max":915,"o":"m 8 -4 q -10 5 -4 -4 q -17 26 -17 14 q -8 51 -15 47 q 8 56 -1 56 q 21 56 18 56 q 82 77 63 56 q 113 126 101 99 q 129 163 125 153 l 372 738 q 381 771 381 758 q 361 807 381 796 q 307 825 342 818 q 278 833 283 829 q 272 857 272 838 q 281 879 272 874 q 310 885 290 885 q 420 874 379 885 q 492 833 461 864 q 549 738 522 801 l 782 163 q 822 83 803 110 q 881 56 842 57 l 889 56 q 908 51 903 56 q 915 26 914 46 q 909 5 915 14 q 890 -4 903 -4 q 738 0 801 0 q 565 -4 654 0 q 547 5 553 -4 q 540 26 540 14 q 547 51 542 46 q 567 56 553 56 q 633 65 614 56 q 653 97 653 74 q 636 163 653 115 l 589 278 l 246 278 q 206 178 211 192 q 201 163 201 164 q 185 94 185 110 q 206 63 185 71 q 285 56 226 56 l 293 56 q 313 51 307 56 q 319 26 318 46 q 313 5 319 14 q 294 -4 307 -4 q 143 0 206 0 q 8 -4 99 0 m 272 338 l 564 338 l 424 694 l 419 694 l 272 338 m 279 988 q 219 1013 244 988 q 193 1071 193 1038 q 218 1131 193 1107 q 281 1154 243 1154 q 340 1131 317 1154 q 364 1071 364 1107 q 340 1013 364 1038 q 279 988 315 988 m 546 988 q 485 1013 511 988 q 460 1071 460 1038 q 485 1131 460 1107 q 547 1154 510 1154 q 607 1131 583 1154 q 631 1071 631 1107 q 606 1013 631 1038 q 546 988 582 988 z "},"À":{"ha":907,"x_min":-17,"x_max":915,"o":"m 8 -4 q -10 5 -4 -4 q -17 26 -17 14 q -8 51 -15 47 q 8 56 -1 56 q 21 56 18 56 q 82 77 63 56 q 113 126 101 99 q 129 163 125 153 l 372 738 q 381 771 381 758 q 361 807 381 796 q 307 825 342 818 q 278 833 283 829 q 272 857 272 838 q 281 879 272 874 q 310 885 290 885 q 420 874 379 885 q 492 833 461 864 q 549 738 522 801 l 782 163 q 822 83 803 110 q 881 56 842 57 l 889 56 q 908 51 903 56 q 915 26 914 46 q 909 5 915 14 q 890 -4 903 -4 q 738 0 801 0 q 565 -4 654 0 q 547 5 553 -4 q 540 26 540 14 q 547 51 542 46 q 567 56 553 56 q 633 65 614 56 q 653 97 653 74 q 636 163 653 115 l 589 278 l 246 278 q 206 178 211 192 q 201 163 201 164 q 185 94 185 110 q 206 63 185 71 q 285 56 226 56 l 293 56 q 313 51 307 56 q 319 26 318 46 q 313 5 319 14 q 294 -4 307 -4 q 143 0 206 0 q 8 -4 99 0 m 272 338 l 564 338 l 424 694 l 419 694 l 272 338 m 417 939 q 244 1042 350 974 q 193 1106 193 1076 q 207 1138 193 1122 q 243 1157 222 1157 q 273 1149 257 1157 q 310 1124 289 1140 q 402 1042 354 1090 q 457 986 450 993 q 464 969 464 979 q 453 946 464 957 q 429 935 442 935 q 417 939 422 935 z "},"Å":{"ha":907,"x_min":-17,"x_max":915,"o":"m 8 -4 q -10 5 -4 -4 q -17 26 -17 14 q -8 51 -15 47 q 8 56 -1 56 q 21 56 18 56 q 82 77 63 56 q 113 126 101 99 q 129 163 125 153 l 372 738 q 381 771 381 758 q 361 807 381 796 q 307 825 342 818 q 278 833 283 829 q 272 857 272 838 q 281 879 272 874 q 310 885 290 885 q 420 874 379 885 q 492 833 461 864 q 549 738 522 801 l 782 163 q 822 83 803 110 q 881 56 842 57 l 889 56 q 908 51 903 56 q 915 26 914 46 q 909 5 915 14 q 890 -4 903 -4 q 738 0 801 0 q 565 -4 654 0 q 547 5 553 -4 q 540 26 540 14 q 547 51 542 46 q 567 56 553 56 q 633 65 614 56 q 653 97 653 74 q 636 163 653 115 l 589 278 l 246 278 q 206 178 211 192 q 201 163 201 164 q 185 94 185 110 q 206 63 185 71 q 285 56 226 56 l 293 56 q 313 51 307 56 q 319 26 318 46 q 313 5 319 14 q 294 -4 307 -4 q 143 0 206 0 q 8 -4 99 0 m 272 338 l 564 338 l 424 694 l 419 694 l 272 338 m 414 901 q 303 938 344 901 q 261 1033 261 974 q 299 1135 261 1100 q 414 1169 338 1169 q 525 1133 486 1169 q 564 1033 564 1097 q 523 937 564 972 q 414 901 482 901 m 414 953 q 460 974 447 953 q 474 1033 474 994 q 460 1099 474 1076 q 414 1121 446 1121 q 367 1097 383 1121 q 351 1033 351 1072 q 414 953 351 953 z "},"Ã":{"ha":907,"x_min":-17,"x_max":915,"o":"m 8 -4 q -10 5 -4 -4 q -17 26 -17 14 q -8 51 -15 47 q 8 56 -1 56 q 21 56 18 56 q 82 77 63 56 q 113 126 101 99 q 129 163 125 153 l 372 738 q 381 771 381 758 q 361 807 381 796 q 307 825 342 818 q 278 833 283 829 q 272 857 272 838 q 281 879 272 874 q 310 885 290 885 q 420 874 379 885 q 492 833 461 864 q 549 738 522 801 l 782 163 q 822 83 803 110 q 881 56 842 57 l 889 56 q 908 51 903 56 q 915 26 914 46 q 909 5 915 14 q 890 -4 903 -4 q 738 0 801 0 q 565 -4 654 0 q 547 5 553 -4 q 540 26 540 14 q 547 51 542 46 q 567 56 553 56 q 633 65 614 56 q 653 97 653 74 q 636 163 653 115 l 589 278 l 246 278 q 206 178 211 192 q 201 163 201 164 q 185 94 185 110 q 206 63 185 71 q 285 56 226 56 l 293 56 q 313 51 307 56 q 319 26 318 46 q 313 5 319 14 q 294 -4 307 -4 q 143 0 206 0 q 8 -4 99 0 m 272 338 l 564 338 l 424 694 l 419 694 l 272 338 m 504 964 q 451 977 474 965 q 400 1011 428 989 q 365 1036 379 1028 q 336 1044 351 1044 q 291 1030 317 1044 q 240 986 265 1015 q 215 975 229 975 q 194 985 203 975 q 192 1011 186 996 q 255 1101 213 1064 q 353 1138 297 1138 q 405 1125 383 1136 q 457 1090 426 1114 q 490 1065 476 1074 q 519 1057 504 1057 q 565 1072 539 1057 q 617 1115 592 1086 q 639 1126 628 1126 q 658 1119 650 1126 q 665 1101 665 1113 q 661 1085 665 1093 q 598 999 639 1035 q 504 964 557 964 z "},"Æ":{"ha":1253,"x_min":-14,"x_max":1206,"o":"m 11 -4 q -8 5 -1 -4 q -14 26 -14 14 q -6 52 -12 47 q 12 56 1 57 q 26 56 22 56 q 94 87 63 56 q 146 163 125 118 l 442 738 q 450 771 450 758 q 433 801 450 793 q 376 817 415 810 q 360 820 372 818 q 345 827 349 822 q 342 843 342 832 q 349 868 342 861 q 369 876 356 875 q 397 876 382 876 l 1113 876 q 1149 843 1149 876 l 1153 649 q 1140 628 1153 636 q 1115 621 1128 621 q 1086 627 1099 621 q 1072 646 1074 633 q 1048 749 1061 714 q 1009 802 1035 785 q 936 821 983 819 l 750 821 l 750 468 l 1001 468 q 1017 458 1011 467 q 1022 436 1022 449 q 1017 417 1022 425 q 1001 408 1011 408 l 750 408 l 750 146 q 757 99 753 117 q 782 68 761 82 q 847 56 803 54 l 975 56 q 1049 72 1024 57 q 1088 117 1074 86 q 1124 217 1103 147 q 1171 236 1133 242 q 1195 225 1185 233 q 1204 204 1206 217 l 1176 29 q 1164 6 1172 11 q 1136 0 1156 0 l 678 0 q 511 -4 603 0 q 494 5 500 -4 q 488 26 488 14 q 496 51 489 47 q 522 56 503 56 q 582 70 563 56 q 606 106 601 85 q 613 163 611 128 l 613 344 l 311 344 l 218 163 q 192 89 192 107 q 213 63 192 69 q 288 56 233 56 l 296 56 q 315 51 310 56 q 322 26 321 46 q 316 5 322 14 q 297 -4 310 -4 q 146 0 208 0 q 11 -4 101 0 m 613 404 l 613 821 l 581 821 q 552 815 561 822 q 532 785 543 807 l 340 404 l 613 404 z "},"B":{"ha":863,"x_min":58,"x_max":797,"o":"m 83 -4 q 65 5 71 -4 q 58 26 58 14 q 67 51 60 47 q 93 56 74 56 q 153 70 133 56 q 177 106 172 85 q 183 163 182 128 l 183 714 q 177 770 182 749 q 153 806 172 792 q 93 821 133 821 l 85 821 q 65 826 71 821 q 58 850 60 831 q 65 872 58 863 q 83 881 71 881 q 247 876 174 876 l 443 876 q 567 865 519 876 q 651 831 614 854 q 708 766 688 807 q 729 676 729 725 q 673 540 729 590 q 542 471 617 489 l 542 467 q 673 438 614 467 q 765 362 732 410 q 797 258 797 314 q 740 106 797 164 q 595 23 682 47 q 415 -1 508 -1 l 249 0 q 83 -4 174 0 m 379 494 q 476 503 435 494 q 549 547 517 511 q 581 660 581 583 q 418 825 581 825 l 321 825 l 321 494 l 379 494 m 421 54 q 585 105 524 56 q 647 267 647 154 q 577 390 640 342 q 378 439 514 439 l 321 439 l 321 163 q 330 92 321 115 q 359 62 339 69 q 421 54 379 54 z "},"C":{"ha":888,"x_min":68,"x_max":839,"o":"m 497 -28 q 281 28 379 -28 q 126 189 183 85 q 68 432 68 293 q 124 679 68 572 q 282 845 179 786 q 522 904 385 904 q 735 856 642 904 q 828 708 828 808 q 790 602 829 646 q 686 558 751 558 q 644 567 661 558 q 618 589 626 576 q 611 608 610 601 q 631 624 611 611 q 665 658 650 636 q 681 713 681 681 q 638 812 681 775 q 521 849 596 849 q 370 801 436 849 q 267 660 304 753 q 231 440 231 568 q 270 238 231 329 q 382 94 310 147 q 547 40 454 40 q 676 72 622 40 q 772 172 729 103 q 792 185 779 185 q 817 176 803 185 q 839 146 839 161 q 833 132 839 138 q 734 31 781 65 q 633 -15 688 -3 q 497 -28 579 -28 z "},"Ç":{"ha":888,"x_min":68,"x_max":839,"o":"m 817 176 q 839 146 839 161 q 833 132 839 138 q 737 33 782 67 q 640 -13 692 0 q 513 -28 589 -26 l 513 -57 q 608 -81 569 -58 q 647 -154 647 -104 q 579 -256 647 -224 q 392 -289 511 -289 q 372 -279 379 -289 q 364 -256 364 -269 q 371 -231 364 -237 q 392 -225 378 -225 q 507 -217 468 -225 q 546 -175 546 -208 q 526 -146 546 -154 q 467 -133 507 -137 q 450 -126 456 -132 q 444 -101 444 -121 l 444 -25 q 253 47 339 -12 q 117 205 167 106 q 68 432 68 304 q 124 679 68 572 q 282 845 179 786 q 522 904 385 904 q 735 856 642 904 q 828 708 828 808 q 790 602 829 646 q 686 558 751 558 q 644 567 661 558 q 618 589 626 576 q 611 608 610 601 q 631 624 611 611 q 665 658 650 636 q 681 713 681 681 q 638 812 681 775 q 521 849 596 849 q 370 801 436 849 q 267 660 304 753 q 231 440 231 568 q 270 238 231 329 q 382 94 310 147 q 547 40 454 40 q 676 72 622 40 q 772 172 729 103 q 792 185 779 185 q 817 176 803 185 z "},"D":{"ha":1011,"x_min":60,"x_max":943,"o":"m 83 -4 q 66 5 72 -4 q 60 26 60 14 q 68 51 61 47 q 94 56 75 56 q 154 70 135 56 q 178 106 174 85 q 185 163 183 128 l 185 714 q 178 770 183 749 q 154 806 174 792 q 94 821 135 821 l 86 821 q 67 826 72 821 q 60 850 61 831 q 66 872 60 863 q 83 881 72 881 q 249 876 175 876 l 465 876 q 708 823 599 876 q 880 669 817 769 q 943 433 943 569 q 872 194 943 292 q 685 48 800 96 q 440 0 571 0 l 249 0 q 83 -4 175 0 m 461 51 q 699 152 624 51 q 775 433 775 253 q 734 637 775 547 q 615 776 693 726 q 431 826 538 826 l 322 825 l 322 146 q 355 72 322 92 q 461 51 388 51 z "},"Ð":{"ha":1011,"x_min":60,"x_max":943,"o":"m 83 -4 q 66 5 72 -4 q 60 26 60 14 q 68 51 61 47 q 94 56 75 56 q 154 70 135 56 q 178 106 174 85 q 185 163 183 128 l 185 432 l 108 432 q 88 441 94 432 q 82 461 82 450 q 108 492 82 492 l 185 492 l 185 714 q 178 770 183 749 q 154 806 174 792 q 94 821 135 821 l 86 821 q 67 826 72 821 q 60 850 61 831 q 66 872 60 863 q 83 881 72 881 q 249 876 175 876 l 465 876 q 708 823 599 876 q 880 669 817 769 q 943 433 943 569 q 872 194 943 292 q 685 48 800 96 q 440 0 571 0 l 249 0 q 83 -4 175 0 m 461 51 q 699 152 624 51 q 775 433 775 253 q 734 637 775 547 q 615 776 693 726 q 431 826 538 826 l 322 825 l 322 492 l 482 492 q 508 461 508 492 q 502 441 508 450 q 482 432 496 432 l 322 432 l 322 146 q 355 72 322 92 q 461 51 388 51 z "},"E":{"ha":825,"x_min":60,"x_max":778,"o":"m 83 -4 q 66 5 72 -4 q 60 26 60 14 q 68 51 61 47 q 94 56 75 56 q 154 70 135 56 q 178 106 174 85 q 185 163 183 128 l 185 714 q 178 770 183 749 q 154 806 174 792 q 94 821 135 821 l 86 821 q 67 826 72 821 q 60 850 61 831 q 66 872 60 863 q 83 881 72 881 q 249 876 175 876 l 685 876 q 721 843 721 876 l 725 649 q 713 628 725 636 q 688 621 700 621 q 658 627 671 621 q 644 646 646 633 q 620 749 633 714 q 581 802 607 785 q 508 821 556 819 l 322 821 l 322 468 l 574 468 q 589 458 583 467 q 594 436 594 449 q 589 417 594 425 q 574 408 583 408 l 322 408 l 322 146 q 329 99 325 117 q 354 68 333 82 q 419 56 375 54 l 547 56 q 621 72 596 57 q 660 117 646 86 q 696 217 675 147 q 743 236 706 242 q 767 225 757 233 q 776 204 778 217 l 749 29 q 736 6 744 11 q 708 0 728 0 l 250 0 q 83 -4 175 0 z "},"É":{"ha":825,"x_min":60,"x_max":776,"o":"m 83 -4 q 66 5 72 -4 q 60 26 60 14 q 68 51 61 47 q 94 56 75 56 q 154 70 135 56 q 178 106 174 85 q 185 163 183 128 l 185 714 q 178 770 183 749 q 154 806 174 792 q 94 821 135 821 l 86 821 q 67 826 72 821 q 60 850 61 831 q 66 872 60 863 q 83 881 72 881 q 249 876 175 876 l 685 876 q 721 843 721 876 l 725 649 q 713 628 725 636 q 688 621 700 621 q 658 627 671 621 q 644 646 646 633 q 620 749 633 714 q 581 802 607 785 q 508 821 556 819 l 322 821 l 322 468 l 574 468 q 589 458 583 467 q 594 436 594 449 q 589 417 594 425 q 574 408 583 408 l 322 408 l 322 146 q 329 99 325 117 q 354 68 333 82 q 419 56 375 54 l 547 56 q 621 72 596 57 q 660 117 646 86 q 696 217 675 147 q 743 236 706 242 q 767 225 757 233 q 776 204 778 217 l 749 29 q 736 6 744 11 q 708 0 728 0 l 250 0 q 83 -4 175 0 m 440 961 q 428 958 436 958 q 403 969 414 958 q 393 992 393 979 q 400 1008 393 1001 q 455 1064 407 1015 q 547 1146 503 1113 q 585 1171 569 1163 q 614 1179 600 1179 q 650 1160 635 1179 q 664 1128 664 1144 q 613 1064 664 1099 q 440 961 507 996 z "},"Ê":{"ha":825,"x_min":60,"x_max":776,"o":"m 83 -4 q 66 5 72 -4 q 60 26 60 14 q 68 51 61 47 q 94 56 75 56 q 154 70 135 56 q 178 106 174 85 q 185 163 183 128 l 185 714 q 178 770 183 749 q 154 806 174 792 q 94 821 135 821 l 86 821 q 67 826 72 821 q 60 850 61 831 q 66 872 60 863 q 83 881 72 881 q 249 876 175 876 l 685 876 q 721 843 721 876 l 725 649 q 713 628 725 636 q 688 621 700 621 q 658 627 671 621 q 644 646 646 633 q 620 749 633 714 q 581 802 607 785 q 508 821 556 819 l 322 821 l 322 468 l 574 468 q 589 458 583 467 q 594 436 594 449 q 589 417 594 425 q 574 408 583 408 l 322 408 l 322 146 q 329 99 325 117 q 354 68 333 82 q 419 56 375 54 l 547 56 q 621 72 596 57 q 660 117 646 86 q 696 217 675 147 q 743 236 706 242 q 767 225 757 233 q 776 204 778 217 l 749 29 q 736 6 744 11 q 708 0 728 0 l 250 0 q 83 -4 175 0 m 261 958 q 240 953 251 953 q 213 964 224 953 q 204 983 204 972 q 218 1007 204 994 l 401 1151 q 442 1167 421 1167 q 482 1151 463 1167 l 665 1007 q 679 982 679 994 q 671 964 679 972 q 643 953 660 953 q 622 958 632 953 l 442 1047 l 261 958 z "},"Ë":{"ha":825,"x_min":60,"x_max":776,"o":"m 83 -4 q 66 5 72 -4 q 60 26 60 14 q 68 51 61 47 q 94 56 75 56 q 154 70 135 56 q 178 106 174 85 q 185 163 183 128 l 185 714 q 178 770 183 749 q 154 806 174 792 q 94 821 135 821 l 86 821 q 67 826 72 821 q 60 850 61 831 q 66 872 60 863 q 83 881 72 881 q 249 876 175 876 l 685 876 q 721 843 721 876 l 725 649 q 713 628 725 636 q 688 621 700 621 q 658 627 671 621 q 644 646 646 633 q 620 749 633 714 q 581 802 607 785 q 508 821 556 819 l 322 821 l 322 468 l 574 468 q 589 458 583 467 q 594 436 594 449 q 589 417 594 425 q 574 408 583 408 l 322 408 l 322 146 q 329 99 325 117 q 354 68 333 82 q 419 56 375 54 l 547 56 q 621 72 596 57 q 660 117 646 86 q 696 217 675 147 q 743 236 706 242 q 767 225 757 233 q 776 204 778 217 l 749 29 q 736 6 744 11 q 708 0 728 0 l 250 0 q 83 -4 175 0 m 308 988 q 248 1013 274 988 q 222 1071 222 1038 q 247 1131 222 1107 q 310 1154 272 1154 q 369 1131 346 1154 q 393 1071 393 1107 q 369 1013 393 1038 q 308 988 344 988 m 575 988 q 515 1013 540 988 q 489 1071 489 1038 q 514 1131 489 1107 q 576 1154 539 1154 q 636 1131 613 1154 q 660 1071 660 1107 q 635 1013 660 1038 q 575 988 611 988 z "},"È":{"ha":825,"x_min":60,"x_max":776,"o":"m 83 -4 q 66 5 72 -4 q 60 26 60 14 q 68 51 61 47 q 94 56 75 56 q 154 70 135 56 q 178 106 174 85 q 185 163 183 128 l 185 714 q 178 770 183 749 q 154 806 174 792 q 94 821 135 821 l 86 821 q 67 826 72 821 q 60 850 61 831 q 66 872 60 863 q 83 881 72 881 q 249 876 175 876 l 685 876 q 721 843 721 876 l 725 649 q 713 628 725 636 q 688 621 700 621 q 658 627 671 621 q 644 646 646 633 q 620 749 633 714 q 581 802 607 785 q 508 821 556 819 l 322 821 l 322 468 l 574 468 q 589 458 583 467 q 594 436 594 449 q 589 417 594 425 q 574 408 583 408 l 322 408 l 322 146 q 329 99 325 117 q 354 68 333 82 q 419 56 375 54 l 547 56 q 621 72 596 57 q 660 117 646 86 q 696 217 675 147 q 743 236 706 242 q 767 225 757 233 q 776 204 778 217 l 749 29 q 736 6 744 11 q 708 0 728 0 l 250 0 q 83 -4 175 0 m 446 939 q 274 1042 379 974 q 222 1106 222 1076 q 236 1138 222 1122 q 272 1157 251 1157 q 302 1149 286 1157 q 339 1124 318 1140 q 431 1042 383 1090 q 486 986 479 993 q 493 969 493 979 q 482 946 493 957 q 458 935 471 935 q 446 939 451 935 z "},"F":{"ha":729,"x_min":60,"x_max":690,"o":"m 83 -4 q 66 5 72 -4 q 60 26 60 14 q 68 51 61 47 q 94 56 75 56 q 154 70 135 56 q 178 106 174 85 q 185 163 183 128 l 185 714 q 178 770 183 749 q 154 806 174 792 q 94 821 135 821 l 86 821 q 67 826 72 821 q 60 850 61 831 q 66 872 60 863 q 83 881 72 881 q 249 876 174 876 l 650 876 q 686 843 686 876 l 690 649 q 678 628 690 636 q 653 621 665 621 q 623 627 636 621 q 608 646 610 633 q 585 749 599 714 q 547 802 572 785 q 474 821 521 819 l 322 821 l 322 460 l 571 460 q 588 449 582 458 q 593 428 593 440 q 588 408 593 417 q 571 400 582 400 l 322 400 l 322 163 q 328 106 324 128 q 353 70 333 85 q 413 56 372 56 l 421 56 q 440 51 433 56 q 447 26 446 46 q 441 5 447 14 q 422 -4 435 -4 q 250 0 333 0 q 83 -4 174 0 z "},"G":{"ha":961,"x_min":68,"x_max":936,"o":"m 499 -28 q 280 23 378 -28 q 125 177 182 74 q 68 432 68 281 q 130 679 68 572 q 301 845 192 786 q 553 904 411 904 q 690 883 622 904 q 803 818 758 863 q 847 708 847 774 q 811 603 847 647 q 715 558 775 558 q 659 572 686 558 q 631 608 632 586 q 649 624 631 610 q 684 661 668 638 q 700 718 700 685 q 654 813 700 776 q 536 849 608 849 q 381 801 450 849 q 271 660 311 753 q 231 440 231 568 q 270 226 231 317 q 381 88 310 136 q 547 40 453 40 q 625 45 592 40 q 697 63 658 50 l 697 204 q 694 272 697 253 q 672 301 690 292 q 608 311 653 311 q 586 316 593 311 q 578 340 579 321 q 585 362 578 353 q 607 371 593 371 q 760 367 694 367 q 910 371 822 367 q 929 362 922 371 q 936 340 936 353 q 928 316 935 321 q 906 311 921 311 q 846 300 864 311 q 824 269 828 289 q 819 204 819 249 l 819 40 q 669 -13 738 1 q 499 -28 601 -28 z "},"H":{"ha":1079,"x_min":60,"x_max":1021,"o":"m 85 -4 q 66 5 72 -4 q 60 26 60 14 q 68 51 61 47 q 94 56 75 56 q 154 70 135 56 q 178 106 174 85 q 185 163 183 128 l 185 714 q 178 770 183 749 q 154 806 174 792 q 94 821 135 821 l 86 821 q 67 826 72 821 q 60 850 61 831 q 66 872 60 863 q 85 881 72 881 q 249 876 175 876 q 422 881 332 876 q 441 872 435 881 q 447 850 447 863 q 439 825 446 829 q 413 821 432 821 q 353 806 372 821 q 328 770 333 792 q 322 714 324 749 l 322 468 l 758 468 l 758 714 q 752 770 757 749 q 728 806 747 792 q 668 821 708 821 l 660 821 q 640 826 646 821 q 632 850 633 831 q 639 872 632 863 q 657 881 646 881 q 831 876 747 876 q 996 881 907 876 q 1015 872 1008 881 q 1021 850 1021 863 q 1012 825 1019 829 q 986 821 1004 821 q 926 806 946 821 q 901 770 906 792 q 894 714 896 749 l 894 163 q 901 106 896 128 q 926 70 906 85 q 986 56 946 56 l 994 56 q 1013 51 1007 56 q 1021 26 1019 46 q 1015 5 1021 14 q 996 -4 1008 -4 q 829 0 907 0 q 657 -4 747 0 q 639 5 646 -4 q 632 26 632 14 q 641 51 633 47 q 668 56 649 56 q 728 70 708 56 q 752 106 747 85 q 758 163 757 128 l 758 408 l 322 408 l 322 163 q 328 106 324 128 q 353 70 333 85 q 413 56 372 56 l 421 56 q 440 51 435 56 q 447 26 446 46 q 441 5 447 14 q 422 -4 435 -4 q 250 0 333 0 q 85 -4 175 0 z "},"I":{"ha":506,"x_min":58,"x_max":447,"o":"m 83 -4 q 65 5 71 -4 q 58 26 58 14 q 67 51 60 47 q 93 56 75 56 q 153 70 133 56 q 178 106 172 85 q 185 163 183 126 l 185 714 q 178 771 183 750 q 153 806 172 792 q 93 821 133 821 l 85 821 q 66 826 72 821 q 58 850 60 831 q 65 872 58 863 q 83 881 71 881 q 249 876 174 876 q 422 881 332 876 q 441 872 435 881 q 447 850 447 863 q 438 825 446 829 q 411 821 431 821 q 351 806 371 821 q 327 770 332 792 q 321 714 322 749 l 321 163 q 327 106 322 128 q 351 70 332 85 q 411 56 371 56 l 419 56 q 440 51 433 56 q 447 26 446 46 q 441 5 447 14 q 422 -4 435 -4 q 250 0 333 0 q 83 -4 174 0 z "},"Í":{"ha":506,"x_min":58,"x_max":475,"o":"m 83 -4 q 65 5 71 -4 q 58 26 58 14 q 67 51 60 47 q 93 56 75 56 q 153 70 133 56 q 178 106 172 85 q 185 163 183 126 l 185 714 q 178 771 183 750 q 153 806 172 792 q 93 821 133 821 l 85 821 q 66 826 72 821 q 58 850 60 831 q 65 872 58 863 q 83 881 71 881 q 249 876 174 876 q 422 881 332 876 q 441 872 435 881 q 447 850 447 863 q 438 825 446 829 q 411 821 431 821 q 351 806 371 821 q 327 770 332 792 q 321 714 322 749 l 321 163 q 327 106 322 128 q 351 70 332 85 q 411 56 371 56 l 419 56 q 440 51 433 56 q 447 26 446 46 q 441 5 447 14 q 422 -4 435 -4 q 250 0 333 0 q 83 -4 174 0 m 251 961 q 239 958 247 958 q 215 969 225 958 q 204 992 204 979 q 211 1008 204 1001 q 266 1064 218 1015 q 358 1146 314 1113 q 396 1171 381 1163 q 425 1179 411 1179 q 461 1160 446 1179 q 475 1128 475 1144 q 424 1064 475 1099 q 251 961 318 996 z "},"Î":{"ha":506,"x_min":15,"x_max":490,"o":"m 83 -4 q 65 5 71 -4 q 58 26 58 14 q 67 51 60 47 q 93 56 75 56 q 153 70 133 56 q 178 106 172 85 q 185 163 183 126 l 185 714 q 178 771 183 750 q 153 806 172 792 q 93 821 133 821 l 85 821 q 66 826 72 821 q 58 850 60 831 q 65 872 58 863 q 83 881 71 881 q 249 876 174 876 q 422 881 332 876 q 441 872 435 881 q 447 850 447 863 q 438 825 446 829 q 411 821 431 821 q 351 806 371 821 q 327 770 332 792 q 321 714 322 749 l 321 163 q 327 106 322 128 q 351 70 332 85 q 411 56 371 56 l 419 56 q 440 51 433 56 q 447 26 446 46 q 441 5 447 14 q 422 -4 435 -4 q 250 0 333 0 q 83 -4 174 0 m 72 958 q 51 953 63 953 q 24 964 35 953 q 15 983 15 972 q 29 1007 15 994 l 213 1151 q 253 1167 232 1167 q 293 1151 274 1167 l 476 1007 q 490 982 490 994 q 482 964 490 972 q 454 953 471 953 q 433 958 443 953 l 253 1047 l 72 958 z "},"Ï":{"ha":506,"x_min":33,"x_max":471,"o":"m 83 -4 q 65 5 71 -4 q 58 26 58 14 q 67 51 60 47 q 93 56 75 56 q 153 70 133 56 q 178 106 172 85 q 185 163 183 126 l 185 714 q 178 771 183 750 q 153 806 172 792 q 93 821 133 821 l 85 821 q 66 826 72 821 q 58 850 60 831 q 65 872 58 863 q 83 881 71 881 q 249 876 174 876 q 422 881 332 876 q 441 872 435 881 q 447 850 447 863 q 438 825 446 829 q 411 821 431 821 q 351 806 371 821 q 327 770 332 792 q 321 714 322 749 l 321 163 q 327 106 322 128 q 351 70 332 85 q 411 56 371 56 l 419 56 q 440 51 433 56 q 447 26 446 46 q 441 5 447 14 q 422 -4 435 -4 q 250 0 333 0 q 83 -4 174 0 m 119 988 q 59 1013 85 988 q 33 1071 33 1038 q 58 1131 33 1107 q 121 1154 83 1154 q 181 1131 157 1154 q 204 1071 204 1107 q 180 1013 204 1038 q 119 988 156 988 m 386 988 q 326 1013 351 988 q 300 1071 300 1038 q 325 1131 300 1107 q 388 1154 350 1154 q 447 1131 424 1154 q 471 1071 471 1107 q 447 1013 471 1038 q 386 988 422 988 z "},"Ì":{"ha":506,"x_min":33,"x_max":447,"o":"m 83 -4 q 65 5 71 -4 q 58 26 58 14 q 67 51 60 47 q 93 56 75 56 q 153 70 133 56 q 178 106 172 85 q 185 163 183 126 l 185 714 q 178 771 183 750 q 153 806 172 792 q 93 821 133 821 l 85 821 q 66 826 72 821 q 58 850 60 831 q 65 872 58 863 q 83 881 71 881 q 249 876 174 876 q 422 881 332 876 q 441 872 435 881 q 447 850 447 863 q 438 825 446 829 q 411 821 431 821 q 351 806 371 821 q 327 770 332 792 q 321 714 322 749 l 321 163 q 327 106 322 128 q 351 70 332 85 q 411 56 371 56 l 419 56 q 440 51 433 56 q 447 26 446 46 q 441 5 447 14 q 422 -4 435 -4 q 250 0 333 0 q 83 -4 174 0 m 257 939 q 85 1042 190 974 q 33 1106 33 1076 q 47 1138 33 1122 q 83 1157 63 1157 q 113 1149 97 1157 q 150 1124 129 1140 q 242 1042 194 1090 q 297 986 290 993 q 304 969 304 979 q 293 946 304 957 q 269 935 282 935 q 257 939 263 935 z "},"J":{"ha":501,"x_min":21,"x_max":454,"o":"m 49 -267 q 22 -243 29 -267 q 21 -231 21 -239 q 36 -208 21 -214 q 139 -125 106 -179 q 182 9 172 -71 q 192 225 192 89 l 192 714 q 185 770 190 749 q 161 806 181 792 q 101 821 142 821 l 93 821 q 73 826 79 821 q 65 850 67 831 q 72 872 65 863 q 90 881 79 881 q 256 876 179 876 q 429 881 340 876 q 448 872 442 881 q 454 850 454 863 q 445 825 453 829 q 418 821 438 821 q 358 806 378 821 q 334 770 339 792 q 328 714 329 749 l 328 178 q 265 -116 328 -1 q 54 -267 201 -231 l 49 -267 z "},"K":{"ha":972,"x_min":60,"x_max":972,"o":"m 85 -4 q 66 5 72 -4 q 60 26 60 14 q 68 51 61 47 q 94 56 75 56 q 154 70 135 56 q 178 106 174 85 q 185 163 183 128 l 185 714 q 178 770 183 749 q 154 806 174 792 q 94 821 135 821 l 86 821 q 67 826 72 821 q 60 850 61 831 q 66 872 60 863 q 85 881 72 881 q 249 876 175 876 q 422 881 332 876 q 441 872 435 881 q 447 850 447 863 q 439 825 446 829 q 413 821 432 821 q 353 806 372 821 q 328 770 333 792 q 322 714 324 749 l 322 463 q 372 486 344 467 q 440 540 400 506 q 636 753 518 613 q 661 797 661 781 q 624 819 661 818 q 610 827 614 821 q 604 849 607 833 q 611 871 604 861 q 629 881 618 881 q 782 876 678 876 q 879 879 815 876 l 908 881 q 928 872 921 881 q 935 849 935 863 q 926 824 933 829 q 907 819 919 819 q 802 801 851 822 q 699 726 753 781 l 474 492 q 574 378 522 432 q 697 251 625 324 q 783 163 733 215 q 804 140 799 147 q 874 78 849 96 q 938 56 900 60 q 950 55 940 56 q 966 47 960 54 q 972 26 972 40 q 966 5 972 14 q 947 -4 960 -4 q 907 -3 931 -3 q 829 0 857 0 l 740 0 q 413 371 557 204 q 322 426 368 422 l 322 163 q 328 106 324 128 q 353 70 333 85 q 413 56 372 56 l 421 56 q 440 51 435 56 q 447 26 446 46 q 441 5 447 14 q 422 -4 435 -4 q 250 0 333 0 q 85 -4 175 0 z "},"L":{"ha":793,"x_min":60,"x_max":775,"o":"m 83 -4 q 66 5 72 -4 q 60 26 60 14 q 68 51 61 47 q 94 56 75 56 q 154 70 135 56 q 178 106 174 85 q 185 163 183 128 l 185 714 q 178 770 183 749 q 154 806 174 792 q 94 821 135 821 l 86 821 q 67 826 72 821 q 60 850 61 831 q 66 872 60 863 q 83 881 72 881 q 249 876 175 876 q 422 881 332 876 q 441 872 435 881 q 447 850 447 863 q 438 825 446 829 q 413 821 431 821 q 353 806 372 821 q 328 770 333 792 q 322 714 324 749 l 322 142 q 329 97 325 113 q 354 67 333 81 q 419 56 375 54 l 544 56 q 618 72 593 57 q 658 117 643 86 q 693 217 672 147 q 740 236 703 242 q 764 225 753 233 q 774 204 775 217 l 746 29 q 733 6 742 11 q 706 0 725 0 l 250 0 q 83 -4 175 0 z "},"M":{"ha":1235,"x_min":58,"x_max":1175,"o":"m 594 -7 q 565 7 574 -7 l 253 714 l 249 714 l 251 163 q 257 105 253 125 q 280 70 261 85 q 339 56 299 56 l 347 56 q 367 51 361 56 q 375 26 374 46 q 369 5 375 14 q 350 -4 363 -4 l 315 -3 q 224 0 251 0 q 86 -4 176 0 q 67 5 74 -4 q 61 26 61 14 q 69 51 63 47 q 96 56 76 56 q 155 70 136 56 q 178 105 174 85 q 183 163 182 125 l 186 714 q 176 778 186 757 q 148 809 167 800 q 93 825 129 818 q 76 828 88 826 q 62 837 65 831 q 58 857 58 843 q 67 879 58 874 q 96 885 76 885 q 231 874 178 885 q 323 832 283 864 q 389 738 363 800 l 628 201 l 632 201 l 906 876 l 985 876 q 1150 881 1061 876 q 1169 872 1163 881 q 1175 850 1175 863 q 1166 825 1174 829 q 1140 821 1158 821 q 1081 806 1100 821 q 1056 770 1061 792 q 1050 714 1051 749 l 1050 163 q 1056 106 1051 128 q 1081 70 1061 85 q 1140 56 1100 56 l 1149 56 q 1167 51 1161 56 q 1175 26 1174 46 q 1169 5 1175 14 q 1150 -4 1163 -4 q 983 0 1061 0 q 813 -4 903 0 q 794 5 800 -4 q 788 26 788 14 q 796 51 789 47 q 822 56 803 56 q 882 70 863 56 q 906 106 901 85 q 913 163 911 128 l 913 714 l 908 714 l 622 7 q 594 -7 617 -7 z "},"N":{"ha":1024,"x_min":58,"x_max":976,"o":"m 86 -4 q 67 5 74 -4 q 61 26 61 14 q 69 51 63 47 q 96 56 76 56 q 155 70 136 56 q 178 105 174 85 q 183 163 182 125 l 186 714 q 177 777 186 756 q 149 808 168 799 q 93 825 129 818 q 64 833 69 829 q 58 857 58 838 q 67 879 58 874 q 96 885 76 885 q 232 873 182 885 q 320 831 282 861 q 404 738 358 800 l 785 238 l 789 238 l 786 714 q 781 772 785 751 q 758 806 776 792 q 699 821 739 821 l 690 821 q 670 826 676 821 q 663 850 664 831 q 669 872 663 863 q 688 881 676 881 q 821 876 776 876 q 922 879 847 876 l 951 881 q 970 872 964 881 q 976 850 976 863 q 968 825 975 829 q 942 821 961 821 q 883 806 901 821 q 860 772 864 792 q 854 714 856 751 l 851 14 q 817 -4 850 -4 q 776 14 790 -4 l 253 714 l 249 714 l 251 163 q 257 105 253 125 q 280 70 261 85 q 339 56 299 56 l 347 56 q 367 51 361 56 q 375 26 374 46 q 369 5 375 14 q 350 -4 363 -4 q 215 0 261 0 q 118 -3 188 0 l 86 -4 z "},"Ñ":{"ha":1024,"x_min":58,"x_max":976,"o":"m 86 -4 q 67 5 74 -4 q 61 26 61 14 q 69 51 63 47 q 96 56 76 56 q 155 70 136 56 q 178 105 174 85 q 183 163 182 125 l 186 714 q 177 777 186 756 q 149 808 168 799 q 93 825 129 818 q 64 833 69 829 q 58 857 58 838 q 67 879 58 874 q 96 885 76 885 q 232 873 182 885 q 320 831 282 861 q 404 738 358 800 l 785 238 l 789 238 l 786 714 q 781 772 785 751 q 758 806 776 792 q 699 821 739 821 l 690 821 q 670 826 676 821 q 663 850 664 831 q 669 872 663 863 q 688 881 676 881 q 821 876 776 876 q 922 879 847 876 l 951 881 q 970 872 964 881 q 976 850 976 863 q 968 825 975 829 q 942 821 961 821 q 883 806 901 821 q 860 772 864 792 q 854 714 856 751 l 851 14 q 817 -4 850 -4 q 776 14 790 -4 l 253 714 l 249 714 l 251 163 q 257 105 253 125 q 280 70 261 85 q 339 56 299 56 l 347 56 q 367 51 361 56 q 375 26 374 46 q 369 5 375 14 q 350 -4 363 -4 q 215 0 261 0 q 118 -3 188 0 l 86 -4 m 604 964 q 551 977 574 965 q 500 1011 528 989 q 465 1036 479 1028 q 436 1044 451 1044 q 391 1030 417 1044 q 340 986 365 1015 q 315 975 329 975 q 294 985 303 975 q 292 1011 286 996 q 355 1101 313 1064 q 453 1138 397 1138 q 505 1125 483 1136 q 557 1090 526 1114 q 590 1065 576 1074 q 619 1057 604 1057 q 665 1072 639 1057 q 717 1115 692 1086 q 739 1126 728 1126 q 758 1119 750 1126 q 765 1101 765 1113 q 761 1085 765 1093 q 698 999 739 1035 q 604 964 657 964 z "},"O":{"ha":1021,"x_min":65,"x_max":956,"o":"m 508 -28 q 276 35 376 -28 q 120 203 175 99 q 65 426 65 307 q 131 681 65 572 q 300 847 197 789 q 508 904 403 904 q 744 841 642 904 q 901 674 846 778 q 956 451 956 571 q 889 197 956 306 q 718 30 822 88 q 508 -28 614 -28 m 507 33 q 665 90 601 33 q 759 241 728 146 q 790 451 790 336 q 758 648 790 558 q 663 791 726 738 q 507 844 599 844 q 298 727 368 844 q 228 431 228 610 q 259 232 228 322 q 353 88 290 142 q 507 33 415 33 z "},"Ó":{"ha":1021,"x_min":65,"x_max":956,"o":"m 508 -28 q 276 35 376 -28 q 120 203 175 99 q 65 426 65 307 q 131 681 65 572 q 300 847 197 789 q 508 904 403 904 q 744 841 642 904 q 901 674 846 778 q 956 451 956 571 q 889 197 956 306 q 718 30 822 88 q 508 -28 614 -28 m 507 33 q 665 90 601 33 q 759 241 728 146 q 790 451 790 336 q 758 648 790 558 q 663 791 726 738 q 507 844 599 844 q 298 727 368 844 q 228 431 228 610 q 259 232 228 322 q 353 88 290 142 q 507 33 415 33 m 510 961 q 497 958 506 958 q 473 969 483 958 q 463 992 463 979 q 469 1008 463 1001 q 524 1064 476 1015 q 617 1146 572 1113 q 654 1171 639 1163 q 683 1179 669 1179 q 719 1160 704 1179 q 733 1128 733 1144 q 682 1064 733 1099 q 510 961 576 996 z "},"Ô":{"ha":1021,"x_min":65,"x_max":956,"o":"m 508 -28 q 276 35 376 -28 q 120 203 175 99 q 65 426 65 307 q 131 681 65 572 q 300 847 197 789 q 508 904 403 904 q 744 841 642 904 q 901 674 846 778 q 956 451 956 571 q 889 197 956 306 q 718 30 822 88 q 508 -28 614 -28 m 507 33 q 665 90 601 33 q 759 241 728 146 q 790 451 790 336 q 758 648 790 558 q 663 791 726 738 q 507 844 599 844 q 298 727 368 844 q 228 431 228 610 q 259 232 228 322 q 353 88 290 142 q 507 33 415 33 m 331 958 q 310 953 321 953 q 282 964 293 953 q 274 983 274 972 q 288 1007 274 994 l 471 1151 q 511 1167 490 1167 q 551 1151 532 1167 l 735 1007 q 749 982 749 994 q 740 964 749 972 q 713 953 729 953 q 692 958 701 953 l 511 1047 l 331 958 z "},"Ö":{"ha":1021,"x_min":65,"x_max":956,"o":"m 508 -28 q 276 35 376 -28 q 120 203 175 99 q 65 426 65 307 q 131 681 65 572 q 300 847 197 789 q 508 904 403 904 q 744 841 642 904 q 901 674 846 778 q 956 451 956 571 q 889 197 956 306 q 718 30 822 88 q 508 -28 614 -28 m 507 33 q 665 90 601 33 q 759 241 728 146 q 790 451 790 336 q 758 648 790 558 q 663 791 726 738 q 507 844 599 844 q 298 727 368 844 q 228 431 228 610 q 259 232 228 322 q 353 88 290 142 q 507 33 415 33 m 378 988 q 317 1013 343 988 q 292 1071 292 1038 q 317 1131 292 1107 q 379 1154 342 1154 q 439 1131 415 1154 q 463 1071 463 1107 q 438 1013 463 1038 q 378 988 414 988 m 644 988 q 584 1013 610 988 q 558 1071 558 1038 q 583 1131 558 1107 q 646 1154 608 1154 q 706 1131 682 1154 q 729 1071 729 1107 q 705 1013 729 1038 q 644 988 681 988 z "},"Ò":{"ha":1021,"x_min":65,"x_max":956,"o":"m 508 -28 q 276 35 376 -28 q 120 203 175 99 q 65 426 65 307 q 131 681 65 572 q 300 847 197 789 q 508 904 403 904 q 744 841 642 904 q 901 674 846 778 q 956 451 956 571 q 889 197 956 306 q 718 30 822 88 q 508 -28 614 -28 m 507 33 q 665 90 601 33 q 759 241 728 146 q 790 451 790 336 q 758 648 790 558 q 663 791 726 738 q 507 844 599 844 q 298 727 368 844 q 228 431 228 610 q 259 232 228 322 q 353 88 290 142 q 507 33 415 33 m 515 939 q 343 1042 449 974 q 292 1106 292 1076 q 306 1138 292 1122 q 342 1157 321 1157 q 372 1149 356 1157 q 408 1124 388 1140 q 501 1042 453 1090 q 556 986 549 993 q 563 969 563 979 q 551 946 563 957 q 528 935 540 935 q 515 939 521 935 z "},"Ø":{"ha":1021,"x_min":65,"x_max":956,"o":"m 508 -28 q 218 78 339 -28 l 143 -7 q 124 -15 135 -15 q 103 -8 113 -15 q 94 10 94 -3 q 100 26 94 21 l 179 117 q 94 260 124 179 q 65 426 65 340 q 131 681 65 572 q 300 847 197 789 q 508 904 403 904 q 792 806 672 904 l 871 894 q 890 903 879 903 q 911 896 901 903 q 919 878 919 890 q 914 861 919 867 l 832 769 q 924 623 892 706 q 956 451 956 540 q 889 197 956 306 q 718 30 822 88 q 508 -28 614 -28 m 721 725 q 507 844 644 844 q 298 727 368 844 q 228 431 228 610 q 265 213 228 308 l 721 725 m 507 33 q 665 90 601 33 q 759 241 728 146 q 790 451 790 336 q 747 674 790 579 l 292 160 q 382 67 328 100 q 507 33 436 33 z "},"Õ":{"ha":1021,"x_min":65,"x_max":956,"o":"m 508 -28 q 276 35 376 -28 q 120 203 175 99 q 65 426 65 307 q 131 681 65 572 q 300 847 197 789 q 508 904 403 904 q 744 841 642 904 q 901 674 846 778 q 956 451 956 571 q 889 197 956 306 q 718 30 822 88 q 508 -28 614 -28 m 507 33 q 665 90 601 33 q 759 241 728 146 q 790 451 790 336 q 758 648 790 558 q 663 791 726 738 q 507 844 599 844 q 298 727 368 844 q 228 431 228 610 q 259 232 228 322 q 353 88 290 142 q 507 33 415 33 m 603 964 q 549 977 572 965 q 499 1011 526 989 q 464 1036 478 1028 q 435 1044 450 1044 q 390 1030 415 1044 q 339 986 364 1015 q 314 975 328 975 q 293 985 301 975 q 290 1011 285 996 q 353 1101 311 1064 q 451 1138 396 1138 q 503 1125 482 1136 q 556 1090 525 1114 q 589 1065 575 1074 q 618 1057 603 1057 q 664 1072 638 1057 q 715 1115 690 1086 q 738 1126 726 1126 q 756 1119 749 1126 q 764 1101 764 1113 q 760 1085 764 1093 q 697 999 738 1035 q 603 964 656 964 z "},"Œ":{"ha":1400,"x_min":68,"x_max":1353,"o":"m 540 0 q 301 54 408 0 q 131 208 193 108 q 68 443 68 308 q 139 683 68 585 q 323 828 210 781 q 561 876 436 876 l 1260 876 q 1296 843 1296 876 l 1300 649 q 1288 628 1300 636 q 1263 621 1275 621 q 1233 627 1246 621 q 1219 646 1221 633 q 1195 749 1208 714 q 1156 802 1182 785 q 1083 821 1131 819 l 897 821 l 897 468 l 1149 468 q 1164 458 1158 467 q 1169 436 1169 449 q 1164 417 1169 425 q 1149 408 1158 408 l 897 408 l 897 146 q 904 99 900 117 q 929 68 908 82 q 994 56 950 54 l 1122 56 q 1196 72 1171 57 q 1235 117 1221 86 q 1271 217 1250 147 q 1318 236 1281 242 q 1342 225 1332 233 q 1351 204 1353 217 l 1324 29 q 1311 6 1319 11 q 1283 0 1303 0 l 540 0 m 669 56 q 729 70 710 56 q 753 106 749 85 q 760 163 758 128 l 760 714 q 753 770 758 749 q 729 806 749 792 q 669 821 710 821 l 560 821 q 323 730 414 821 q 232 442 232 639 q 274 239 232 326 q 393 103 317 151 q 571 56 469 56 l 669 56 z "},"P":{"ha":839,"x_min":58,"x_max":806,"o":"m 83 -4 q 65 5 72 -4 q 58 26 58 14 q 67 51 60 47 q 94 56 75 56 q 154 70 135 56 q 178 106 174 85 q 185 163 183 128 l 185 714 q 178 770 183 749 q 154 806 174 792 q 94 821 135 821 l 86 821 q 66 826 72 821 q 58 850 60 831 q 65 872 58 863 q 83 881 72 881 q 250 876 174 876 l 458 876 q 692 826 579 876 q 806 626 806 776 q 756 478 806 543 q 626 376 706 413 q 460 340 546 340 q 321 363 381 340 l 321 163 q 327 106 322 128 q 351 70 332 85 q 411 56 371 56 l 419 56 q 440 51 433 56 q 447 26 446 46 q 441 5 447 14 q 422 -4 435 -4 q 249 0 333 0 q 83 -4 174 0 m 419 403 q 523 423 469 403 q 614 492 576 443 q 651 622 651 542 q 574 785 651 744 q 408 825 496 825 q 354 817 372 825 q 328 788 336 810 q 321 718 321 765 l 321 418 q 419 403 354 403 z "},"Þ":{"ha":842,"x_min":58,"x_max":806,"o":"m 83 -4 q 65 5 71 -4 q 58 26 58 14 q 67 51 60 47 q 93 56 75 56 q 153 70 133 56 q 178 106 172 85 q 185 163 183 126 l 185 714 q 178 771 183 750 q 153 806 172 792 q 93 821 133 821 l 85 821 q 66 826 72 821 q 58 850 60 831 q 65 872 58 863 q 83 881 71 881 q 249 876 174 876 q 422 881 332 876 q 441 872 435 881 q 447 850 447 863 q 438 825 446 829 q 411 821 431 821 q 339 796 356 821 q 321 725 322 771 l 460 725 q 695 667 585 724 q 806 465 806 611 q 756 317 806 381 q 626 222 707 254 q 457 188 546 189 q 321 211 382 188 l 321 163 q 327 106 322 128 q 351 70 332 85 q 411 56 371 56 l 419 56 q 440 51 433 56 q 447 26 446 46 q 441 5 447 14 q 422 -4 435 -4 q 250 0 333 0 q 83 -4 174 0 m 419 251 q 578 299 506 251 q 651 461 651 346 q 421 661 651 654 l 321 661 l 321 265 q 419 251 351 251 z "},"Q":{"ha":1024,"x_min":67,"x_max":1156,"o":"m 967 -278 q 865 -262 910 -278 q 788 -224 821 -247 q 701 -160 754 -201 q 627 -101 660 -125 q 557 -58 594 -78 q 451 -22 513 -36 q 239 63 306 11 q 112 222 157 126 q 67 426 67 318 q 133 681 67 572 q 301 847 199 789 q 510 904 404 904 q 746 841 643 904 q 903 674 849 778 q 958 451 958 571 q 880 180 958 296 q 672 13 801 64 q 615 1 650 3 l 615 -1 q 683 -21 653 -6 q 829 -114 738 -47 q 939 -185 897 -162 q 1021 -208 981 -208 q 1058 -192 1046 -206 q 1069 -160 1069 -179 q 1044 -98 1069 -126 q 978 -68 1018 -69 q 994 -25 974 -46 q 1057 -4 1015 -4 q 1098 -17 1075 -4 q 1138 -54 1121 -29 q 1156 -115 1156 -79 q 1127 -194 1156 -157 q 1055 -253 1099 -231 q 967 -278 1011 -276 m 508 29 q 667 87 603 29 q 762 240 731 144 q 793 451 793 336 q 761 648 793 558 q 665 791 729 738 q 508 844 600 844 q 300 727 369 844 q 231 431 231 610 q 262 231 231 322 q 356 84 293 139 q 508 29 418 29 z "},"R":{"ha":932,"x_min":60,"x_max":931,"o":"m 85 -4 q 66 5 72 -4 q 60 26 60 14 q 68 51 61 47 q 94 56 75 56 q 154 70 135 56 q 178 106 174 85 q 185 163 183 128 l 185 713 q 178 769 183 749 q 154 806 174 790 q 94 821 135 821 l 86 821 q 67 826 72 821 q 60 850 61 831 q 66 872 60 863 q 85 881 72 881 q 250 876 175 876 l 489 876 q 667 842 596 875 q 772 759 739 810 q 806 650 806 708 q 745 510 806 574 q 581 418 685 446 l 604 381 q 710 219 663 286 q 813 93 757 151 q 896 56 851 61 q 908 55 899 56 q 924 47 918 54 q 931 26 931 40 q 924 5 931 14 q 906 -4 918 -4 l 869 -3 q 781 0 808 0 q 685 40 725 11 q 607 121 646 68 q 494 293 567 174 l 469 333 q 429 377 449 365 q 363 389 410 389 l 322 389 l 322 163 q 328 106 324 128 q 353 70 333 85 q 413 56 372 56 l 421 56 q 440 51 433 56 q 447 26 446 46 q 441 5 447 14 q 422 -4 435 -4 q 249 0 333 0 q 85 -4 175 0 m 444 443 q 651 638 651 443 q 597 771 651 717 q 419 825 543 825 q 358 815 379 825 q 330 782 338 806 q 322 710 322 758 l 322 443 l 444 443 z "},"S":{"ha":757,"x_min":68,"x_max":693,"o":"m 368 -28 q 145 23 222 -28 q 68 172 68 74 q 102 255 68 222 q 190 288 136 288 q 239 272 222 286 q 256 244 256 257 q 242 235 256 243 q 217 210 228 226 q 206 164 206 193 q 245 63 206 99 q 368 28 285 28 q 468 50 425 28 q 534 109 511 72 q 557 186 557 146 q 528 272 557 236 q 458 333 500 308 q 344 389 417 357 q 210 457 261 426 q 122 538 158 488 q 86 664 86 589 q 169 844 86 785 q 386 904 251 904 q 570 860 492 904 q 649 729 649 815 q 615 647 649 679 q 526 614 581 614 q 478 630 494 615 q 461 657 461 644 q 480 667 461 658 q 513 692 499 675 q 528 738 528 708 q 488 818 528 789 q 388 847 449 847 q 259 808 303 847 q 215 710 215 768 q 242 628 215 661 q 326 564 268 596 q 429 514 374 539 q 570 440 518 474 q 658 353 622 407 q 693 218 693 299 q 649 92 693 149 q 531 4 606 36 q 368 -28 457 -28 z "},"T":{"ha":833,"x_min":36,"x_max":799,"o":"m 249 -4 q 230 5 236 -4 q 224 26 224 14 q 232 51 225 47 q 258 56 239 56 q 318 70 299 56 q 342 106 338 85 q 349 163 347 128 l 349 825 l 253 825 q 180 805 206 824 q 141 749 154 786 q 118 644 128 713 q 101 626 117 633 q 69 619 86 619 q 47 627 57 619 q 36 647 36 635 l 40 843 q 78 876 40 876 l 757 876 q 793 843 793 876 l 799 647 q 788 627 799 635 q 764 619 776 619 q 733 626 747 619 q 717 644 718 633 q 693 750 706 714 q 654 805 681 786 q 581 825 628 824 l 486 825 l 486 163 q 492 106 488 128 q 517 70 497 85 q 576 56 536 56 l 585 56 q 603 51 597 56 q 611 26 610 46 q 605 5 611 14 q 586 -4 599 -4 q 422 0 497 0 q 249 -4 339 0 z "},"U":{"ha":1000,"x_min":38,"x_max":975,"o":"m 499 -28 q 316 10 392 -28 q 201 108 240 47 q 163 240 163 169 l 163 714 q 156 770 161 749 q 132 806 151 792 q 72 821 113 821 l 64 821 q 44 826 50 821 q 38 850 39 831 q 44 872 38 863 q 63 881 50 881 q 226 876 151 876 q 400 881 311 876 q 419 872 413 881 q 425 850 425 863 q 417 826 424 831 q 397 821 411 821 q 332 807 353 821 q 306 772 311 793 q 300 714 301 751 l 300 281 q 345 119 300 185 q 521 54 390 54 q 702 113 649 54 q 756 261 756 172 l 756 626 q 749 760 756 721 q 721 810 742 799 q 649 821 700 821 l 640 821 q 622 826 628 821 q 614 850 615 831 q 620 872 614 863 q 639 881 626 881 q 794 876 729 876 q 950 881 861 876 q 969 872 963 881 q 975 850 975 863 q 967 826 974 831 q 947 821 961 821 q 870 811 892 821 q 841 765 849 801 q 833 635 833 728 l 833 247 q 782 92 833 154 q 653 1 731 31 q 499 -28 576 -28 z "},"Ú":{"ha":1000,"x_min":38,"x_max":975,"o":"m 499 -28 q 316 10 392 -28 q 201 108 240 47 q 163 240 163 169 l 163 714 q 156 770 161 749 q 132 806 151 792 q 72 821 113 821 l 64 821 q 44 826 50 821 q 38 850 39 831 q 44 872 38 863 q 63 881 50 881 q 226 876 151 876 q 400 881 311 876 q 419 872 413 881 q 425 850 425 863 q 417 826 424 831 q 397 821 411 821 q 332 807 353 821 q 306 772 311 793 q 300 714 301 751 l 300 281 q 345 119 300 185 q 521 54 390 54 q 702 113 649 54 q 756 261 756 172 l 756 626 q 749 760 756 721 q 721 810 742 799 q 649 821 700 821 l 640 821 q 622 826 628 821 q 614 850 615 831 q 620 872 614 863 q 639 881 626 881 q 794 876 729 876 q 950 881 861 876 q 969 872 963 881 q 975 850 975 863 q 967 826 974 831 q 947 821 961 821 q 870 811 892 821 q 841 765 849 801 q 833 635 833 728 l 833 247 q 782 92 833 154 q 653 1 731 31 q 499 -28 576 -28 m 525 988 q 513 985 521 985 q 488 995 499 985 q 478 1018 478 1006 q 485 1035 478 1028 q 540 1090 492 1042 q 632 1172 588 1139 q 669 1197 654 1189 q 699 1206 685 1206 q 735 1186 719 1206 q 749 1154 749 1171 q 697 1090 749 1125 q 525 988 592 1022 z "},"Û":{"ha":1000,"x_min":38,"x_max":975,"o":"m 499 -28 q 316 10 392 -28 q 201 108 240 47 q 163 240 163 169 l 163 714 q 156 770 161 749 q 132 806 151 792 q 72 821 113 821 l 64 821 q 44 826 50 821 q 38 850 39 831 q 44 872 38 863 q 63 881 50 881 q 226 876 151 876 q 400 881 311 876 q 419 872 413 881 q 425 850 425 863 q 417 826 424 831 q 397 821 411 821 q 332 807 353 821 q 306 772 311 793 q 300 714 301 751 l 300 281 q 345 119 300 185 q 521 54 390 54 q 702 113 649 54 q 756 261 756 172 l 756 626 q 749 760 756 721 q 721 810 742 799 q 649 821 700 821 l 640 821 q 622 826 628 821 q 614 850 615 831 q 620 872 614 863 q 639 881 626 881 q 794 876 729 876 q 950 881 861 876 q 969 872 963 881 q 975 850 975 863 q 967 826 974 831 q 947 821 961 821 q 870 811 892 821 q 841 765 849 801 q 833 635 833 728 l 833 247 q 782 92 833 154 q 653 1 731 31 q 499 -28 576 -28 m 346 985 q 325 979 336 979 q 297 990 308 979 q 289 1010 289 999 q 303 1033 289 1021 l 486 1178 q 526 1193 506 1193 q 567 1178 547 1193 l 750 1033 q 764 1008 764 1021 q 756 990 764 999 q 728 979 744 979 q 707 985 717 979 l 526 1074 l 346 985 z "},"Ü":{"ha":1000,"x_min":38,"x_max":975,"o":"m 499 -28 q 316 10 392 -28 q 201 108 240 47 q 163 240 163 169 l 163 714 q 156 770 161 749 q 132 806 151 792 q 72 821 113 821 l 64 821 q 44 826 50 821 q 38 850 39 831 q 44 872 38 863 q 63 881 50 881 q 226 876 151 876 q 400 881 311 876 q 419 872 413 881 q 425 850 425 863 q 417 826 424 831 q 397 821 411 821 q 332 807 353 821 q 306 772 311 793 q 300 714 301 751 l 300 281 q 345 119 300 185 q 521 54 390 54 q 702 113 649 54 q 756 261 756 172 l 756 626 q 749 760 756 721 q 721 810 742 799 q 649 821 700 821 l 640 821 q 622 826 628 821 q 614 850 615 831 q 620 872 614 863 q 639 881 626 881 q 794 876 729 876 q 950 881 861 876 q 969 872 963 881 q 975 850 975 863 q 967 826 974 831 q 947 821 961 821 q 870 811 892 821 q 841 765 849 801 q 833 635 833 728 l 833 247 q 782 92 833 154 q 653 1 731 31 q 499 -28 576 -28 m 393 1014 q 333 1039 358 1014 q 307 1097 307 1064 q 332 1157 307 1133 q 394 1181 357 1181 q 454 1157 431 1181 q 478 1097 478 1133 q 453 1039 478 1064 q 393 1014 429 1014 m 660 1014 q 599 1039 625 1014 q 574 1097 574 1064 q 599 1157 574 1133 q 661 1181 624 1181 q 721 1157 697 1181 q 744 1097 744 1133 q 720 1039 744 1064 q 660 1014 696 1014 z "},"Ù":{"ha":1000,"x_min":38,"x_max":975,"o":"m 499 -28 q 316 10 392 -28 q 201 108 240 47 q 163 240 163 169 l 163 714 q 156 770 161 749 q 132 806 151 792 q 72 821 113 821 l 64 821 q 44 826 50 821 q 38 850 39 831 q 44 872 38 863 q 63 881 50 881 q 226 876 151 876 q 400 881 311 876 q 419 872 413 881 q 425 850 425 863 q 417 826 424 831 q 397 821 411 821 q 332 807 353 821 q 306 772 311 793 q 300 714 301 751 l 300 281 q 345 119 300 185 q 521 54 390 54 q 702 113 649 54 q 756 261 756 172 l 756 626 q 749 760 756 721 q 721 810 742 799 q 649 821 700 821 l 640 821 q 622 826 628 821 q 614 850 615 831 q 620 872 614 863 q 639 881 626 881 q 794 876 729 876 q 950 881 861 876 q 969 872 963 881 q 975 850 975 863 q 967 826 974 831 q 947 821 961 821 q 870 811 892 821 q 841 765 849 801 q 833 635 833 728 l 833 247 q 782 92 833 154 q 653 1 731 31 q 499 -28 576 -28 m 531 965 q 358 1068 464 1000 q 307 1132 307 1103 q 321 1164 307 1149 q 357 1183 336 1183 q 387 1175 371 1183 q 424 1150 403 1167 q 516 1068 468 1117 q 571 1013 564 1019 q 578 996 578 1006 q 567 972 578 983 q 543 961 556 961 q 531 965 536 961 z "},"V":{"ha":900,"x_min":13,"x_max":926,"o":"m 422 -14 q 290 349 381 100 q 158 708 200 597 q 113 792 135 768 q 47 824 90 815 q 31 827 42 825 q 16 835 19 829 q 13 856 13 842 q 22 878 13 872 q 50 883 31 883 q 208 851 154 883 q 294 738 263 819 l 496 196 l 500 196 l 692 753 q 700 789 700 776 q 684 815 700 808 q 631 821 668 821 l 622 821 q 603 826 608 821 q 596 850 597 831 q 602 872 596 863 q 619 881 608 881 q 771 876 710 876 q 872 879 797 876 l 901 881 q 920 872 914 881 q 926 850 926 863 q 919 826 925 831 q 900 821 914 821 q 809 801 840 821 q 756 726 778 782 q 622 358 714 613 q 488 -14 529 103 l 422 -14 z "},"W":{"ha":1297,"x_min":11,"x_max":1321,"o":"m 157 708 q 111 792 133 768 q 46 824 89 815 q 29 827 40 825 q 15 835 18 829 q 11 856 11 842 q 20 878 11 872 q 49 883 29 883 q 207 851 153 883 q 293 738 261 819 l 451 229 l 457 229 l 626 876 l 699 876 l 925 229 l 929 229 l 1086 753 q 1092 789 1092 774 q 1078 815 1092 808 q 1025 821 1064 821 l 1017 821 q 997 826 1003 821 q 990 850 992 831 q 997 872 990 863 q 1014 881 1003 881 q 1165 876 1104 876 q 1267 879 1192 876 l 1296 881 q 1315 872 1308 881 q 1321 850 1321 863 q 1314 826 1319 831 q 1294 821 1308 821 q 1199 801 1233 821 q 1150 726 1165 781 l 922 -14 l 857 -14 l 632 649 l 453 -14 l 388 -14 l 157 708 z "},"X":{"ha":907,"x_min":10,"x_max":915,"o":"m 35 -4 q 16 5 22 -4 q 10 26 10 14 q 17 51 11 46 q 36 56 22 56 q 122 74 93 56 q 190 150 150 92 l 392 436 l 214 715 q 149 790 181 767 q 71 824 117 814 q 54 827 65 825 q 40 835 43 829 q 36 856 36 842 q 47 879 36 875 q 72 883 57 883 q 92 883 88 883 q 247 851 189 883 q 360 739 304 819 l 474 553 l 611 753 q 628 793 628 781 q 608 815 628 810 q 550 821 589 821 l 542 821 q 522 826 528 821 q 515 850 517 831 q 522 872 515 863 q 539 881 528 881 q 690 876 628 876 q 831 881 742 876 q 849 872 843 881 q 856 850 856 863 q 849 826 854 831 q 829 821 843 821 q 744 803 772 821 q 675 726 715 785 l 513 496 l 754 151 q 813 81 785 106 q 881 56 840 56 l 889 56 q 908 51 903 56 q 915 26 914 46 q 909 5 915 14 q 892 -4 903 -4 q 725 0 803 0 q 556 -4 646 0 q 537 5 543 -4 q 531 26 531 14 q 540 51 532 47 q 565 56 547 56 q 608 65 593 56 q 622 92 622 75 q 610 124 622 107 l 432 378 l 254 124 q 238 83 238 101 q 257 61 238 67 q 315 56 276 56 l 324 56 q 343 51 338 56 q 350 26 349 46 q 344 5 350 14 q 326 -4 338 -4 q 175 0 238 0 q 35 -4 125 0 z "},"Y":{"ha":863,"x_min":6,"x_max":876,"o":"m 264 -4 q 245 5 251 -4 q 239 26 239 14 q 248 51 240 47 q 274 56 256 56 q 333 70 314 56 q 358 106 353 85 q 364 163 363 128 l 364 336 q 295 498 364 358 q 183 715 226 638 q 122 790 156 765 q 40 824 89 814 q 24 827 35 825 q 9 835 13 829 q 6 856 6 842 q 15 878 6 872 q 43 883 24 883 q 217 853 154 883 q 328 739 279 824 q 393 607 351 693 q 474 449 454 485 l 478 449 l 632 753 q 644 793 644 781 q 627 815 644 810 q 571 821 610 821 l 563 821 q 543 826 549 821 q 536 850 538 831 q 542 872 536 863 q 560 881 549 881 q 711 876 650 876 q 851 881 763 876 q 870 872 864 881 q 876 850 876 863 q 869 826 875 831 q 850 821 864 821 q 758 799 793 821 q 696 726 724 778 l 539 431 q 522 397 535 422 q 506 349 510 371 q 501 297 501 328 l 501 163 q 508 106 503 128 q 532 70 513 85 q 592 56 551 56 l 600 56 q 619 51 614 56 q 626 26 625 46 q 620 5 626 14 q 603 -4 614 -4 q 436 0 514 0 q 264 -4 354 0 z "},"Ý":{"ha":863,"x_min":6,"x_max":876,"o":"m 264 -4 q 245 5 251 -4 q 239 26 239 14 q 248 51 240 47 q 274 56 256 56 q 333 70 314 56 q 358 106 353 85 q 364 163 363 128 l 364 336 q 295 498 364 358 q 183 715 226 638 q 122 790 156 765 q 40 824 89 814 q 24 827 35 825 q 9 835 13 829 q 6 856 6 842 q 15 878 6 872 q 43 883 24 883 q 217 853 154 883 q 328 739 279 824 q 393 607 351 693 q 474 449 454 485 l 478 449 l 632 753 q 644 793 644 781 q 627 815 644 810 q 571 821 610 821 l 563 821 q 543 826 549 821 q 536 850 538 831 q 542 872 536 863 q 560 881 549 881 q 711 876 650 876 q 851 881 763 876 q 870 872 864 881 q 876 850 876 863 q 869 826 875 831 q 850 821 864 821 q 758 799 793 821 q 696 726 724 778 l 539 431 q 522 397 535 422 q 506 349 510 371 q 501 297 501 328 l 501 163 q 508 106 503 128 q 532 70 513 85 q 592 56 551 56 l 600 56 q 619 51 614 56 q 626 26 625 46 q 620 5 626 14 q 603 -4 614 -4 q 436 0 514 0 q 264 -4 354 0 m 422 988 q 410 985 418 985 q 385 995 396 985 q 375 1018 375 1006 q 382 1035 375 1028 q 437 1090 389 1042 q 529 1172 485 1139 q 567 1197 551 1189 q 596 1206 582 1206 q 632 1186 617 1206 q 646 1154 646 1171 q 594 1090 646 1125 q 422 988 489 1022 z "},"Z":{"ha":863,"x_min":47,"x_max":808,"o":"m 72 -4 q 54 5 61 -4 q 47 26 47 14 q 55 51 49 46 q 75 56 61 56 q 119 60 104 56 q 149 83 135 65 q 186 139 164 100 l 497 715 q 524 792 524 769 q 506 816 524 811 q 443 821 489 821 l 292 821 q 219 805 244 819 q 179 760 194 790 q 143 660 164 729 q 126 642 139 647 q 97 640 114 638 q 76 651 85 643 q 68 672 67 660 l 96 847 q 108 871 100 865 q 136 876 117 876 l 613 876 q 783 881 693 876 q 802 872 796 881 q 808 850 808 863 q 801 826 807 831 q 787 822 796 822 q 774 821 778 821 q 701 790 728 818 q 650 715 675 763 l 346 139 q 333 97 333 111 q 408 56 333 57 l 572 56 q 646 72 621 57 q 686 117 671 86 q 722 217 701 147 q 768 236 729 242 q 790 225 781 233 q 797 204 799 217 l 769 29 q 757 6 765 11 q 729 0 749 0 l 239 0 q 72 -4 163 0 z "},"a":{"ha":696,"x_min":47,"x_max":668,"o":"m 233 -17 q 99 31 150 -17 q 47 149 47 78 q 106 280 47 236 q 244 337 164 324 q 453 357 325 350 l 453 467 q 419 570 453 535 q 310 606 385 606 q 235 579 267 606 q 203 508 203 553 q 213 472 203 486 q 235 447 224 457 q 247 436 247 438 q 230 415 247 428 q 188 401 213 401 q 122 432 146 401 q 97 504 97 463 q 162 611 97 576 q 318 646 226 646 q 503 603 432 646 q 575 443 575 560 l 575 119 q 593 64 576 90 q 647 38 610 38 q 663 33 658 38 q 668 15 668 29 q 642 -9 668 -1 q 592 -17 617 -17 q 499 14 539 -17 q 453 96 458 44 q 363 13 424 42 q 233 -17 303 -17 m 278 58 q 365 82 325 58 q 429 147 406 106 q 453 238 453 188 l 453 317 q 247 269 307 306 q 188 153 188 233 q 278 58 188 58 z "},"á":{"ha":696,"x_min":47,"x_max":668,"o":"m 233 -17 q 99 31 150 -17 q 47 149 47 78 q 106 280 47 236 q 244 337 164 324 q 453 357 325 350 l 453 467 q 419 570 453 535 q 310 606 385 606 q 235 579 267 606 q 203 508 203 553 q 213 472 203 486 q 235 447 224 457 q 247 436 247 438 q 230 415 247 428 q 188 401 213 401 q 122 432 146 401 q 97 504 97 463 q 162 611 97 576 q 318 646 226 646 q 503 603 432 646 q 575 443 575 560 l 575 119 q 593 64 576 90 q 647 38 610 38 q 663 33 658 38 q 668 15 668 29 q 642 -9 668 -1 q 592 -17 617 -17 q 499 14 539 -17 q 453 96 458 44 q 363 13 424 42 q 233 -17 303 -17 m 278 58 q 365 82 325 58 q 429 147 406 106 q 453 238 453 188 l 453 317 q 247 269 307 306 q 188 153 188 233 q 278 58 188 58 m 282 744 q 271 755 275 747 q 267 772 267 763 q 272 790 267 781 l 376 981 q 426 1013 392 1013 q 453 1006 436 1013 q 478 983 468 997 q 488 954 488 969 q 475 922 488 938 l 333 757 q 300 740 318 740 q 282 744 290 740 z "},"â":{"ha":696,"x_min":47,"x_max":668,"o":"m 233 -17 q 99 31 150 -17 q 47 149 47 78 q 106 280 47 236 q 244 337 164 324 q 453 357 325 350 l 453 467 q 419 570 453 535 q 310 606 385 606 q 235 579 267 606 q 203 508 203 553 q 213 472 203 486 q 235 447 224 457 q 247 436 247 438 q 230 415 247 428 q 188 401 213 401 q 122 432 146 401 q 97 504 97 463 q 162 611 97 576 q 318 646 226 646 q 503 603 432 646 q 575 443 575 560 l 575 119 q 593 64 576 90 q 647 38 610 38 q 663 33 658 38 q 668 15 668 29 q 642 -9 668 -1 q 592 -17 617 -17 q 499 14 539 -17 q 453 96 458 44 q 363 13 424 42 q 233 -17 303 -17 m 278 58 q 365 82 325 58 q 429 147 406 106 q 453 238 453 188 l 453 317 q 247 269 307 306 q 188 153 188 233 q 278 58 188 58 m 146 731 q 132 754 132 739 q 138 772 132 763 l 279 978 q 313 996 292 996 q 349 978 336 996 l 490 772 q 496 754 496 763 q 482 731 496 739 q 467 726 475 726 q 435 740 454 726 q 314 876 397 769 q 193 740 231 769 q 161 726 174 726 q 146 731 151 726 z "},"ä":{"ha":696,"x_min":47,"x_max":668,"o":"m 233 -17 q 99 31 150 -17 q 47 149 47 78 q 106 280 47 236 q 244 337 164 324 q 453 357 325 350 l 453 467 q 419 570 453 535 q 310 606 385 606 q 235 579 267 606 q 203 508 203 553 q 213 472 203 486 q 235 447 224 457 q 247 436 247 438 q 230 415 247 428 q 188 401 213 401 q 122 432 146 401 q 97 504 97 463 q 162 611 97 576 q 318 646 226 646 q 503 603 432 646 q 575 443 575 560 l 575 119 q 593 64 576 90 q 647 38 610 38 q 663 33 658 38 q 668 15 668 29 q 642 -9 668 -1 q 592 -17 617 -17 q 499 14 539 -17 q 453 96 458 44 q 363 13 424 42 q 233 -17 303 -17 m 278 58 q 365 82 325 58 q 429 147 406 106 q 453 238 453 188 l 453 317 q 247 269 307 306 q 188 153 188 233 q 278 58 188 58 m 201 769 q 141 794 167 769 q 115 853 115 819 q 140 913 115 889 q 203 936 165 936 q 263 913 239 936 q 286 853 286 889 q 262 794 286 819 q 201 769 238 769 m 442 769 q 381 794 407 769 q 356 853 356 819 q 381 913 356 889 q 443 936 406 936 q 503 913 479 936 q 526 853 526 889 q 502 794 526 819 q 442 769 478 769 z "},"à":{"ha":696,"x_min":47,"x_max":668,"o":"m 233 -17 q 99 31 150 -17 q 47 149 47 78 q 106 280 47 236 q 244 337 164 324 q 453 357 325 350 l 453 467 q 419 570 453 535 q 310 606 385 606 q 235 579 267 606 q 203 508 203 553 q 213 472 203 486 q 235 447 224 457 q 247 436 247 438 q 230 415 247 428 q 188 401 213 401 q 122 432 146 401 q 97 504 97 463 q 162 611 97 576 q 318 646 226 646 q 503 603 432 646 q 575 443 575 560 l 575 119 q 593 64 576 90 q 647 38 610 38 q 663 33 658 38 q 668 15 668 29 q 642 -9 668 -1 q 592 -17 617 -17 q 499 14 539 -17 q 453 96 458 44 q 363 13 424 42 q 233 -17 303 -17 m 278 58 q 365 82 325 58 q 429 147 406 106 q 453 238 453 188 l 453 317 q 247 269 307 306 q 188 153 188 233 q 278 58 188 58 m 360 717 q 343 713 353 713 q 308 729 324 713 l 167 894 q 154 926 154 910 q 164 956 154 942 q 189 978 174 969 q 215 985 206 985 q 265 953 249 985 l 369 763 q 375 744 375 753 q 371 727 375 735 q 360 717 367 719 z "},"å":{"ha":696,"x_min":47,"x_max":668,"o":"m 233 -17 q 99 31 150 -17 q 47 149 47 78 q 106 280 47 236 q 244 337 164 324 q 453 357 325 350 l 453 467 q 419 570 453 535 q 310 606 385 606 q 235 579 267 606 q 203 508 203 553 q 213 472 203 486 q 235 447 224 457 q 247 436 247 438 q 230 415 247 428 q 188 401 213 401 q 122 432 146 401 q 97 504 97 463 q 162 611 97 576 q 318 646 226 646 q 503 603 432 646 q 575 443 575 560 l 575 119 q 593 64 576 90 q 647 38 610 38 q 663 33 658 38 q 668 15 668 29 q 642 -9 668 -1 q 592 -17 617 -17 q 499 14 539 -17 q 453 96 458 44 q 363 13 424 42 q 233 -17 303 -17 m 278 58 q 365 82 325 58 q 429 147 406 106 q 453 238 453 188 l 453 317 q 247 269 307 306 q 188 153 188 233 q 278 58 188 58 m 322 739 q 211 775 253 739 q 169 871 169 811 q 208 972 169 938 q 322 1007 246 1007 q 433 971 394 1007 q 472 871 472 935 q 431 774 472 810 q 322 739 390 739 m 322 790 q 369 811 356 790 q 382 871 382 832 q 368 936 382 914 q 322 958 354 958 q 276 934 292 958 q 260 871 260 910 q 322 790 260 790 z "},"ã":{"ha":696,"x_min":47,"x_max":668,"o":"m 233 -17 q 99 31 150 -17 q 47 149 47 78 q 106 280 47 236 q 244 337 164 324 q 453 357 325 350 l 453 467 q 419 570 453 535 q 310 606 385 606 q 235 579 267 606 q 203 508 203 553 q 213 472 203 486 q 235 447 224 457 q 247 436 247 438 q 230 415 247 428 q 188 401 213 401 q 122 432 146 401 q 97 504 97 463 q 162 611 97 576 q 318 646 226 646 q 503 603 432 646 q 575 443 575 560 l 575 119 q 593 64 576 90 q 647 38 610 38 q 663 33 658 38 q 668 15 668 29 q 642 -9 668 -1 q 592 -17 617 -17 q 499 14 539 -17 q 453 96 458 44 q 363 13 424 42 q 233 -17 303 -17 m 278 58 q 365 82 325 58 q 429 147 406 106 q 453 238 453 188 l 453 317 q 247 269 307 306 q 188 153 188 233 q 278 58 188 58 m 383 779 q 333 792 354 781 q 283 826 313 803 q 224 860 247 860 q 181 845 206 860 q 132 801 157 831 q 108 790 124 790 q 92 797 99 790 q 85 815 85 804 q 86 826 85 822 q 146 916 106 879 q 239 953 186 953 q 289 940 268 951 q 339 906 310 929 q 399 872 375 872 q 442 888 417 872 q 490 931 467 903 q 513 942 501 942 q 530 934 522 942 q 538 915 538 926 q 533 900 538 908 q 474 814 513 849 q 383 779 435 779 z "},"æ":{"ha":1074,"x_min":47,"x_max":1019,"o":"m 219 -17 q 98 32 149 -17 q 47 149 47 81 q 109 274 47 229 q 247 333 171 318 q 415 354 324 347 l 453 357 l 453 467 q 419 570 453 535 q 310 606 385 606 q 235 579 267 606 q 203 508 203 553 q 213 472 203 486 q 235 447 224 457 q 247 436 247 438 q 230 415 247 428 q 188 401 213 401 q 122 432 146 401 q 97 504 97 463 q 162 611 97 576 q 318 646 226 646 q 539 567 481 646 q 631 625 579 604 q 743 646 683 646 q 933 583 867 646 q 1010 413 1000 519 q 985 350 1010 367 q 913 333 960 333 l 575 333 q 628 128 575 204 q 794 53 682 53 q 896 78 854 53 q 975 165 938 104 q 989 172 982 172 q 1006 167 999 172 q 1019 142 1019 158 q 1017 129 1019 133 q 908 22 974 60 q 758 -17 842 -17 q 587 24 658 -17 q 476 138 515 65 q 446 85 457 101 q 347 10 414 38 q 219 -17 279 -17 m 801 386 q 876 444 872 386 q 842 553 876 508 q 743 597 807 597 q 626 541 672 597 q 575 386 581 485 l 801 386 m 278 58 q 365 82 325 58 q 429 147 406 106 q 453 238 453 188 l 453 315 q 249 265 310 296 q 188 167 188 235 q 213 90 188 121 q 278 58 238 58 z "},"b":{"ha":779,"x_min":4,"x_max":722,"o":"m 135 -19 q 115 -12 122 -19 q 108 8 108 -4 l 108 819 q 106 872 108 856 q 89 901 104 889 q 38 914 74 914 q 13 919 21 914 q 4 942 4 924 q 10 958 4 950 q 26 967 15 965 q 176 1003 114 979 q 208 1011 196 1010 l 213 1011 q 235 985 235 1011 l 235 565 l 239 565 q 330 626 279 606 q 431 646 381 646 q 579 604 513 646 q 684 488 646 563 q 722 319 722 414 q 678 149 722 226 q 561 28 635 72 q 404 -17 488 -17 q 190 51 281 -17 l 183 51 q 171 21 178 40 q 156 -9 164 1 q 135 -19 147 -19 m 392 31 q 528 108 476 31 q 581 314 581 185 q 531 499 581 422 q 382 576 481 576 q 235 513 294 576 l 235 146 q 259 97 239 124 q 313 50 279 69 q 392 31 347 31 z "},"c":{"ha":660,"x_min":57,"x_max":615,"o":"m 360 -17 q 138 74 218 -17 q 57 315 57 164 q 103 484 60 410 q 221 601 147 558 q 383 646 294 643 q 537 613 472 646 q 601 501 601 579 q 576 426 601 458 q 507 393 550 393 q 462 407 481 393 q 443 431 443 421 q 456 443 443 432 q 478 470 468 454 q 489 507 489 486 q 458 572 489 550 q 382 594 426 594 q 237 516 275 594 q 199 319 199 438 q 251 128 199 203 q 392 53 304 53 q 494 78 451 53 q 571 157 536 104 q 585 164 575 164 q 600 160 592 164 q 611 150 607 157 q 615 136 615 143 q 611 125 615 132 q 497 22 565 60 q 360 -17 429 -17 z "},"ç":{"ha":660,"x_min":57,"x_max":615,"o":"m 215 -289 q 195 -279 203 -289 q 188 -256 188 -269 q 194 -231 188 -237 q 215 -225 201 -225 q 331 -217 292 -225 q 369 -175 369 -208 q 350 -146 369 -154 q 290 -133 331 -137 q 274 -126 279 -132 q 268 -101 268 -121 l 268 -4 q 113 106 168 22 q 57 315 57 190 q 103 484 60 410 q 221 601 147 558 q 383 646 294 643 q 516 624 451 646 q 599 531 581 601 q 601 501 601 521 q 576 426 601 458 q 507 393 550 393 q 462 407 481 393 q 443 431 443 421 q 456 443 443 432 q 478 470 468 454 q 489 507 489 486 q 458 572 489 550 q 382 594 426 594 q 237 516 275 594 q 199 319 199 438 q 251 128 199 203 q 392 53 304 53 q 494 78 451 53 q 571 157 536 104 q 585 164 575 164 q 600 160 592 164 q 611 150 607 157 q 615 136 615 143 q 611 125 615 132 q 497 22 565 60 q 360 -17 429 -17 q 336 -15 343 -17 l 336 -57 q 432 -81 393 -58 q 471 -154 471 -104 q 403 -256 471 -224 q 215 -289 335 -289 z "},"d":{"ha":806,"x_min":57,"x_max":801,"o":"m 349 -17 q 204 26 271 -17 q 97 144 138 68 q 57 315 57 219 q 99 478 57 401 q 214 600 140 554 q 378 646 288 646 q 464 635 421 646 q 539 607 507 625 l 543 607 l 543 819 q 541 872 543 856 q 524 901 539 889 q 472 914 508 914 q 447 919 456 914 q 439 942 439 924 q 444 958 439 950 q 461 967 450 965 q 611 1003 549 979 q 643 1011 631 1010 l 647 1011 q 669 985 669 1011 l 669 128 q 778 46 669 46 q 801 24 801 46 q 778 0 801 4 l 557 -15 q 546 -9 547 -15 q 544 13 544 -3 l 544 68 l 540 68 q 452 7 504 31 q 349 -17 400 -17 m 396 53 q 478 72 444 53 q 543 122 513 90 l 543 489 q 491 563 531 529 q 392 596 451 596 q 294 562 338 596 q 225 463 250 528 q 200 308 200 397 q 251 127 200 201 q 396 53 301 53 z "},"ð":{"ha":782,"x_min":58,"x_max":697,"o":"m 376 -17 q 210 26 282 -17 q 98 142 138 69 q 58 299 58 215 q 104 477 58 401 q 222 592 150 553 q 371 632 294 632 q 467 615 432 632 q 550 563 503 599 l 556 564 q 518 703 547 639 q 443 832 489 767 l 308 753 q 287 763 297 749 q 276 790 276 776 q 285 807 276 803 l 410 878 q 321 960 378 919 q 306 976 310 968 q 306 994 303 985 q 325 1011 311 1011 l 336 1008 q 406 965 364 994 q 472 913 449 935 l 592 985 q 614 976 603 990 q 625 947 625 961 q 618 932 625 936 l 513 871 q 647 645 597 782 q 697 358 697 508 q 696 317 697 331 q 644 136 692 211 q 524 22 596 61 q 376 -17 451 -17 m 376 35 q 515 113 471 35 q 558 317 558 190 q 514 508 558 435 q 376 581 469 581 q 237 504 279 581 q 194 301 194 428 q 238 109 194 183 q 376 35 282 35 z "},"e":{"ha":697,"x_min":57,"x_max":643,"o":"m 382 -17 q 205 28 278 -17 q 94 149 132 72 q 57 318 57 225 q 95 476 57 400 q 204 599 133 551 q 367 646 275 646 q 557 583 490 646 q 633 413 624 519 q 608 350 633 367 q 536 333 583 333 l 199 333 q 252 128 199 204 q 418 53 306 53 q 519 78 478 53 q 599 165 561 104 q 613 172 606 172 q 629 167 622 172 q 643 142 643 158 q 640 129 643 133 q 531 22 597 60 q 382 -17 465 -17 m 425 386 q 500 444 496 386 q 465 553 500 508 q 367 597 431 597 q 250 541 296 597 q 199 386 204 485 l 425 386 z "},"é":{"ha":697,"x_min":57,"x_max":643,"o":"m 382 -17 q 205 28 278 -17 q 94 149 132 72 q 57 318 57 225 q 95 476 57 400 q 204 599 133 551 q 367 646 275 646 q 557 583 490 646 q 633 413 624 519 q 608 350 633 367 q 536 333 583 333 l 199 333 q 252 128 199 204 q 418 53 306 53 q 519 78 478 53 q 599 165 561 104 q 613 172 606 172 q 629 167 622 172 q 643 142 643 158 q 640 129 643 133 q 531 22 597 60 q 382 -17 465 -17 m 425 386 q 500 444 496 386 q 465 553 500 508 q 367 597 431 597 q 250 541 296 597 q 199 386 204 485 l 425 386 m 310 744 q 299 755 303 747 q 294 772 294 763 q 300 790 294 781 l 404 981 q 454 1013 419 1013 q 481 1006 464 1013 q 506 983 496 997 q 515 954 515 969 q 503 922 515 938 l 361 757 q 328 740 346 740 q 310 744 318 740 z "},"ê":{"ha":697,"x_min":57,"x_max":643,"o":"m 382 -17 q 205 28 278 -17 q 94 149 132 72 q 57 318 57 225 q 95 476 57 400 q 204 599 133 551 q 367 646 275 646 q 557 583 490 646 q 633 413 624 519 q 608 350 633 367 q 536 333 583 333 l 199 333 q 252 128 199 204 q 418 53 306 53 q 519 78 478 53 q 599 165 561 104 q 613 172 606 172 q 629 167 622 172 q 643 142 643 158 q 640 129 643 133 q 531 22 597 60 q 382 -17 465 -17 m 425 386 q 500 444 496 386 q 465 553 500 508 q 367 597 431 597 q 250 541 296 597 q 199 386 204 485 l 425 386 m 174 731 q 160 754 160 739 q 165 772 160 763 l 307 978 q 340 996 319 996 q 376 978 364 996 l 518 772 q 524 754 524 763 q 510 731 524 739 q 494 726 503 726 q 463 740 482 726 q 342 876 425 769 q 221 740 258 769 q 189 726 201 726 q 174 731 179 726 z "},"ë":{"ha":697,"x_min":57,"x_max":643,"o":"m 382 -17 q 205 28 278 -17 q 94 149 132 72 q 57 318 57 225 q 95 476 57 400 q 204 599 133 551 q 367 646 275 646 q 557 583 490 646 q 633 413 624 519 q 608 350 633 367 q 536 333 583 333 l 199 333 q 252 128 199 204 q 418 53 306 53 q 519 78 478 53 q 599 165 561 104 q 613 172 606 172 q 629 167 622 172 q 643 142 643 158 q 640 129 643 133 q 531 22 597 60 q 382 -17 465 -17 m 425 386 q 500 444 496 386 q 465 553 500 508 q 367 597 431 597 q 250 541 296 597 q 199 386 204 485 l 425 386 m 229 769 q 169 794 194 769 q 143 853 143 819 q 168 913 143 889 q 231 936 193 936 q 290 913 267 936 q 314 853 314 889 q 290 794 314 819 q 229 769 265 769 m 469 769 q 409 794 435 769 q 383 853 383 819 q 408 913 383 889 q 471 936 433 936 q 531 913 507 936 q 554 853 554 889 q 530 794 554 819 q 469 769 506 769 z "},"è":{"ha":697,"x_min":57,"x_max":643,"o":"m 382 -17 q 205 28 278 -17 q 94 149 132 72 q 57 318 57 225 q 95 476 57 400 q 204 599 133 551 q 367 646 275 646 q 557 583 490 646 q 633 413 624 519 q 608 350 633 367 q 536 333 583 333 l 199 333 q 252 128 199 204 q 418 53 306 53 q 519 78 478 53 q 599 165 561 104 q 613 172 606 172 q 629 167 622 172 q 643 142 643 158 q 640 129 643 133 q 531 22 597 60 q 382 -17 465 -17 m 425 386 q 500 444 496 386 q 465 553 500 508 q 367 597 431 597 q 250 541 296 597 q 199 386 204 485 l 425 386 m 388 717 q 371 713 381 713 q 336 729 351 713 l 194 894 q 182 926 182 910 q 192 956 182 942 q 217 978 201 969 q 243 985 233 985 q 293 953 276 985 l 397 763 q 403 744 403 753 q 399 727 403 735 q 388 717 394 719 z "},"f":{"ha":476,"x_min":44,"x_max":594,"o":"m 81 -4 q 64 4 69 -4 q 58 24 58 13 q 66 45 60 42 q 90 49 72 49 q 142 61 126 49 q 159 90 157 74 q 161 143 161 106 l 161 575 l 68 575 q 51 583 57 575 q 44 603 44 592 q 53 626 46 622 q 78 629 60 629 l 161 629 l 161 688 q 228 920 161 831 q 418 1013 296 1010 q 540 974 486 1013 q 594 876 594 936 q 570 803 594 835 q 503 772 546 772 q 460 786 478 772 q 442 808 442 800 q 455 822 442 810 q 478 852 468 835 q 489 893 489 869 q 466 945 489 924 q 408 967 443 967 q 326 924 353 967 q 294 830 300 881 q 289 713 289 779 l 289 629 l 425 629 l 433 629 q 452 624 446 629 q 460 603 458 619 q 453 583 460 592 q 436 575 446 575 l 289 575 l 289 143 q 296 81 289 100 q 322 56 303 63 q 388 49 342 49 l 396 49 q 413 44 408 49 q 419 24 418 40 q 414 4 419 13 q 399 -4 408 -4 q 225 0 318 0 q 81 -4 160 0 z "},"g":{"ha":726,"x_min":38,"x_max":715,"o":"m 331 -303 q 38 -136 38 -303 q 67 -54 38 -89 q 144 -19 97 -19 q 181 -27 164 -19 q 208 -45 197 -35 q 218 -61 218 -56 q 206 -74 218 -62 q 185 -103 194 -86 q 176 -144 176 -121 q 360 -251 176 -251 q 522 -215 465 -251 q 579 -106 579 -178 q 546 -39 579 -61 q 463 -10 513 -17 q 332 -3 413 -4 q 192 7 233 0 q 108 42 138 17 q 78 119 78 67 q 116 210 78 174 q 225 247 154 247 q 110 327 143 279 q 76 435 76 375 q 110 543 76 494 q 206 619 144 592 q 344 647 267 647 q 499 619 444 647 l 689 656 l 692 656 q 715 622 715 656 q 709 586 715 603 q 694 569 703 569 l 557 575 l 557 572 q 597 510 581 549 q 614 436 614 471 q 577 323 614 372 q 481 247 540 274 q 356 221 421 221 l 294 221 q 190 207 222 221 q 157 161 157 193 q 175 122 157 135 q 238 107 193 110 l 428 100 q 638 53 574 94 q 703 -71 703 13 q 601 -241 703 -179 q 331 -303 500 -303 m 344 261 q 449 308 410 261 q 489 436 489 354 q 448 558 489 513 q 343 604 407 604 q 240 560 281 604 q 200 439 200 515 q 240 308 200 356 q 344 261 281 261 z "},"h":{"ha":818,"x_min":32,"x_max":797,"o":"m 54 -4 q 38 4 43 -4 q 32 24 32 13 q 40 45 33 42 q 64 49 46 49 q 115 61 100 49 q 133 90 131 74 q 136 143 136 107 l 136 821 q 134 874 136 857 q 117 903 132 890 q 65 915 101 915 q 40 920 49 915 q 32 943 32 925 q 38 959 32 951 q 54 968 43 967 q 159 990 124 978 q 200 1003 194 1001 q 236 1013 226 1013 q 263 986 263 1013 l 263 539 l 265 539 q 331 597 306 576 q 395 631 356 617 q 489 646 435 646 q 639 589 583 646 q 694 439 694 532 l 694 143 q 697 90 694 107 q 714 61 699 74 q 765 49 729 49 l 774 49 q 791 44 786 49 q 797 24 796 40 q 792 4 797 13 q 776 -4 786 -4 q 631 0 694 0 q 486 -4 565 0 q 469 4 475 -4 q 464 24 464 13 q 472 45 465 42 q 496 49 478 49 q 547 61 532 49 q 565 90 563 74 q 567 143 567 106 l 567 438 q 527 535 567 501 q 435 569 488 569 q 324 538 371 569 q 263 474 278 506 l 263 143 q 265 90 263 107 q 282 61 267 74 q 333 49 297 49 l 342 49 q 359 44 354 49 q 365 24 364 40 q 360 4 365 13 q 344 -4 354 -4 q 199 0 264 0 q 54 -4 136 0 z "},"i":{"ha":411,"x_min":46,"x_max":381,"o":"m 68 -4 q 52 4 58 -4 q 46 24 46 13 q 54 45 47 42 q 79 49 61 49 q 131 61 115 49 q 148 90 146 74 q 150 143 150 107 l 150 461 q 148 514 150 497 q 131 543 146 531 q 79 556 115 556 q 54 560 63 556 q 46 583 46 565 q 51 599 46 592 q 68 608 57 607 q 218 644 156 621 q 250 653 238 651 l 254 653 q 276 626 276 653 l 276 143 q 279 90 276 107 q 297 61 282 74 q 349 49 313 49 l 357 49 q 374 44 368 49 q 381 24 379 40 q 375 4 381 13 q 358 -4 369 -4 q 213 0 278 0 q 68 -4 150 0 m 206 807 q 140 831 167 807 q 114 892 114 856 q 146 949 114 924 q 218 974 178 974 q 275 949 253 974 q 297 888 297 925 q 271 831 297 854 q 206 807 244 807 z "},"ı":{"ha":411,"x_min":46,"x_max":381,"o":"m 68 -4 q 52 4 58 -4 q 46 24 46 13 q 54 45 47 42 q 79 49 61 49 q 131 61 115 49 q 148 90 146 74 q 150 143 150 107 l 150 461 q 148 514 150 497 q 131 543 146 531 q 79 556 115 556 q 54 560 63 556 q 46 583 46 565 q 51 599 46 592 q 68 608 57 607 q 218 644 156 621 q 250 653 238 651 l 254 653 q 276 626 276 653 l 276 143 q 279 90 276 107 q 297 61 282 74 q 349 49 313 49 l 357 49 q 374 44 368 49 q 381 24 379 40 q 375 4 381 13 q 358 -4 369 -4 q 213 0 278 0 q 68 -4 150 0 z "},"í":{"ha":411,"x_min":46,"x_max":381,"o":"m 68 -4 q 52 4 58 -4 q 46 24 46 13 q 54 45 47 42 q 79 49 61 49 q 131 61 115 49 q 148 90 146 74 q 150 143 150 107 l 150 461 q 148 514 150 497 q 131 543 146 531 q 79 556 115 556 q 54 560 63 556 q 46 583 46 565 q 51 599 46 592 q 68 608 57 607 q 218 644 156 621 q 250 653 238 651 l 254 653 q 276 626 276 653 l 276 143 q 279 90 276 107 q 297 61 282 74 q 349 49 313 49 l 357 49 q 374 44 368 49 q 381 24 379 40 q 375 4 381 13 q 358 -4 369 -4 q 213 0 278 0 q 68 -4 150 0 m 167 735 q 156 745 160 738 q 151 763 151 753 q 157 781 151 771 l 261 971 q 311 1003 276 1003 q 338 996 321 1003 q 363 974 353 988 q 372 944 372 960 q 360 913 372 928 l 218 747 q 185 731 203 731 q 167 735 175 731 z "},"î":{"ha":411,"x_min":17,"x_max":381,"o":"m 68 -4 q 52 4 58 -4 q 46 24 46 13 q 54 45 47 42 q 79 49 61 49 q 131 61 115 49 q 148 90 146 74 q 150 143 150 107 l 150 461 q 148 514 150 497 q 131 543 146 531 q 79 556 115 556 q 54 560 63 556 q 46 583 46 565 q 51 599 46 592 q 68 608 57 607 q 218 644 156 621 q 250 653 238 651 l 254 653 q 276 626 276 653 l 276 143 q 279 90 276 107 q 297 61 282 74 q 349 49 313 49 l 357 49 q 374 44 368 49 q 381 24 379 40 q 375 4 381 13 q 358 -4 369 -4 q 213 0 278 0 q 68 -4 150 0 m 31 721 q 17 744 17 729 q 22 763 17 753 l 164 968 q 197 986 176 986 q 233 968 221 986 l 375 763 q 381 744 381 753 q 367 721 381 729 q 351 717 360 717 q 319 731 339 717 q 199 867 282 760 q 78 731 115 760 q 46 717 58 717 q 31 721 36 717 z "},"ï":{"ha":411,"x_min":0,"x_max":411,"o":"m 68 -4 q 52 4 58 -4 q 46 24 46 13 q 54 45 47 42 q 79 49 61 49 q 131 61 115 49 q 148 90 146 74 q 150 143 150 107 l 150 461 q 148 514 150 497 q 131 543 146 531 q 79 556 115 556 q 54 560 63 556 q 46 583 46 565 q 51 599 46 592 q 68 608 57 607 q 218 644 156 621 q 250 653 238 651 l 254 653 q 276 626 276 653 l 276 143 q 279 90 276 107 q 297 61 282 74 q 349 49 313 49 l 357 49 q 374 44 368 49 q 381 24 379 40 q 375 4 381 13 q 358 -4 369 -4 q 213 0 278 0 q 68 -4 150 0 m 86 760 q 26 785 51 760 q 0 843 0 810 q 25 903 0 879 q 88 926 50 926 q 147 903 124 926 q 171 843 171 879 q 147 785 171 810 q 86 760 122 760 m 326 760 q 266 785 292 760 q 240 843 240 810 q 265 903 240 879 q 328 926 290 926 q 388 903 364 926 q 411 843 411 879 q 387 785 411 810 q 326 760 363 760 z "},"ì":{"ha":411,"x_min":39,"x_max":381,"o":"m 68 -4 q 52 4 58 -4 q 46 24 46 13 q 54 45 47 42 q 79 49 61 49 q 131 61 115 49 q 148 90 146 74 q 150 143 150 107 l 150 461 q 148 514 150 497 q 131 543 146 531 q 79 556 115 556 q 54 560 63 556 q 46 583 46 565 q 51 599 46 592 q 68 608 57 607 q 218 644 156 621 q 250 653 238 651 l 254 653 q 276 626 276 653 l 276 143 q 279 90 276 107 q 297 61 282 74 q 349 49 313 49 l 357 49 q 374 44 368 49 q 381 24 379 40 q 375 4 381 13 q 358 -4 369 -4 q 213 0 278 0 q 68 -4 150 0 m 244 707 q 228 703 238 703 q 193 719 208 703 l 51 885 q 39 917 39 900 q 49 946 39 932 q 74 968 58 960 q 100 975 90 975 q 150 943 133 975 l 254 753 q 260 735 260 743 q 256 717 260 725 q 244 707 251 710 z "},"j":{"ha":417,"x_min":24,"x_max":328,"o":"m 46 -285 q 25 -265 33 -285 q 24 -251 24 -261 q 36 -232 24 -237 q 133 -152 101 -204 q 174 -24 164 -100 q 183 182 183 53 l 183 461 q 181 514 183 497 q 164 543 179 531 q 113 556 149 556 q 88 560 96 556 q 79 583 79 565 q 85 599 79 592 q 101 608 90 607 q 251 644 189 621 q 283 653 271 651 l 288 653 q 310 626 310 653 l 310 138 q 251 -142 310 -33 q 53 -285 192 -251 l 46 -285 m 236 807 q 171 831 197 807 q 144 892 144 856 q 176 949 144 924 q 249 974 208 974 q 306 949 283 974 q 328 888 328 925 q 301 831 328 854 q 236 807 275 807 z "},"ȷ":{"ha":417,"x_min":24,"x_max":310,"o":"m 46 -285 q 25 -265 33 -285 q 24 -251 24 -261 q 36 -232 24 -237 q 133 -152 101 -204 q 174 -24 164 -100 q 183 182 183 53 l 183 461 q 181 514 183 497 q 164 543 179 531 q 113 556 149 556 q 88 560 96 556 q 79 583 79 565 q 85 599 79 592 q 101 608 90 607 q 251 644 189 621 q 283 653 271 651 l 288 653 q 310 626 310 653 l 310 138 q 251 -142 310 -33 q 53 -285 192 -251 l 46 -285 z "},"k":{"ha":788,"x_min":32,"x_max":789,"o":"m 54 -4 q 38 4 43 -4 q 32 24 32 13 q 40 45 33 42 q 64 49 46 49 q 115 61 100 49 q 133 90 131 74 q 136 143 136 107 l 136 819 q 134 872 136 856 q 117 901 132 889 q 65 914 101 914 q 40 919 49 914 q 32 942 32 924 q 38 958 32 950 q 54 967 43 965 q 204 1003 142 979 q 236 1011 224 1010 l 240 1011 q 263 985 263 1011 l 263 350 q 363 401 324 363 l 479 521 q 496 540 482 525 q 510 564 510 554 q 446 581 510 585 q 429 606 431 583 q 435 625 429 617 q 451 633 442 633 q 604 629 514 629 q 665 632 624 629 l 697 633 q 713 625 707 633 q 719 606 719 617 q 713 585 718 589 q 696 581 707 581 q 611 563 644 581 q 533 499 578 544 l 417 379 q 569 201 453 331 q 624 140 622 143 q 698 69 674 88 q 758 49 722 51 q 770 48 761 49 q 784 42 779 47 q 789 24 789 36 q 767 -4 789 -4 q 725 -2 754 -4 q 582 0 696 0 q 389 219 540 43 q 344 272 342 275 q 263 311 304 315 l 263 143 q 265 90 263 107 q 282 61 267 74 q 333 49 297 49 l 342 49 q 360 44 354 49 q 367 24 365 40 q 360 4 367 13 q 344 -4 354 -4 q 199 0 264 0 q 54 -4 136 0 z "},"l":{"ha":397,"x_min":32,"x_max":367,"o":"m 54 -4 q 38 4 44 -4 q 32 24 32 13 q 40 45 33 42 q 64 49 46 49 q 115 61 100 49 q 133 90 131 74 q 136 143 136 107 l 136 821 q 134 874 136 857 q 117 903 132 890 q 65 915 101 915 q 40 920 49 915 q 32 943 32 925 q 38 959 32 951 q 54 968 43 967 q 204 1004 142 981 q 236 1013 224 1011 l 240 1013 q 263 986 263 1013 l 263 143 q 265 90 263 107 q 283 61 268 74 q 335 49 299 49 l 343 49 q 360 44 354 49 q 367 24 365 40 q 361 4 367 13 q 344 -4 356 -4 q 199 0 264 0 q 54 -4 136 0 z "},"m":{"ha":1244,"x_min":47,"x_max":1225,"o":"m 69 -4 q 53 4 60 -4 q 47 24 47 13 q 55 45 49 42 q 79 49 61 49 q 131 61 115 49 q 149 90 146 74 q 151 143 151 107 l 151 461 q 149 514 151 497 q 132 543 147 531 q 81 556 117 556 q 56 560 64 556 q 47 583 47 565 q 53 599 47 592 q 69 608 58 607 q 218 644 160 622 q 250 653 242 651 l 254 653 q 276 626 276 653 l 276 539 l 281 539 q 322 580 289 547 q 398 629 356 613 q 494 646 440 646 q 610 617 561 646 q 682 539 658 589 l 685 539 q 788 618 739 590 q 915 646 838 646 q 1065 589 1010 646 q 1121 439 1121 532 l 1121 143 q 1124 90 1121 107 q 1142 61 1126 74 q 1193 49 1157 49 l 1201 49 q 1218 44 1213 49 q 1225 24 1224 40 q 1219 4 1225 13 q 1203 -4 1213 -4 q 1057 0 1122 0 q 913 -4 994 0 q 896 4 901 -4 q 890 24 890 13 q 898 45 892 42 q 922 49 904 49 q 974 61 958 49 q 992 90 989 74 q 994 143 994 107 l 994 438 q 954 535 994 501 q 861 569 914 569 q 757 539 797 569 q 700 474 717 508 l 700 143 q 699 106 700 135 q 715 63 699 76 q 767 49 731 49 l 775 49 q 792 44 788 49 q 799 24 797 40 q 793 4 799 13 q 776 -4 788 -4 q 635 0 694 0 q 496 -4 578 0 q 479 4 485 -4 q 474 24 474 13 q 481 45 475 42 q 506 49 488 49 q 563 67 551 49 q 573 110 574 86 q 572 143 572 135 l 572 438 q 533 535 572 501 q 440 569 493 569 q 336 539 376 569 q 278 474 296 508 l 278 143 q 281 90 278 107 q 299 61 283 74 q 350 49 314 49 l 358 49 q 375 44 369 49 q 382 24 381 40 q 376 4 382 13 q 360 -4 371 -4 q 214 0 279 0 q 69 -4 151 0 z "},"n":{"ha":832,"x_min":46,"x_max":813,"o":"m 68 -4 q 52 4 58 -4 q 46 24 46 13 q 54 45 47 42 q 79 49 61 49 q 131 61 115 49 q 148 90 146 74 q 150 143 150 107 l 150 461 q 148 514 150 497 q 131 543 146 531 q 79 556 115 556 q 54 560 63 556 q 46 583 46 565 q 51 599 46 592 q 68 608 57 607 q 217 644 158 622 q 249 653 240 651 l 253 653 q 275 626 275 653 l 275 539 l 279 539 q 344 597 319 576 q 409 631 369 617 q 503 646 449 646 q 653 589 597 646 q 708 439 708 532 l 708 143 q 711 90 708 107 q 729 61 714 74 q 781 49 744 49 l 789 49 q 806 44 800 49 q 813 24 811 40 q 806 4 813 13 q 790 -4 800 -4 q 644 0 710 0 q 500 -4 582 0 q 484 4 490 -4 q 478 24 478 13 q 485 45 479 42 q 510 49 492 49 q 561 61 546 49 q 579 90 576 74 q 582 143 582 107 l 582 438 q 542 535 582 501 q 449 569 501 569 q 339 538 385 569 q 276 474 293 507 l 276 143 q 279 90 276 107 q 297 61 282 74 q 349 49 313 49 l 357 49 q 374 44 368 49 q 381 24 379 40 q 375 4 381 13 q 358 -4 369 -4 q 213 0 278 0 q 68 -4 150 0 z "},"ñ":{"ha":832,"x_min":46,"x_max":813,"o":"m 68 -4 q 52 4 58 -4 q 46 24 46 13 q 54 45 47 42 q 79 49 61 49 q 131 61 115 49 q 148 90 146 74 q 150 143 150 107 l 150 461 q 148 514 150 497 q 131 543 146 531 q 79 556 115 556 q 54 560 63 556 q 46 583 46 565 q 51 599 46 592 q 68 608 57 607 q 217 644 158 622 q 249 653 240 651 l 253 653 q 275 626 275 653 l 275 539 l 279 539 q 344 597 319 576 q 409 631 369 617 q 503 646 449 646 q 653 589 597 646 q 708 439 708 532 l 708 143 q 711 90 708 107 q 729 61 714 74 q 781 49 744 49 l 789 49 q 806 44 800 49 q 813 24 811 40 q 806 4 813 13 q 790 -4 800 -4 q 644 0 710 0 q 500 -4 582 0 q 484 4 490 -4 q 478 24 478 13 q 485 45 479 42 q 510 49 492 49 q 561 61 546 49 q 579 90 576 74 q 582 143 582 107 l 582 438 q 542 535 582 501 q 449 569 501 569 q 339 538 385 569 q 276 474 293 507 l 276 143 q 279 90 276 107 q 297 61 282 74 q 349 49 313 49 l 357 49 q 374 44 368 49 q 381 24 379 40 q 375 4 381 13 q 358 -4 369 -4 q 213 0 278 0 q 68 -4 150 0 m 479 769 q 429 782 450 771 q 379 817 408 793 q 319 850 343 850 q 277 835 301 850 q 228 792 253 821 q 204 781 219 781 q 188 788 194 781 q 181 806 181 794 q 182 817 181 813 q 242 906 201 869 q 335 943 282 943 q 385 931 364 942 q 435 896 406 919 q 494 863 471 863 q 538 878 513 863 q 586 921 563 893 q 608 932 597 932 q 626 924 618 932 q 633 906 633 917 q 629 890 633 899 q 569 804 608 839 q 479 769 531 769 z "},"o":{"ha":761,"x_min":57,"x_max":704,"o":"m 381 -17 q 213 28 286 -17 q 98 148 139 74 q 57 306 57 222 q 106 487 57 410 q 229 605 154 564 q 381 646 304 646 q 549 601 475 646 q 663 481 622 556 q 704 324 704 407 q 655 142 704 219 q 531 24 606 65 q 381 -17 456 -17 m 381 35 q 519 115 475 35 q 563 324 563 196 q 517 519 563 443 q 381 594 472 594 q 242 515 285 594 q 199 308 199 436 q 243 112 199 189 q 381 35 288 35 z "},"ó":{"ha":761,"x_min":57,"x_max":704,"o":"m 381 -17 q 213 28 286 -17 q 98 148 139 74 q 57 306 57 222 q 106 487 57 410 q 229 605 154 564 q 381 646 304 646 q 549 601 475 646 q 663 481 622 556 q 704 324 704 407 q 655 142 704 219 q 531 24 606 65 q 381 -17 456 -17 m 381 35 q 519 115 475 35 q 563 324 563 196 q 517 519 563 443 q 381 594 472 594 q 242 515 285 594 q 199 308 199 436 q 243 112 199 189 q 381 35 288 35 m 342 744 q 331 755 335 747 q 326 772 326 763 q 332 790 326 781 l 436 981 q 486 1013 451 1013 q 513 1006 496 1013 q 538 983 528 997 q 547 954 547 969 q 535 922 547 938 l 393 757 q 360 740 378 740 q 342 744 350 740 z "},"ô":{"ha":761,"x_min":57,"x_max":704,"o":"m 381 -17 q 213 28 286 -17 q 98 148 139 74 q 57 306 57 222 q 106 487 57 410 q 229 605 154 564 q 381 646 304 646 q 549 601 475 646 q 663 481 622 556 q 704 324 704 407 q 655 142 704 219 q 531 24 606 65 q 381 -17 456 -17 m 381 35 q 519 115 475 35 q 563 324 563 196 q 517 519 563 443 q 381 594 472 594 q 242 515 285 594 q 199 308 199 436 q 243 112 199 189 q 381 35 288 35 m 206 731 q 192 754 192 739 q 197 772 192 763 l 339 978 q 372 996 351 996 q 408 978 396 996 l 550 772 q 556 754 556 763 q 542 731 556 739 q 526 726 535 726 q 494 740 514 726 q 374 876 457 769 q 253 740 290 769 q 221 726 233 726 q 206 731 211 726 z "},"ö":{"ha":761,"x_min":57,"x_max":704,"o":"m 381 -17 q 213 28 286 -17 q 98 148 139 74 q 57 306 57 222 q 106 487 57 410 q 229 605 154 564 q 381 646 304 646 q 549 601 475 646 q 663 481 622 556 q 704 324 704 407 q 655 142 704 219 q 531 24 606 65 q 381 -17 456 -17 m 381 35 q 519 115 475 35 q 563 324 563 196 q 517 519 563 443 q 381 594 472 594 q 242 515 285 594 q 199 308 199 436 q 243 112 199 189 q 381 35 288 35 m 261 769 q 201 794 226 769 q 175 853 175 819 q 200 913 175 889 q 263 936 225 936 q 322 913 299 936 q 346 853 346 889 q 322 794 346 819 q 261 769 297 769 m 501 769 q 441 794 467 769 q 415 853 415 819 q 440 913 415 889 q 503 936 465 936 q 563 913 539 936 q 586 853 586 889 q 562 794 586 819 q 501 769 538 769 z "},"ò":{"ha":761,"x_min":57,"x_max":704,"o":"m 381 -17 q 213 28 286 -17 q 98 148 139 74 q 57 306 57 222 q 106 487 57 410 q 229 605 154 564 q 381 646 304 646 q 549 601 475 646 q 663 481 622 556 q 704 324 704 407 q 655 142 704 219 q 531 24 606 65 q 381 -17 456 -17 m 381 35 q 519 115 475 35 q 563 324 563 196 q 517 519 563 443 q 381 594 472 594 q 242 515 285 594 q 199 308 199 436 q 243 112 199 189 q 381 35 288 35 m 419 717 q 403 713 413 713 q 368 729 383 713 l 226 894 q 214 926 214 910 q 224 956 214 942 q 249 978 233 969 q 275 985 265 985 q 325 953 308 985 l 429 763 q 435 744 435 753 q 431 727 435 735 q 419 717 426 719 z "},"ø":{"ha":760,"x_min":57,"x_max":704,"o":"m 381 -17 q 183 47 267 -17 l 135 -7 q 115 -15 126 -15 q 94 -8 104 -15 q 86 10 86 -3 q 92 26 86 21 l 143 85 q 79 187 101 129 q 57 306 57 244 q 106 487 57 410 q 229 605 154 564 q 381 646 304 646 q 581 579 496 646 l 646 653 q 665 661 654 661 q 686 654 676 661 q 694 636 694 649 q 689 619 694 625 l 619 542 q 682 440 660 497 q 704 324 704 383 q 655 142 704 219 q 531 24 606 65 q 381 -17 456 -17 m 521 513 q 381 594 474 594 q 242 515 285 594 q 199 308 199 436 q 217 168 199 228 l 521 513 m 381 35 q 519 115 475 35 q 563 324 563 196 q 544 456 563 400 l 242 114 q 381 35 289 35 z "},"õ":{"ha":761,"x_min":57,"x_max":704,"o":"m 381 -17 q 213 28 286 -17 q 98 148 139 74 q 57 306 57 222 q 106 487 57 410 q 229 605 154 564 q 381 646 304 646 q 549 601 475 646 q 663 481 622 556 q 704 324 704 407 q 655 142 704 219 q 531 24 606 65 q 381 -17 456 -17 m 381 35 q 519 115 475 35 q 563 324 563 196 q 517 519 563 443 q 381 594 472 594 q 242 515 285 594 q 199 308 199 436 q 243 112 199 189 q 381 35 288 35 m 443 779 q 393 792 414 781 q 343 826 372 803 q 283 860 307 860 q 241 845 265 860 q 192 801 217 831 q 168 790 183 790 q 151 797 158 790 q 144 815 144 804 q 146 826 144 822 q 206 916 165 879 q 299 953 246 953 q 349 940 328 951 q 399 906 369 929 q 458 872 435 872 q 501 888 476 872 q 550 931 526 903 q 572 942 561 942 q 590 934 582 942 q 597 915 597 926 q 593 900 597 908 q 533 814 572 849 q 443 779 494 779 z "},"œ":{"ha":1203,"x_min":57,"x_max":1149,"o":"m 381 -17 q 213 28 286 -17 q 98 148 139 74 q 57 306 57 222 q 106 487 57 410 q 229 605 154 564 q 381 646 304 646 q 524 614 460 646 q 633 526 589 582 q 738 614 676 582 q 872 646 799 646 q 1063 583 996 646 q 1139 413 1129 519 q 1114 350 1139 367 q 1042 333 1089 333 l 704 333 q 758 128 704 204 q 924 53 811 53 q 1025 78 983 53 q 1104 165 1067 104 q 1118 172 1111 172 q 1135 167 1128 172 q 1149 142 1149 158 q 1146 129 1149 133 q 1037 22 1103 60 q 888 -17 971 -17 q 734 16 800 -17 q 626 107 668 49 q 519 17 582 50 q 381 -17 456 -17 m 931 386 q 1006 444 1001 386 q 971 553 1006 508 q 872 597 936 597 q 752 540 800 597 q 699 386 704 483 l 931 386 m 381 35 q 519 115 475 35 q 563 324 563 196 q 517 519 563 443 q 381 594 472 594 q 242 515 285 594 q 199 308 199 436 q 243 112 199 189 q 381 35 288 35 z "},"p":{"ha":811,"x_min":32,"x_max":753,"o":"m 54 -289 q 38 -281 44 -289 q 32 -261 32 -272 q 40 -240 33 -243 q 64 -236 46 -236 q 114 -224 99 -236 q 133 -193 129 -211 q 136 -142 136 -175 l 136 461 q 134 514 136 497 q 117 543 132 531 q 65 556 101 556 q 40 560 49 556 q 32 583 32 565 q 38 599 32 592 q 54 608 43 607 q 203 644 144 622 q 235 653 226 651 l 239 653 q 261 626 261 653 l 261 560 l 265 560 q 360 622 306 597 q 463 646 414 646 q 612 604 546 646 q 715 487 678 563 q 753 315 753 411 q 708 142 753 218 q 590 25 664 67 q 435 -17 517 -17 q 339 -5 378 -17 q 268 26 300 7 l 263 26 l 263 -142 q 266 -193 263 -175 q 285 -224 269 -211 q 335 -236 300 -236 l 343 -236 q 360 -240 354 -236 q 367 -261 365 -244 q 361 -281 367 -272 q 344 -289 356 -289 q 199 -285 264 -285 q 54 -289 136 -285 m 424 31 q 566 117 521 31 q 611 311 611 203 q 561 498 611 419 q 413 576 511 576 q 330 558 364 576 q 263 504 296 539 l 263 132 q 322 60 279 90 q 424 31 364 31 z "},"þ":{"ha":779,"x_min":4,"x_max":722,"o":"m 26 -289 q 10 -281 17 -289 q 4 -261 4 -272 q 12 -240 6 -243 q 36 -236 18 -236 q 86 -224 71 -236 q 105 -193 101 -211 q 108 -142 108 -175 l 108 819 q 106 872 108 856 q 89 901 104 889 q 38 914 74 914 q 13 919 21 914 q 4 942 4 924 q 10 958 4 950 q 26 967 15 965 q 176 1003 114 979 q 208 1011 196 1010 l 213 1011 q 235 985 235 1011 l 235 565 l 239 565 q 330 626 279 606 q 431 646 381 646 q 579 604 513 646 q 684 488 646 563 q 722 319 722 414 q 678 149 722 226 q 561 28 635 72 q 404 -17 488 -17 q 240 26 314 -17 l 235 26 l 235 -142 q 238 -193 235 -175 q 257 -224 242 -211 q 307 -236 272 -236 l 315 -236 q 332 -240 326 -236 q 339 -261 338 -244 q 333 -281 339 -272 q 317 -289 328 -289 q 171 -285 235 -285 q 26 -289 108 -285 m 392 31 q 528 108 476 31 q 581 314 581 185 q 531 499 581 422 q 382 576 481 576 q 235 513 294 576 l 235 146 q 259 97 239 124 q 313 50 279 69 q 392 31 347 31 z "},"q":{"ha":776,"x_min":57,"x_max":772,"o":"m 460 -289 q 444 -281 450 -289 q 439 -261 439 -272 q 447 -240 440 -243 q 471 -236 453 -236 q 519 -224 504 -236 q 538 -193 535 -211 q 542 -142 542 -175 l 542 63 l 538 63 q 460 7 508 31 q 353 -17 411 -17 q 204 25 272 -17 q 97 144 136 67 q 57 322 57 222 q 101 485 57 411 q 220 603 146 560 q 378 646 294 646 q 480 631 439 646 q 545 602 521 617 q 578 583 569 588 l 585 583 q 599 613 589 592 q 619 648 608 635 q 643 661 631 661 q 663 653 656 661 q 669 633 669 646 l 669 -142 q 672 -193 669 -175 q 690 -224 675 -211 q 740 -236 706 -236 l 749 -236 q 766 -240 761 -236 q 772 -261 771 -244 q 767 -281 772 -272 q 750 -289 761 -289 q 604 -285 668 -285 q 460 -289 542 -285 m 399 51 q 478 69 444 51 q 542 117 513 86 l 542 493 q 489 566 528 535 q 385 597 450 597 q 289 562 332 597 q 222 461 246 526 q 197 308 197 396 q 247 125 197 199 q 399 51 296 51 z "},"r":{"ha":590,"x_min":46,"x_max":568,"o":"m 68 -4 q 52 4 58 -4 q 46 24 46 13 q 54 45 47 42 q 79 49 61 49 q 131 61 115 49 q 148 90 146 74 q 150 143 150 107 l 150 461 q 148 514 150 497 q 131 543 146 531 q 79 556 115 556 q 54 560 63 556 q 46 583 46 565 q 51 599 46 592 q 68 608 57 607 q 217 644 158 622 q 249 653 240 651 l 253 653 q 275 626 275 653 l 275 540 l 279 540 q 378 617 328 589 q 468 646 428 646 q 541 612 514 646 q 568 533 568 578 q 544 464 568 494 q 479 433 521 433 q 445 442 460 433 q 429 456 431 450 q 443 473 431 458 q 456 507 456 488 q 442 547 456 532 q 407 563 429 563 q 347 540 383 563 q 276 482 311 517 l 276 143 q 279 90 276 107 q 297 61 282 74 q 349 49 313 49 l 357 49 q 374 44 368 49 q 381 24 379 40 q 375 4 381 13 q 358 -4 369 -4 q 213 0 278 0 q 68 -4 150 0 z "},"s":{"ha":615,"x_min":53,"x_max":558,"o":"m 303 -17 q 122 22 192 -17 q 53 132 53 61 q 77 197 53 172 q 140 222 101 222 q 180 210 163 222 q 197 190 197 197 q 181 172 197 189 q 165 125 165 156 q 203 59 165 83 q 314 35 242 35 q 416 63 379 35 q 453 143 453 92 q 432 200 453 178 q 380 235 411 222 q 293 264 349 247 q 182 303 225 283 q 108 361 139 322 q 78 463 78 400 q 114 563 78 521 q 208 625 150 604 q 329 646 265 646 q 472 611 411 646 q 532 514 532 576 q 509 450 532 476 q 449 424 486 424 q 409 436 426 424 q 392 456 392 449 q 403 467 392 457 q 423 490 414 476 q 432 521 432 503 q 394 579 429 558 q 313 600 360 600 q 220 576 260 600 q 181 508 181 551 q 197 447 181 469 q 247 410 214 424 q 353 372 281 396 q 468 328 426 349 q 534 274 510 308 q 558 185 558 240 q 525 81 558 128 q 433 9 492 35 q 303 -17 375 -17 z "},"ß":{"ha":839,"x_min":32,"x_max":781,"o":"m 514 -8 q 410 26 451 -8 q 369 110 369 60 q 393 174 371 147 q 453 201 415 201 q 488 190 474 201 q 503 171 503 178 q 485 153 503 169 q 465 107 467 136 q 479 62 465 78 q 513 46 493 46 q 584 88 556 46 q 625 185 613 129 q 638 282 638 240 q 593 480 638 404 q 461 557 549 556 l 421 557 q 400 565 407 557 q 393 583 393 572 q 400 601 393 593 q 421 610 407 608 l 461 610 q 547 664 513 611 q 582 783 582 717 q 547 904 582 856 q 438 954 511 953 q 303 903 343 954 q 263 758 263 851 l 263 143 q 263 103 263 135 q 278 59 264 71 q 324 49 292 47 l 331 49 q 347 44 342 49 q 354 24 353 40 q 349 4 354 13 q 332 -4 343 -4 q 199 0 253 0 q 54 -4 133 0 q 38 4 43 -4 q 32 24 32 13 q 40 45 33 42 q 64 49 46 49 q 115 61 100 49 q 133 90 131 74 q 135 143 135 106 l 135 733 q 211 938 135 865 q 426 1011 288 1011 q 576 983 510 1014 q 679 901 642 953 q 717 792 717 850 q 679 679 717 732 q 561 590 642 626 l 561 586 q 724 495 667 565 q 781 317 781 425 q 745 144 781 218 q 649 31 710 69 q 514 -8 588 -8 z "},"t":{"ha":526,"x_min":35,"x_max":468,"o":"m 300 -24 q 183 26 232 -24 q 135 169 135 76 l 135 578 l 54 575 q 40 583 46 575 q 35 600 35 590 q 40 622 35 613 q 54 632 44 631 q 130 663 103 642 q 169 710 157 685 q 200 789 182 736 q 231 807 207 807 q 250 802 240 807 q 260 788 260 797 l 250 629 l 413 639 l 415 639 q 433 613 433 639 q 428 584 433 597 q 417 571 424 571 l 261 575 l 261 153 q 280 76 261 107 q 342 46 299 46 q 418 61 385 46 q 440 68 436 68 q 456 60 450 68 q 467 40 461 53 q 468 33 468 38 q 460 21 468 28 q 384 -15 419 -6 q 300 -24 349 -24 z "},"u":{"ha":828,"x_min":24,"x_max":819,"o":"m 333 -17 q 183 40 239 -17 q 128 190 128 97 l 128 447 q 126 500 128 483 q 108 529 124 517 q 57 542 93 542 q 32 547 40 542 q 24 569 24 551 q 29 585 24 578 q 46 594 35 593 q 196 631 133 607 q 228 639 215 638 l 232 639 q 254 613 254 639 l 254 192 q 294 94 254 128 q 388 60 335 60 q 499 92 453 60 q 560 156 544 124 l 560 447 q 558 500 560 483 q 540 529 556 517 q 489 542 525 542 q 464 547 472 542 q 456 569 456 551 q 461 585 456 578 q 478 594 467 593 q 628 631 565 607 q 660 639 647 638 l 664 639 q 686 613 686 639 l 686 132 q 796 50 686 50 q 819 24 819 50 q 796 0 819 4 l 572 -15 q 561 -9 563 -15 q 560 13 560 -3 l 560 90 l 557 90 q 492 33 517 53 q 427 -2 467 13 q 333 -17 388 -17 z "},"ú":{"ha":828,"x_min":24,"x_max":819,"o":"m 333 -17 q 183 40 239 -17 q 128 190 128 97 l 128 447 q 126 500 128 483 q 108 529 124 517 q 57 542 93 542 q 32 547 40 542 q 24 569 24 551 q 29 585 24 578 q 46 594 35 593 q 196 631 133 607 q 228 639 215 638 l 232 639 q 254 613 254 639 l 254 192 q 294 94 254 128 q 388 60 335 60 q 499 92 453 60 q 560 156 544 124 l 560 447 q 558 500 560 483 q 540 529 556 517 q 489 542 525 542 q 464 547 472 542 q 456 569 456 551 q 461 585 456 578 q 478 594 467 593 q 628 631 565 607 q 660 639 647 638 l 664 639 q 686 613 686 639 l 686 132 q 796 50 686 50 q 819 24 819 50 q 796 0 819 4 l 572 -15 q 561 -9 563 -15 q 560 13 560 -3 l 560 90 l 557 90 q 492 33 517 53 q 427 -2 467 13 q 333 -17 388 -17 m 375 735 q 364 745 368 738 q 360 763 360 753 q 365 781 360 771 l 469 971 q 519 1003 485 1003 q 546 996 529 1003 q 571 974 561 988 q 581 944 581 960 q 568 913 581 928 l 426 747 q 393 731 411 731 q 375 735 383 731 z "},"û":{"ha":828,"x_min":24,"x_max":819,"o":"m 333 -17 q 183 40 239 -17 q 128 190 128 97 l 128 447 q 126 500 128 483 q 108 529 124 517 q 57 542 93 542 q 32 547 40 542 q 24 569 24 551 q 29 585 24 578 q 46 594 35 593 q 196 631 133 607 q 228 639 215 638 l 232 639 q 254 613 254 639 l 254 192 q 294 94 254 128 q 388 60 335 60 q 499 92 453 60 q 560 156 544 124 l 560 447 q 558 500 560 483 q 540 529 556 517 q 489 542 525 542 q 464 547 472 542 q 456 569 456 551 q 461 585 456 578 q 478 594 467 593 q 628 631 565 607 q 660 639 647 638 l 664 639 q 686 613 686 639 l 686 132 q 796 50 686 50 q 819 24 819 50 q 796 0 819 4 l 572 -15 q 561 -9 563 -15 q 560 13 560 -3 l 560 90 l 557 90 q 492 33 517 53 q 427 -2 467 13 q 333 -17 388 -17 m 239 721 q 225 744 225 729 q 231 763 225 753 l 372 968 q 406 986 385 986 q 442 968 429 986 l 583 763 q 589 744 589 753 q 575 721 589 729 q 560 717 568 717 q 528 731 547 717 q 407 867 490 760 q 286 731 324 760 q 254 717 267 717 q 239 721 244 717 z "},"ü":{"ha":828,"x_min":24,"x_max":819,"o":"m 333 -17 q 183 40 239 -17 q 128 190 128 97 l 128 447 q 126 500 128 483 q 108 529 124 517 q 57 542 93 542 q 32 547 40 542 q 24 569 24 551 q 29 585 24 578 q 46 594 35 593 q 196 631 133 607 q 228 639 215 638 l 232 639 q 254 613 254 639 l 254 192 q 294 94 254 128 q 388 60 335 60 q 499 92 453 60 q 560 156 544 124 l 560 447 q 558 500 560 483 q 540 529 556 517 q 489 542 525 542 q 464 547 472 542 q 456 569 456 551 q 461 585 456 578 q 478 594 467 593 q 628 631 565 607 q 660 639 647 638 l 664 639 q 686 613 686 639 l 686 132 q 796 50 686 50 q 819 24 819 50 q 796 0 819 4 l 572 -15 q 561 -9 563 -15 q 560 13 560 -3 l 560 90 l 557 90 q 492 33 517 53 q 427 -2 467 13 q 333 -17 388 -17 m 294 760 q 234 785 260 760 q 208 843 208 810 q 233 903 208 879 q 296 926 258 926 q 356 903 332 926 q 379 843 379 879 q 355 785 379 810 q 294 760 331 760 m 535 760 q 474 785 500 760 q 449 843 449 810 q 474 903 449 879 q 536 926 499 926 q 596 903 572 926 q 619 843 619 879 q 595 785 619 810 q 535 760 571 760 z "},"ù":{"ha":828,"x_min":24,"x_max":819,"o":"m 333 -17 q 183 40 239 -17 q 128 190 128 97 l 128 447 q 126 500 128 483 q 108 529 124 517 q 57 542 93 542 q 32 547 40 542 q 24 569 24 551 q 29 585 24 578 q 46 594 35 593 q 196 631 133 607 q 228 639 215 638 l 232 639 q 254 613 254 639 l 254 192 q 294 94 254 128 q 388 60 335 60 q 499 92 453 60 q 560 156 544 124 l 560 447 q 558 500 560 483 q 540 529 556 517 q 489 542 525 542 q 464 547 472 542 q 456 569 456 551 q 461 585 456 578 q 478 594 467 593 q 628 631 565 607 q 660 639 647 638 l 664 639 q 686 613 686 639 l 686 132 q 796 50 686 50 q 819 24 819 50 q 796 0 819 4 l 572 -15 q 561 -9 563 -15 q 560 13 560 -3 l 560 90 l 557 90 q 492 33 517 53 q 427 -2 467 13 q 333 -17 388 -17 m 453 707 q 436 703 446 703 q 401 719 417 703 l 260 885 q 247 917 247 900 q 257 946 247 932 q 282 968 267 960 q 308 975 299 975 q 358 943 342 975 l 463 753 q 468 735 468 743 q 464 717 468 725 q 453 707 460 710 z "},"v":{"ha":765,"x_min":10,"x_max":767,"o":"m 349 -14 q 247 235 313 64 q 209 335 242 249 q 147 479 176 421 q 103 553 124 533 q 42 579 82 574 q 26 582 38 581 q 13 589 15 583 q 10 608 10 594 q 19 629 10 625 q 41 634 28 633 q 58 635 54 635 q 192 610 143 639 q 272 511 240 582 q 326 378 274 508 q 418 157 390 215 l 422 157 l 560 521 q 567 554 567 544 q 553 575 567 569 q 507 581 539 581 l 499 581 q 483 585 488 581 q 476 606 478 589 q 481 624 476 615 q 496 633 486 633 q 631 629 575 629 q 717 632 653 629 l 746 633 q 761 624 756 633 q 767 606 767 615 q 760 585 765 589 q 743 581 754 581 q 664 564 692 581 q 617 499 636 547 q 497 203 585 418 q 407 -14 410 -12 l 349 -14 z "},"w":{"ha":1108,"x_min":11,"x_max":1108,"o":"m 149 479 q 104 553 125 533 q 43 579 83 574 q 28 582 39 581 q 14 589 17 583 q 11 608 11 594 q 20 629 11 625 q 42 634 29 633 q 60 635 56 635 q 193 610 144 639 q 274 511 242 582 l 401 151 l 406 151 q 540 629 449 285 l 607 629 l 797 151 l 801 151 q 847 316 825 224 q 874 422 869 408 l 899 521 q 903 549 903 538 q 890 574 903 568 q 846 581 878 581 l 838 581 q 822 585 826 581 q 815 606 817 589 q 820 624 815 615 q 835 633 825 633 q 971 629 914 629 q 1088 633 1006 629 q 1103 624 1097 633 q 1108 606 1108 615 q 1101 585 1107 589 q 1085 581 1096 581 q 999 563 1028 581 q 958 499 971 546 l 804 -14 l 722 -14 l 546 440 l 408 -14 l 326 -14 l 149 479 z "},"x":{"ha":751,"x_min":24,"x_max":746,"o":"m 44 -4 q 29 5 35 -4 q 24 24 24 14 q 31 44 25 40 q 47 49 36 49 q 97 57 78 49 q 131 79 117 65 q 175 131 144 93 q 315 300 210 169 l 157 524 q 119 560 139 547 q 69 579 99 574 q 54 582 65 581 q 40 589 43 583 q 38 608 38 594 q 47 629 38 625 q 69 634 56 633 q 86 635 82 635 q 292 557 228 642 l 318 518 q 397 400 354 457 l 490 521 q 514 565 514 553 q 501 576 514 574 q 456 581 489 579 l 447 581 q 431 585 436 581 q 425 606 426 589 q 430 624 425 615 q 444 633 435 633 q 561 629 524 629 q 681 633 600 629 q 696 624 690 633 q 701 606 701 615 q 694 586 700 590 q 681 581 689 582 q 671 581 674 581 q 610 565 631 579 q 550 499 590 550 q 506 443 536 483 q 433 353 451 375 q 603 131 547 206 q 656 71 629 93 q 714 49 682 49 l 722 49 q 739 44 733 49 q 746 24 744 40 q 740 4 746 13 q 724 -4 733 -4 q 590 0 642 0 q 443 -4 525 0 q 427 4 433 -4 q 421 24 421 13 q 428 45 422 42 q 453 49 435 49 q 482 68 482 49 q 463 108 482 82 l 354 253 l 235 108 q 211 67 211 78 q 225 53 211 57 q 269 49 239 49 l 278 49 q 294 44 289 49 q 300 24 299 40 q 295 5 300 14 q 281 -4 290 -4 q 164 0 201 0 q 44 -4 126 0 z "},"y":{"ha":767,"x_min":-19,"x_max":768,"o":"m 133 -303 q 27 -265 74 -303 q -19 -174 -19 -226 q 15 -94 -19 -111 q 69 -76 50 -76 q 108 -86 93 -76 q 124 -104 124 -96 q 113 -118 124 -107 q 101 -157 101 -129 q 119 -206 101 -185 q 168 -226 136 -226 q 339 -47 256 -226 q 344 -18 344 -28 q 338 17 344 -4 q 244 249 310 79 q 151 479 188 400 q 107 553 128 533 q 46 579 86 574 q 31 582 42 581 q 17 589 19 583 q 14 608 14 594 q 23 629 14 625 q 45 634 32 633 q 63 635 58 635 q 196 610 147 639 q 276 511 244 582 q 331 376 307 440 q 421 157 386 226 l 425 157 l 561 521 q 568 554 568 544 q 554 575 568 569 q 508 581 540 581 l 500 581 q 484 585 489 581 q 478 606 479 589 q 483 624 478 615 q 497 633 488 633 q 632 629 576 629 q 718 632 654 629 l 747 633 q 763 624 757 633 q 768 606 768 615 q 761 585 767 589 q 744 581 756 581 q 665 564 693 581 q 618 499 638 547 q 515 244 586 419 q 410 -14 444 69 q 293 -218 360 -133 q 133 -303 226 -303 z "},"ý":{"ha":767,"x_min":-19,"x_max":768,"o":"m 133 -303 q 27 -265 74 -303 q -19 -174 -19 -226 q 15 -94 -19 -111 q 69 -76 50 -76 q 108 -86 93 -76 q 124 -104 124 -96 q 113 -118 124 -107 q 101 -157 101 -129 q 119 -206 101 -185 q 168 -226 136 -226 q 339 -47 256 -226 q 344 -18 344 -28 q 338 17 344 -4 q 244 249 310 79 q 151 479 188 400 q 107 553 128 533 q 46 579 86 574 q 31 582 42 581 q 17 589 19 583 q 14 608 14 594 q 23 629 14 625 q 45 634 32 633 q 63 635 58 635 q 196 610 147 639 q 276 511 244 582 q 331 376 307 440 q 421 157 386 226 l 425 157 l 561 521 q 568 554 568 544 q 554 575 568 569 q 508 581 540 581 l 500 581 q 484 585 489 581 q 478 606 479 589 q 483 624 478 615 q 497 633 488 633 q 632 629 576 629 q 718 632 654 629 l 747 633 q 763 624 757 633 q 768 606 768 615 q 761 585 767 589 q 744 581 756 581 q 665 564 693 581 q 618 499 638 547 q 515 244 586 419 q 410 -14 444 69 q 293 -218 360 -133 q 133 -303 226 -303 m 343 735 q 332 745 336 738 q 328 763 328 753 q 333 781 328 771 l 438 971 q 488 1003 453 1003 q 514 996 497 1003 q 539 974 529 988 q 549 944 549 960 q 536 913 549 928 l 394 747 q 361 731 379 731 q 343 735 351 731 z "},"ÿ":{"ha":767,"x_min":-19,"x_max":768,"o":"m 133 -303 q 27 -265 74 -303 q -19 -174 -19 -226 q 15 -94 -19 -111 q 69 -76 50 -76 q 108 -86 93 -76 q 124 -104 124 -96 q 113 -118 124 -107 q 101 -157 101 -129 q 119 -206 101 -185 q 168 -226 136 -226 q 339 -47 256 -226 q 344 -18 344 -28 q 338 17 344 -4 q 244 249 310 79 q 151 479 188 400 q 107 553 128 533 q 46 579 86 574 q 31 582 42 581 q 17 589 19 583 q 14 608 14 594 q 23 629 14 625 q 45 634 32 633 q 63 635 58 635 q 196 610 147 639 q 276 511 244 582 q 331 376 307 440 q 421 157 386 226 l 425 157 l 561 521 q 568 554 568 544 q 554 575 568 569 q 508 581 540 581 l 500 581 q 484 585 489 581 q 478 606 479 589 q 483 624 478 615 q 497 633 488 633 q 632 629 576 629 q 718 632 654 629 l 747 633 q 763 624 757 633 q 768 606 768 615 q 761 585 767 589 q 744 581 756 581 q 665 564 693 581 q 618 499 638 547 q 515 244 586 419 q 410 -14 444 69 q 293 -218 360 -133 q 133 -303 226 -303 m 263 760 q 202 785 228 760 q 176 843 176 810 q 201 903 176 879 q 264 926 226 926 q 324 903 300 926 q 347 843 347 879 q 323 785 347 810 q 263 760 299 760 m 503 760 q 442 785 468 760 q 417 843 417 810 q 442 903 417 879 q 504 926 467 926 q 564 903 540 926 q 588 843 588 879 q 563 785 588 810 q 503 760 539 760 z "},"z":{"ha":697,"x_min":50,"x_max":640,"o":"m 72 -4 q 56 4 61 -4 q 50 24 50 13 q 56 44 51 40 q 74 49 61 49 q 121 53 106 49 q 148 70 136 57 q 176 115 160 83 l 368 514 q 385 564 385 550 q 373 581 385 578 q 332 585 361 585 l 274 585 q 201 573 226 585 q 160 527 175 561 q 136 424 144 493 q 123 407 135 413 q 94 401 111 401 q 74 408 83 401 q 64 426 64 415 l 88 597 q 98 623 90 617 q 119 629 106 629 l 500 629 q 579 632 524 629 l 613 633 q 628 625 622 633 q 635 606 635 617 q 628 585 633 589 q 611 581 622 581 q 563 576 579 581 q 535 559 547 572 q 507 514 524 546 l 317 115 q 300 65 300 81 q 312 48 300 51 q 353 44 324 44 l 431 44 q 503 56 478 44 q 544 102 529 68 q 568 206 560 136 q 581 222 569 217 q 610 228 593 228 q 631 221 621 228 q 640 203 640 214 l 617 32 q 606 6 614 13 q 585 0 599 0 l 183 0 q 103 -3 161 0 l 72 -4 z "},"ª":{"ha":550,"x_min":58,"x_max":500,"o":"m 182 410 q 94 444 131 410 q 58 529 58 479 q 137 640 58 611 q 319 676 215 669 l 342 678 l 342 751 q 246 843 342 843 q 197 826 218 843 q 175 781 175 810 q 184 752 175 765 q 206 731 193 739 q 192 713 206 725 q 161 701 179 701 q 110 724 129 701 q 92 778 92 747 q 139 854 92 829 q 251 879 186 879 q 383 849 332 879 q 433 735 433 818 l 433 510 q 446 473 435 490 q 481 456 457 456 q 496 452 492 456 q 500 436 500 449 q 481 415 500 421 q 443 410 463 410 q 381 428 408 410 q 344 479 353 447 q 275 428 322 446 q 182 410 228 410 m 222 468 q 309 503 274 468 q 344 590 344 538 l 344 644 q 203 610 244 631 q 163 542 163 589 q 178 489 163 510 q 222 468 194 468 z "},"º":{"ha":565,"x_min":53,"x_max":514,"o":"m 283 410 q 164 442 217 410 q 82 526 111 474 q 53 638 53 578 q 88 766 53 711 q 175 850 122 821 q 283 879 228 879 q 403 847 350 879 q 485 763 456 815 q 514 651 514 711 q 478 522 514 578 q 390 438 443 467 q 283 410 336 410 m 283 454 q 376 509 347 454 q 404 651 404 564 q 375 785 404 733 q 283 836 346 836 q 190 782 218 836 q 161 640 161 728 q 190 506 161 558 q 283 454 219 454 z "},"А":{"ha":907,"x_min":-17,"x_max":915,"o":"m 8 -4 q -10 5 -4 -4 q -17 26 -17 14 q -8 51 -15 47 q 8 56 -1 56 q 21 56 18 56 q 82 77 63 56 q 113 126 101 99 q 129 163 125 153 l 372 738 q 381 771 381 758 q 361 807 381 796 q 307 825 342 818 q 278 833 283 829 q 272 857 272 838 q 281 879 272 874 q 310 885 290 885 q 420 874 379 885 q 492 833 461 864 q 549 738 522 801 l 782 163 q 822 83 803 110 q 881 56 842 57 l 889 56 q 908 51 903 56 q 915 26 914 46 q 909 5 915 14 q 890 -4 903 -4 q 738 0 801 0 q 565 -4 654 0 q 547 5 553 -4 q 540 26 540 14 q 547 51 542 46 q 567 56 553 56 q 633 65 614 56 q 653 97 653 74 q 636 163 653 115 l 589 278 l 246 278 q 206 178 211 192 q 201 163 201 164 q 185 94 185 110 q 206 63 185 71 q 285 56 226 56 l 293 56 q 313 51 307 56 q 319 26 318 46 q 313 5 319 14 q 294 -4 307 -4 q 143 0 206 0 q 8 -4 99 0 m 272 338 l 564 338 l 424 694 l 419 694 l 272 338 z "},"Б":{"ha":896,"x_min":71,"x_max":818,"o":"m 96 -4 q 77 5 83 -4 q 71 26 71 14 q 79 51 72 47 q 106 56 86 56 q 165 70 146 56 q 190 106 185 85 q 196 163 194 128 l 196 714 q 190 770 194 749 q 165 806 185 792 q 106 821 146 821 l 97 821 q 78 826 83 821 q 71 850 72 831 q 77 872 71 863 q 96 881 83 881 q 260 876 185 876 l 706 876 q 742 843 742 876 l 746 647 q 735 627 746 635 q 713 619 725 619 q 681 626 696 619 q 665 644 667 633 q 641 749 654 713 q 602 802 628 785 q 529 821 576 819 l 333 821 l 333 511 q 476 524 410 524 q 663 490 586 524 q 779 399 740 457 q 818 267 818 340 q 760 109 818 169 q 614 24 701 49 q 432 -1 526 -1 l 261 0 q 96 -4 186 0 m 436 56 q 664 265 664 58 q 593 415 664 367 q 421 463 522 463 q 333 454 367 463 l 333 171 q 355 79 333 103 q 436 56 376 56 z "},"В":{"ha":863,"x_min":58,"x_max":797,"o":"m 83 -4 q 65 5 71 -4 q 58 26 58 14 q 67 51 60 47 q 93 56 74 56 q 153 70 133 56 q 177 106 172 85 q 183 163 182 128 l 183 714 q 177 770 182 749 q 153 806 172 792 q 93 821 133 821 l 85 821 q 65 826 71 821 q 58 850 60 831 q 65 872 58 863 q 83 881 71 881 q 247 876 174 876 l 443 876 q 567 865 519 876 q 651 831 614 854 q 708 766 688 807 q 729 676 729 725 q 673 540 729 590 q 542 471 617 489 l 542 467 q 673 438 614 467 q 765 362 732 410 q 797 258 797 314 q 740 106 797 164 q 595 23 682 47 q 415 -1 508 -1 l 249 0 q 83 -4 174 0 m 379 494 q 476 503 435 494 q 549 547 517 511 q 581 660 581 583 q 418 825 581 825 l 321 825 l 321 494 l 379 494 m 421 54 q 585 105 524 56 q 647 267 647 154 q 577 390 640 342 q 378 439 514 439 l 321 439 l 321 163 q 330 92 321 115 q 359 62 339 69 q 421 54 379 54 z "},"Г":{"ha":782,"x_min":71,"x_max":729,"o":"m 94 -4 q 77 5 83 -4 q 71 26 71 14 q 79 51 72 47 q 106 56 86 56 q 165 70 146 56 q 190 106 185 85 q 196 163 194 128 l 196 714 q 190 770 194 749 q 165 806 185 792 q 106 821 146 821 l 97 821 q 78 826 83 821 q 71 850 72 831 q 77 872 71 863 q 94 881 83 881 q 260 876 183 876 l 689 876 q 725 843 725 876 l 729 647 q 719 627 729 635 q 696 619 708 619 q 665 626 679 619 q 649 644 650 633 q 624 749 638 713 q 585 802 611 785 q 513 821 560 819 l 333 821 l 333 163 q 340 106 335 128 q 364 70 344 85 q 424 56 383 56 l 432 56 q 451 51 444 56 q 458 26 457 46 q 452 5 458 14 q 433 -4 446 -4 q 261 0 343 0 q 94 -4 185 0 z "},"Ѓ":{"ha":782,"x_min":71,"x_max":729,"o":"m 94 -4 q 77 5 83 -4 q 71 26 71 14 q 79 51 72 47 q 106 56 86 56 q 165 70 146 56 q 190 106 185 85 q 196 163 194 128 l 196 714 q 190 770 194 749 q 165 806 185 792 q 106 821 146 821 l 97 821 q 78 826 83 821 q 71 850 72 831 q 77 872 71 863 q 94 881 83 881 q 260 876 183 876 l 689 876 q 725 843 725 876 l 729 647 q 719 627 729 635 q 696 619 708 619 q 665 626 679 619 q 649 644 650 633 q 624 749 638 713 q 585 802 611 785 q 513 821 560 819 l 333 821 l 333 163 q 340 106 335 128 q 364 70 344 85 q 424 56 383 56 l 432 56 q 451 51 444 56 q 458 26 457 46 q 452 5 458 14 q 433 -4 446 -4 q 261 0 343 0 q 94 -4 185 0 m 428 961 q 415 958 424 958 q 391 969 401 958 q 381 992 381 979 q 388 1008 381 1001 q 442 1064 394 1015 q 535 1146 490 1113 q 572 1171 557 1163 q 601 1179 588 1179 q 638 1160 622 1179 q 651 1128 651 1144 q 600 1064 651 1099 q 428 961 494 996 z "},"Ґ":{"ha":782,"x_min":71,"x_max":729,"o":"m 94 -4 q 77 5 83 -4 q 71 26 71 14 q 79 51 72 47 q 106 56 86 56 q 165 70 146 56 q 190 106 185 85 q 196 163 194 128 l 196 714 q 190 770 194 749 q 165 806 185 792 q 106 821 146 821 l 97 821 q 78 826 83 821 q 71 850 72 831 q 77 872 71 863 q 94 881 83 881 q 260 876 183 876 l 513 876 q 585 895 560 878 q 624 949 611 913 q 649 1053 638 985 q 665 1071 650 1064 q 696 1078 679 1078 q 719 1070 708 1078 q 729 1050 729 1063 l 725 854 q 689 821 725 821 l 333 821 l 333 163 q 340 106 335 128 q 364 70 344 85 q 424 56 383 56 l 432 56 q 451 51 444 56 q 458 26 457 46 q 452 5 458 14 q 433 -4 446 -4 q 261 0 343 0 q 94 -4 185 0 z "},"Д":{"ha":1006,"x_min":26,"x_max":939,"o":"m 71 -249 q 40 -239 53 -249 q 26 -214 26 -229 l 26 15 q 72 60 26 60 l 122 60 q 256 354 208 165 q 304 714 303 543 q 298 770 303 749 q 274 806 293 792 q 214 821 254 821 l 206 821 q 186 826 192 821 q 179 850 181 831 q 185 872 179 863 q 203 881 192 881 q 368 876 294 876 l 715 876 q 881 881 792 876 q 899 872 893 881 q 906 850 906 863 q 897 825 904 829 q 871 821 889 821 q 811 806 831 821 q 787 770 792 792 q 781 714 782 749 l 781 192 q 787 112 781 138 q 817 73 793 86 q 893 60 840 60 q 939 15 939 60 l 939 -214 q 926 -239 939 -229 q 899 -249 914 -249 q 847 -218 853 -249 q 819 -85 833 -128 q 774 -21 804 -42 q 682 0 743 0 l 283 0 q 192 -21 222 0 q 147 -85 161 -42 q 118 -218 132 -128 q 71 -249 113 -249 m 564 60 q 609 65 593 60 q 634 91 625 71 q 643 153 643 111 l 643 817 l 450 817 q 405 811 421 817 q 380 785 389 806 q 371 724 371 765 q 325 338 363 503 q 201 60 288 172 l 564 60 z "},"Е":{"ha":825,"x_min":60,"x_max":778,"o":"m 83 -4 q 66 5 72 -4 q 60 26 60 14 q 68 51 61 47 q 94 56 75 56 q 154 70 135 56 q 178 106 174 85 q 185 163 183 128 l 185 714 q 178 770 183 749 q 154 806 174 792 q 94 821 135 821 l 86 821 q 67 826 72 821 q 60 850 61 831 q 66 872 60 863 q 83 881 72 881 q 249 876 175 876 l 685 876 q 721 843 721 876 l 725 649 q 713 628 725 636 q 688 621 700 621 q 658 627 671 621 q 644 646 646 633 q 620 749 633 714 q 581 802 607 785 q 508 821 556 819 l 322 821 l 322 468 l 574 468 q 589 458 583 467 q 594 436 594 449 q 589 417 594 425 q 574 408 583 408 l 322 408 l 322 146 q 329 99 325 117 q 354 68 333 82 q 419 56 375 54 l 547 56 q 621 72 596 57 q 660 117 646 86 q 696 217 675 147 q 743 236 706 242 q 767 225 757 233 q 776 204 778 217 l 749 29 q 736 6 744 11 q 708 0 728 0 l 250 0 q 83 -4 175 0 z "},"Ѐ":{"ha":825,"x_min":60,"x_max":776,"o":"m 83 -4 q 66 5 72 -4 q 60 26 60 14 q 68 51 61 47 q 94 56 75 56 q 154 70 135 56 q 178 106 174 85 q 185 163 183 128 l 185 714 q 178 770 183 749 q 154 806 174 792 q 94 821 135 821 l 86 821 q 67 826 72 821 q 60 850 61 831 q 66 872 60 863 q 83 881 72 881 q 249 876 175 876 l 685 876 q 721 843 721 876 l 725 649 q 713 628 725 636 q 688 621 700 621 q 658 627 671 621 q 644 646 646 633 q 620 749 633 714 q 581 802 607 785 q 508 821 556 819 l 322 821 l 322 468 l 574 468 q 589 458 583 467 q 594 436 594 449 q 589 417 594 425 q 574 408 583 408 l 322 408 l 322 146 q 329 99 325 117 q 354 68 333 82 q 419 56 375 54 l 547 56 q 621 72 596 57 q 660 117 646 86 q 696 217 675 147 q 743 236 706 242 q 767 225 757 233 q 776 204 778 217 l 749 29 q 736 6 744 11 q 708 0 728 0 l 250 0 q 83 -4 175 0 m 431 939 q 258 1042 364 974 q 207 1106 207 1076 q 221 1138 207 1122 q 257 1157 236 1157 q 287 1149 271 1157 q 324 1124 303 1140 q 416 1042 368 1090 q 471 986 464 993 q 478 969 478 979 q 467 946 478 957 q 443 935 456 935 q 431 939 436 935 z "},"Ё":{"ha":825,"x_min":60,"x_max":776,"o":"m 83 -4 q 66 5 72 -4 q 60 26 60 14 q 68 51 61 47 q 94 56 75 56 q 154 70 135 56 q 178 106 174 85 q 185 163 183 128 l 185 714 q 178 770 183 749 q 154 806 174 792 q 94 821 135 821 l 86 821 q 67 826 72 821 q 60 850 61 831 q 66 872 60 863 q 83 881 72 881 q 249 876 175 876 l 685 876 q 721 843 721 876 l 725 649 q 713 628 725 636 q 688 621 700 621 q 658 627 671 621 q 644 646 646 633 q 620 749 633 714 q 581 802 607 785 q 508 821 556 819 l 322 821 l 322 468 l 574 468 q 589 458 583 467 q 594 436 594 449 q 589 417 594 425 q 574 408 583 408 l 322 408 l 322 146 q 329 99 325 117 q 354 68 333 82 q 419 56 375 54 l 547 56 q 621 72 596 57 q 660 117 646 86 q 696 217 675 147 q 743 236 706 242 q 767 225 757 233 q 776 204 778 217 l 749 29 q 736 6 744 11 q 708 0 728 0 l 250 0 q 83 -4 175 0 m 293 988 q 233 1013 258 988 q 207 1071 207 1038 q 232 1131 207 1107 q 294 1154 257 1154 q 354 1131 331 1154 q 378 1071 378 1107 q 353 1013 378 1038 q 293 988 329 988 m 560 988 q 499 1013 525 988 q 474 1071 474 1038 q 499 1131 474 1107 q 561 1154 524 1154 q 621 1131 597 1154 q 644 1071 644 1107 q 620 1013 644 1038 q 560 988 596 988 z "},"Ж":{"ha":1481,"x_min":21,"x_max":1463,"o":"m 157 -14 q 71 8 111 -14 q 21 74 31 29 l 21 79 q 26 98 21 90 q 42 106 32 106 q 54 100 49 106 q 68 83 60 94 q 91 58 81 67 q 121 49 101 49 q 188 86 161 49 q 251 208 214 124 q 320 344 289 292 q 403 434 351 396 q 529 472 456 472 l 529 476 q 459 515 492 483 q 401 597 426 546 l 386 632 q 334 738 361 699 q 263 778 307 778 q 213 751 232 778 q 194 685 194 724 q 185 678 194 678 q 149 690 169 678 q 113 726 128 703 q 97 781 97 750 q 135 867 97 828 q 235 906 172 906 q 323 869 286 903 q 383 792 360 836 q 433 682 406 749 q 465 608 456 628 q 611 494 524 494 l 672 494 l 672 714 q 666 770 671 749 q 642 806 661 792 q 582 821 622 821 l 574 821 q 553 826 560 821 q 546 850 547 831 q 553 872 546 863 q 571 881 560 881 q 744 876 660 876 q 910 881 821 876 q 928 872 922 881 q 935 850 935 863 q 926 825 933 829 q 900 821 918 821 q 840 806 860 821 q 815 770 819 792 q 808 714 810 749 l 808 494 l 869 494 q 1015 608 957 494 q 1047 682 1025 628 q 1098 792 1075 749 q 1158 869 1121 836 q 1246 906 1194 903 q 1346 867 1308 906 q 1383 781 1383 828 q 1368 726 1383 750 q 1332 690 1353 703 q 1296 678 1311 678 q 1286 685 1286 678 q 1267 751 1286 724 q 1218 778 1249 778 q 1147 738 1174 778 q 1094 632 1119 699 l 1079 597 q 1022 515 1054 546 q 951 476 989 483 l 951 472 q 1077 434 1025 472 q 1160 344 1129 396 q 1229 208 1192 292 q 1293 86 1267 124 q 1360 49 1319 49 q 1390 58 1379 49 q 1413 85 1401 67 q 1421 97 1414 88 q 1436 106 1428 106 l 1438 106 q 1456 96 1450 106 q 1460 74 1463 86 q 1410 8 1450 29 q 1324 -14 1369 -14 q 1200 19 1249 -14 q 1123 99 1151 51 q 1060 225 1094 146 q 1006 339 1031 296 q 940 410 981 382 q 840 439 900 439 l 808 439 l 808 163 q 815 106 810 128 q 840 70 819 85 q 900 56 860 56 l 908 56 q 927 51 921 56 q 935 26 933 46 q 928 5 935 14 q 910 -4 922 -4 q 743 0 821 0 q 571 -4 661 0 q 553 5 560 -4 q 546 26 546 14 q 555 51 547 47 q 582 56 563 56 q 642 70 622 56 q 666 106 661 85 q 672 163 671 128 l 672 439 l 640 439 q 540 410 581 439 q 475 339 500 382 q 421 225 450 296 q 358 99 386 146 q 281 19 329 51 q 157 -14 232 -14 z "},"З":{"ha":822,"x_min":82,"x_max":740,"o":"m 397 -28 q 172 22 261 -28 q 82 172 82 71 q 119 270 82 229 q 213 311 156 311 q 270 294 249 311 q 293 264 292 278 q 275 247 293 261 q 242 213 257 233 q 228 163 228 192 q 273 63 225 97 q 397 28 321 28 q 538 82 485 28 q 590 238 590 136 q 529 378 590 322 q 378 436 468 433 l 326 436 q 311 444 317 436 q 306 464 306 453 q 311 485 306 476 q 326 496 317 494 l 378 496 q 547 664 547 508 q 506 794 547 740 q 388 847 465 847 q 267 794 311 847 q 199 635 222 740 q 182 618 196 624 q 151 615 168 613 q 128 627 139 618 q 118 649 117 636 l 135 851 q 189 867 153 856 q 308 895 258 886 q 422 904 357 904 q 567 874 504 904 q 663 793 629 844 q 696 679 696 742 q 647 550 696 601 q 510 474 599 499 l 510 469 q 683 389 626 451 q 740 242 740 326 q 693 94 740 156 q 567 3 646 33 q 397 -28 489 -28 z "},"И":{"ha":1089,"x_min":71,"x_max":1018,"o":"m 96 -4 q 71 26 71 -3 q 79 51 72 47 q 106 56 86 56 q 165 70 146 56 q 190 106 185 85 q 196 163 194 128 l 196 714 q 190 770 194 749 q 165 806 185 792 q 106 821 146 821 l 97 821 q 78 826 83 821 q 71 850 72 831 q 77 872 71 863 q 96 881 83 881 q 260 876 185 876 q 433 881 343 876 q 452 872 446 881 q 458 850 458 863 q 450 825 457 829 q 424 821 443 821 q 364 806 383 821 q 340 770 344 792 q 333 714 335 749 l 333 222 l 732 725 q 815 822 785 792 q 869 864 846 853 q 922 878 892 875 q 993 881 956 881 q 1018 850 1018 881 q 1010 825 1017 829 q 983 821 1003 821 q 924 806 943 821 q 899 770 904 792 q 893 714 894 749 l 893 163 q 899 106 894 128 q 924 70 904 85 q 983 56 943 56 l 992 56 q 1011 51 1006 56 q 1018 26 1017 46 q 1012 5 1018 14 q 993 -4 1006 -4 q 829 0 904 0 q 657 -4 747 0 q 638 5 644 -4 q 632 26 632 14 q 641 51 633 47 q 667 56 649 56 q 726 70 707 56 q 751 106 746 85 q 757 163 756 128 l 757 653 l 357 153 q 276 58 304 88 q 226 15 247 28 q 176 -1 204 1 q 96 -4 131 -6 z "},"Й":{"ha":1089,"x_min":71,"x_max":1018,"o":"m 96 -4 q 71 26 71 -3 q 79 51 72 47 q 106 56 86 56 q 165 70 146 56 q 190 106 185 85 q 196 163 194 128 l 196 714 q 190 770 194 749 q 165 806 185 792 q 106 821 146 821 l 97 821 q 78 826 83 821 q 71 850 72 831 q 77 872 71 863 q 96 881 83 881 q 260 876 185 876 q 433 881 343 876 q 452 872 446 881 q 458 850 458 863 q 450 825 457 829 q 424 821 443 821 q 364 806 383 821 q 340 770 344 792 q 333 714 335 749 l 333 222 l 732 725 q 815 822 785 792 q 869 864 846 853 q 922 878 892 875 q 993 881 956 881 q 1018 850 1018 881 q 1010 825 1017 829 q 983 821 1003 821 q 924 806 943 821 q 899 770 904 792 q 893 714 894 749 l 893 163 q 899 106 894 128 q 924 70 904 85 q 983 56 943 56 l 992 56 q 1011 51 1006 56 q 1018 26 1017 46 q 1012 5 1018 14 q 993 -4 1006 -4 q 829 0 904 0 q 657 -4 747 0 q 638 5 644 -4 q 632 26 632 14 q 641 51 633 47 q 667 56 649 56 q 726 70 707 56 q 751 106 746 85 q 757 163 756 128 l 757 653 l 357 153 q 276 58 304 88 q 226 15 247 28 q 176 -1 204 1 q 96 -4 131 -6 m 743 1175 q 792 1156 774 1175 q 811 1104 811 1138 q 732 995 811 1033 q 544 957 653 957 q 357 995 436 957 q 278 1104 278 1033 q 297 1156 278 1138 q 346 1175 315 1175 q 394 1156 376 1175 q 431 1097 413 1136 q 476 1028 453 1053 q 544 1004 500 1004 q 613 1028 589 1004 q 658 1097 636 1053 q 694 1156 676 1136 q 743 1175 713 1175 z "},"Ѝ":{"ha":1089,"x_min":71,"x_max":1018,"o":"m 96 -4 q 71 26 71 -3 q 79 51 72 47 q 106 56 86 56 q 165 70 146 56 q 190 106 185 85 q 196 163 194 128 l 196 714 q 190 770 194 749 q 165 806 185 792 q 106 821 146 821 l 97 821 q 78 826 83 821 q 71 850 72 831 q 77 872 71 863 q 96 881 83 881 q 260 876 185 876 q 433 881 343 876 q 452 872 446 881 q 458 850 458 863 q 450 825 457 829 q 424 821 443 821 q 364 806 383 821 q 340 770 344 792 q 333 714 335 749 l 333 222 l 732 725 q 815 822 785 792 q 869 864 846 853 q 922 878 892 875 q 993 881 956 881 q 1018 850 1018 881 q 1010 825 1017 829 q 983 821 1003 821 q 924 806 943 821 q 899 770 904 792 q 893 714 894 749 l 893 163 q 899 106 894 128 q 924 70 904 85 q 983 56 943 56 l 992 56 q 1011 51 1006 56 q 1018 26 1017 46 q 1012 5 1018 14 q 993 -4 1006 -4 q 829 0 904 0 q 657 -4 747 0 q 638 5 644 -4 q 632 26 632 14 q 641 51 633 47 q 667 56 649 56 q 726 70 707 56 q 751 106 746 85 q 757 163 756 128 l 757 653 l 357 153 q 276 58 304 88 q 226 15 247 28 q 176 -1 204 1 q 96 -4 131 -6 m 549 939 q 376 1042 482 974 q 325 1106 325 1076 q 339 1138 325 1122 q 375 1157 354 1157 q 405 1149 389 1157 q 442 1124 421 1140 q 534 1042 486 1090 q 589 986 582 993 q 596 969 596 979 q 585 946 596 957 q 561 935 574 935 q 549 939 554 935 z "},"К":{"ha":1022,"x_min":71,"x_max":1004,"o":"m 865 -14 q 742 19 792 -14 q 662 99 692 51 q 597 225 632 147 q 538 340 564 297 q 471 410 513 382 q 369 439 429 439 l 333 439 l 333 163 q 340 106 335 128 q 364 70 344 85 q 424 56 383 56 l 432 56 q 452 51 446 56 q 460 26 458 46 q 453 5 460 14 q 435 -4 447 -4 q 263 0 346 0 q 96 -4 186 0 q 77 5 83 -4 q 71 26 71 14 q 80 51 72 47 q 106 56 88 56 q 165 70 146 56 q 190 106 185 85 q 197 163 196 126 l 197 714 q 190 771 196 750 q 165 806 185 792 q 106 821 146 821 l 97 821 q 78 826 85 821 q 71 850 72 831 q 77 872 71 863 q 96 881 83 881 q 261 876 185 876 q 435 881 344 876 q 453 872 447 881 q 460 850 460 863 q 451 825 458 829 q 424 821 443 821 q 364 806 383 821 q 340 770 344 792 q 333 714 335 749 l 333 494 l 399 494 q 485 522 443 494 q 558 608 528 550 q 590 682 568 628 q 641 792 618 749 q 701 869 664 836 q 789 906 738 903 q 889 867 851 906 q 926 781 926 828 q 910 726 926 750 q 874 690 894 703 q 839 678 853 678 q 828 685 828 678 q 810 749 828 721 q 765 778 792 778 q 691 740 718 778 q 638 636 664 703 q 621 597 626 608 q 564 515 597 547 q 494 476 531 483 l 494 472 q 619 434 568 472 q 703 342 671 396 q 771 208 735 289 q 835 87 808 125 q 903 49 863 49 q 933 58 921 49 q 956 85 944 68 q 978 106 968 106 l 979 106 q 998 96 992 106 q 1001 74 1004 86 q 952 8 993 29 q 865 -14 911 -14 z "},"Ќ":{"ha":1022,"x_min":71,"x_max":1001,"o":"m 865 -14 q 742 19 792 -14 q 662 99 692 51 q 597 225 632 147 q 538 340 564 297 q 471 410 513 382 q 369 439 429 439 l 333 439 l 333 163 q 340 106 335 128 q 364 70 344 85 q 424 56 383 56 l 432 56 q 452 51 446 56 q 460 26 458 46 q 453 5 460 14 q 435 -4 447 -4 q 263 0 346 0 q 96 -4 186 0 q 77 5 83 -4 q 71 26 71 14 q 80 51 72 47 q 106 56 88 56 q 165 70 146 56 q 190 106 185 85 q 197 163 196 126 l 197 714 q 190 771 196 750 q 165 806 185 792 q 106 821 146 821 l 97 821 q 78 826 85 821 q 71 850 72 831 q 77 872 71 863 q 96 881 83 881 q 261 876 185 876 q 435 881 344 876 q 453 872 447 881 q 460 850 460 863 q 451 825 458 829 q 424 821 443 821 q 364 806 383 821 q 340 770 344 792 q 333 714 335 749 l 333 494 l 399 494 q 485 522 443 494 q 558 608 528 550 q 590 682 568 628 q 641 792 618 749 q 701 869 664 836 q 789 906 738 903 q 889 867 851 906 q 926 781 926 828 q 910 726 926 750 q 874 690 894 703 q 839 678 853 678 q 828 685 828 678 q 810 749 828 721 q 765 778 792 778 q 691 740 718 778 q 638 636 664 703 q 621 597 626 608 q 564 515 597 547 q 494 476 531 483 l 494 472 q 619 434 568 472 q 703 342 671 396 q 771 208 735 289 q 835 87 808 125 q 903 49 863 49 q 933 58 921 49 q 956 85 944 68 q 978 106 968 106 l 979 106 q 998 96 992 106 q 1001 74 1004 86 q 952 8 993 29 q 865 -14 911 -14 m 553 961 q 540 958 549 958 q 516 969 526 958 q 506 992 506 979 q 513 1008 506 1001 q 567 1064 519 1015 q 660 1146 615 1113 q 697 1171 682 1163 q 726 1179 713 1179 q 763 1160 747 1179 q 776 1128 776 1144 q 725 1064 776 1099 q 553 961 619 996 z "},"Л":{"ha":1076,"x_min":38,"x_max":1006,"o":"m 200 -14 q 81 23 124 -14 q 38 115 38 60 q 66 190 38 161 q 138 219 94 219 q 163 215 153 219 q 176 207 174 211 q 169 189 176 203 q 161 156 161 175 q 219 101 161 101 q 302 174 271 101 q 352 364 333 246 q 397 714 371 482 q 399 744 399 725 q 380 804 399 788 q 313 821 361 821 l 304 821 q 285 826 290 821 q 278 850 279 831 q 284 872 278 863 q 303 881 290 881 q 467 876 392 876 l 817 876 q 981 881 892 876 q 999 872 993 881 q 1006 850 1006 863 q 997 825 1004 829 q 971 821 990 821 q 901 795 919 821 q 881 714 882 769 l 881 163 q 887 106 882 128 q 911 70 892 85 q 971 56 931 56 l 979 56 q 999 51 993 56 q 1006 26 1004 46 q 999 5 1006 14 q 981 -4 993 -4 q 815 0 892 0 q 643 -4 733 0 q 624 5 631 -4 q 618 26 618 14 q 626 51 619 47 q 653 56 633 56 q 713 70 693 56 q 737 106 732 85 q 743 163 742 128 l 743 817 l 549 817 q 507 811 521 817 q 484 785 493 806 q 471 724 475 765 q 419 318 444 465 q 342 78 394 171 q 200 -14 290 -14 z "},"М":{"ha":1235,"x_min":58,"x_max":1175,"o":"m 594 -7 q 565 7 574 -7 l 253 714 l 249 714 l 251 163 q 257 105 253 125 q 280 70 261 85 q 339 56 299 56 l 347 56 q 367 51 361 56 q 375 26 374 46 q 369 5 375 14 q 350 -4 363 -4 l 315 -3 q 224 0 251 0 q 86 -4 176 0 q 67 5 74 -4 q 61 26 61 14 q 69 51 63 47 q 96 56 76 56 q 155 70 136 56 q 178 105 174 85 q 183 163 182 125 l 186 714 q 176 778 186 757 q 148 809 167 800 q 93 825 129 818 q 76 828 88 826 q 62 837 65 831 q 58 857 58 843 q 67 879 58 874 q 96 885 76 885 q 231 874 178 885 q 323 832 283 864 q 389 738 363 800 l 628 201 l 632 201 l 906 876 l 985 876 q 1150 881 1061 876 q 1169 872 1163 881 q 1175 850 1175 863 q 1166 825 1174 829 q 1140 821 1158 821 q 1081 806 1100 821 q 1056 770 1061 792 q 1050 714 1051 749 l 1050 163 q 1056 106 1051 128 q 1081 70 1061 85 q 1140 56 1100 56 l 1149 56 q 1167 51 1161 56 q 1175 26 1174 46 q 1169 5 1175 14 q 1150 -4 1163 -4 q 983 0 1061 0 q 813 -4 903 0 q 794 5 800 -4 q 788 26 788 14 q 796 51 789 47 q 822 56 803 56 q 882 70 863 56 q 906 106 901 85 q 913 163 911 128 l 913 714 l 908 714 l 622 7 q 594 -7 617 -7 z "},"Н":{"ha":1079,"x_min":60,"x_max":1021,"o":"m 85 -4 q 66 5 72 -4 q 60 26 60 14 q 68 51 61 47 q 94 56 75 56 q 154 70 135 56 q 178 106 174 85 q 185 163 183 128 l 185 714 q 178 770 183 749 q 154 806 174 792 q 94 821 135 821 l 86 821 q 67 826 72 821 q 60 850 61 831 q 66 872 60 863 q 85 881 72 881 q 249 876 175 876 q 422 881 332 876 q 441 872 435 881 q 447 850 447 863 q 439 825 446 829 q 413 821 432 821 q 353 806 372 821 q 328 770 333 792 q 322 714 324 749 l 322 468 l 758 468 l 758 714 q 752 770 757 749 q 728 806 747 792 q 668 821 708 821 l 660 821 q 640 826 646 821 q 632 850 633 831 q 639 872 632 863 q 657 881 646 881 q 831 876 747 876 q 996 881 907 876 q 1015 872 1008 881 q 1021 850 1021 863 q 1012 825 1019 829 q 986 821 1004 821 q 926 806 946 821 q 901 770 906 792 q 894 714 896 749 l 894 163 q 901 106 896 128 q 926 70 906 85 q 986 56 946 56 l 994 56 q 1013 51 1007 56 q 1021 26 1019 46 q 1015 5 1021 14 q 996 -4 1008 -4 q 829 0 907 0 q 657 -4 747 0 q 639 5 646 -4 q 632 26 632 14 q 641 51 633 47 q 668 56 649 56 q 728 70 708 56 q 752 106 747 85 q 758 163 757 128 l 758 408 l 322 408 l 322 163 q 328 106 324 128 q 353 70 333 85 q 413 56 372 56 l 421 56 q 440 51 435 56 q 447 26 446 46 q 441 5 447 14 q 422 -4 435 -4 q 250 0 333 0 q 85 -4 175 0 z "},"О":{"ha":1021,"x_min":65,"x_max":956,"o":"m 508 -28 q 276 35 376 -28 q 120 203 175 99 q 65 426 65 307 q 131 681 65 572 q 300 847 197 789 q 508 904 403 904 q 744 841 642 904 q 901 674 846 778 q 956 451 956 571 q 889 197 956 306 q 718 30 822 88 q 508 -28 614 -28 m 507 33 q 665 90 601 33 q 759 241 728 146 q 790 451 790 336 q 758 648 790 558 q 663 791 726 738 q 507 844 599 844 q 298 727 368 844 q 228 431 228 610 q 259 232 228 322 q 353 88 290 142 q 507 33 415 33 z "},"П":{"ha":1068,"x_min":71,"x_max":997,"o":"m 96 -4 q 77 5 83 -4 q 71 26 71 14 q 79 51 72 47 q 106 56 86 56 q 165 70 146 56 q 190 106 185 85 q 196 163 194 128 l 196 714 q 190 770 194 749 q 165 806 185 792 q 106 821 146 821 l 97 821 q 78 826 83 821 q 71 850 72 831 q 77 872 71 863 q 96 881 83 881 q 260 876 185 876 l 800 876 q 972 881 882 876 q 991 872 985 881 q 997 850 997 863 q 988 825 996 829 q 961 821 981 821 q 901 806 921 821 q 877 770 882 792 q 871 714 872 749 l 871 163 q 877 106 872 128 q 901 70 882 85 q 961 56 921 56 l 969 56 q 990 51 983 56 q 997 26 996 46 q 991 5 997 14 q 972 -4 985 -4 q 799 0 883 0 q 633 -4 724 0 q 615 5 621 -4 q 608 26 608 14 q 617 51 610 47 q 643 56 625 56 q 703 70 683 56 q 728 106 722 85 q 735 163 733 126 l 735 821 l 424 821 q 360 808 379 822 q 337 774 340 794 q 333 714 333 754 l 333 163 q 340 106 335 128 q 364 70 344 85 q 424 56 383 56 l 432 56 q 451 51 446 56 q 458 26 457 46 q 452 5 458 14 q 433 -4 446 -4 q 261 0 343 0 q 96 -4 186 0 z "},"Р":{"ha":839,"x_min":58,"x_max":806,"o":"m 83 -4 q 65 5 72 -4 q 58 26 58 14 q 67 51 60 47 q 94 56 75 56 q 154 70 135 56 q 178 106 174 85 q 185 163 183 128 l 185 714 q 178 770 183 749 q 154 806 174 792 q 94 821 135 821 l 86 821 q 66 826 72 821 q 58 850 60 831 q 65 872 58 863 q 83 881 72 881 q 250 876 174 876 l 458 876 q 692 826 579 876 q 806 626 806 776 q 756 478 806 543 q 626 376 706 413 q 460 340 546 340 q 321 363 381 340 l 321 163 q 327 106 322 128 q 351 70 332 85 q 411 56 371 56 l 419 56 q 440 51 433 56 q 447 26 446 46 q 441 5 447 14 q 422 -4 435 -4 q 249 0 333 0 q 83 -4 174 0 m 419 403 q 523 423 469 403 q 614 492 576 443 q 651 622 651 542 q 574 785 651 744 q 408 825 496 825 q 354 817 372 825 q 328 788 336 810 q 321 718 321 765 l 321 418 q 419 403 354 403 z "},"С":{"ha":888,"x_min":68,"x_max":839,"o":"m 497 -28 q 281 28 379 -28 q 126 189 183 85 q 68 432 68 293 q 124 679 68 572 q 282 845 179 786 q 522 904 385 904 q 735 856 642 904 q 828 708 828 808 q 790 602 829 646 q 686 558 751 558 q 644 567 661 558 q 618 589 626 576 q 611 608 610 601 q 631 624 611 611 q 665 658 650 636 q 681 713 681 681 q 638 812 681 775 q 521 849 596 849 q 370 801 436 849 q 267 660 304 753 q 231 440 231 568 q 270 238 231 329 q 382 94 310 147 q 547 40 454 40 q 676 72 622 40 q 772 172 729 103 q 792 185 779 185 q 817 176 803 185 q 839 146 839 161 q 833 132 839 138 q 734 31 781 65 q 633 -15 688 -3 q 497 -28 579 -28 z "},"Т":{"ha":833,"x_min":36,"x_max":799,"o":"m 249 -4 q 230 5 236 -4 q 224 26 224 14 q 232 51 225 47 q 258 56 239 56 q 318 70 299 56 q 342 106 338 85 q 349 163 347 128 l 349 825 l 253 825 q 180 805 206 824 q 141 749 154 786 q 118 644 128 713 q 101 626 117 633 q 69 619 86 619 q 47 627 57 619 q 36 647 36 635 l 40 843 q 78 876 40 876 l 757 876 q 793 843 793 876 l 799 647 q 788 627 799 635 q 764 619 776 619 q 733 626 747 619 q 717 644 718 633 q 693 750 706 714 q 654 805 681 786 q 581 825 628 824 l 486 825 l 486 163 q 492 106 488 128 q 517 70 497 85 q 576 56 536 56 l 585 56 q 603 51 597 56 q 611 26 610 46 q 605 5 611 14 q 586 -4 599 -4 q 422 0 497 0 q 249 -4 339 0 z "},"У":{"ha":914,"x_min":39,"x_max":921,"o":"m 261 -24 q 140 13 185 -24 q 94 107 94 50 q 124 188 94 157 q 196 218 154 218 q 238 208 221 218 q 256 189 256 197 q 243 172 256 186 q 231 131 231 158 q 249 79 231 100 q 301 58 267 58 q 385 90 349 58 q 453 189 422 122 q 283 518 393 296 q 182 715 215 654 q 148 776 160 758 q 119 806 136 794 q 74 824 103 818 q 57 827 68 825 q 42 835 46 829 q 39 856 39 842 q 47 879 39 874 q 74 885 56 885 q 189 873 147 885 q 259 831 231 861 q 324 739 288 801 q 367 649 335 718 q 524 343 446 482 l 528 343 l 707 751 q 713 778 713 764 q 686 813 713 806 q 608 821 660 821 l 600 821 q 581 826 586 821 q 574 850 575 831 q 580 872 574 863 q 597 881 586 881 q 758 876 688 876 q 896 881 807 876 q 915 872 908 881 q 921 850 921 863 q 914 826 919 831 q 894 821 908 821 q 837 812 856 821 q 808 788 818 803 q 776 726 799 772 l 525 192 q 410 30 474 83 q 261 -24 347 -24 z "},"Ў":{"ha":914,"x_min":39,"x_max":921,"o":"m 261 -24 q 140 13 185 -24 q 94 107 94 50 q 124 188 94 157 q 196 218 154 218 q 238 208 221 218 q 256 189 256 197 q 243 172 256 186 q 231 131 231 158 q 249 79 231 100 q 301 58 267 58 q 385 90 349 58 q 453 189 422 122 q 283 518 393 296 q 182 715 215 654 q 148 776 160 758 q 119 806 136 794 q 74 824 103 818 q 57 827 68 825 q 42 835 46 829 q 39 856 39 842 q 47 879 39 874 q 74 885 56 885 q 189 873 147 885 q 259 831 231 861 q 324 739 288 801 q 367 649 335 718 q 524 343 446 482 l 528 343 l 707 751 q 713 778 713 764 q 686 813 713 806 q 608 821 660 821 l 600 821 q 581 826 586 821 q 574 850 575 831 q 580 872 574 863 q 597 881 586 881 q 758 876 688 876 q 896 881 807 876 q 915 872 908 881 q 921 850 921 863 q 914 826 919 831 q 894 821 908 821 q 837 812 856 821 q 808 788 818 803 q 776 726 799 772 l 525 192 q 410 30 474 83 q 261 -24 347 -24 m 661 1175 q 710 1156 692 1175 q 729 1104 729 1138 q 650 995 729 1033 q 463 957 571 957 q 275 995 354 957 q 196 1104 196 1033 q 215 1156 196 1138 q 264 1175 233 1175 q 313 1156 294 1175 q 349 1097 331 1136 q 394 1028 371 1053 q 463 1004 418 1004 q 531 1028 507 1004 q 576 1097 554 1053 q 613 1156 594 1136 q 661 1175 631 1175 z "},"Ф":{"ha":1138,"x_min":79,"x_max":1058,"o":"m 400 -4 q 381 5 388 -4 q 375 26 375 14 q 382 51 376 46 q 401 56 388 56 q 466 65 446 56 q 491 88 486 75 q 499 132 496 101 q 203 209 328 136 q 79 453 79 282 q 203 687 79 617 q 499 763 328 757 q 492 806 496 793 q 469 829 488 819 q 410 839 450 839 l 401 839 q 382 844 388 839 q 375 868 376 849 q 381 890 375 881 q 400 899 388 899 q 564 894 490 894 q 738 899 647 894 q 756 890 750 899 q 763 868 763 881 q 756 844 761 849 q 736 839 750 839 q 672 829 692 839 q 647 806 651 819 q 639 763 642 793 q 934 687 810 757 q 1058 453 1058 617 q 934 209 1058 282 q 639 132 810 136 q 646 88 642 101 q 669 65 650 75 q 728 56 688 56 l 736 56 q 756 51 750 56 q 763 26 761 46 q 756 5 763 14 q 738 -4 750 -4 q 564 0 649 0 q 400 -4 490 0 m 500 718 q 305 654 378 714 q 232 453 232 594 q 308 245 232 308 q 500 176 383 182 l 500 718 m 638 176 q 830 245 754 182 q 906 453 906 308 q 833 654 906 594 q 638 718 760 714 l 638 176 z "},"Х":{"ha":907,"x_min":10,"x_max":915,"o":"m 35 -4 q 16 5 22 -4 q 10 26 10 14 q 17 51 11 46 q 36 56 22 56 q 122 74 93 56 q 190 150 150 92 l 392 436 l 214 715 q 149 790 181 767 q 71 824 117 814 q 54 827 65 825 q 40 835 43 829 q 36 856 36 842 q 47 879 36 875 q 72 883 57 883 q 92 883 88 883 q 247 851 189 883 q 360 739 304 819 l 474 553 l 611 753 q 628 793 628 781 q 608 815 628 810 q 550 821 589 821 l 542 821 q 522 826 528 821 q 515 850 517 831 q 522 872 515 863 q 539 881 528 881 q 690 876 628 876 q 831 881 742 876 q 849 872 843 881 q 856 850 856 863 q 849 826 854 831 q 829 821 843 821 q 744 803 772 821 q 675 726 715 785 l 513 496 l 754 151 q 813 81 785 106 q 881 56 840 56 l 889 56 q 908 51 903 56 q 915 26 914 46 q 909 5 915 14 q 892 -4 903 -4 q 725 0 803 0 q 556 -4 646 0 q 537 5 543 -4 q 531 26 531 14 q 540 51 532 47 q 565 56 547 56 q 608 65 593 56 q 622 92 622 75 q 610 124 622 107 l 432 378 l 254 124 q 238 83 238 101 q 257 61 238 67 q 315 56 276 56 l 324 56 q 343 51 338 56 q 350 26 349 46 q 344 5 350 14 q 326 -4 338 -4 q 175 0 238 0 q 35 -4 125 0 z "},"Ч":{"ha":982,"x_min":26,"x_max":911,"o":"m 549 -4 q 530 5 536 -4 q 524 26 524 14 q 532 51 525 47 q 558 56 539 56 q 618 70 599 56 q 642 106 638 85 q 649 163 647 128 l 649 408 q 508 361 549 371 q 424 351 468 351 q 288 376 350 351 q 196 442 226 401 q 164 504 175 468 q 153 603 153 540 l 153 714 q 147 770 151 749 q 122 806 142 792 q 63 821 103 821 l 54 821 q 34 826 40 821 q 26 850 28 831 q 33 872 26 863 q 51 881 40 881 q 217 876 140 876 q 390 881 300 876 q 409 872 403 881 q 415 850 415 863 q 406 825 414 829 q 381 821 399 821 q 321 806 340 821 q 296 771 301 792 q 289 714 290 750 l 289 618 q 344 472 289 518 q 492 426 400 426 q 649 468 563 426 l 649 714 q 642 770 647 749 q 618 806 638 792 q 558 821 599 821 l 550 821 q 531 826 536 821 q 524 850 525 831 q 530 872 524 863 q 549 881 536 881 q 722 876 639 876 q 886 881 796 876 q 905 872 899 881 q 911 850 911 863 q 902 825 910 829 q 876 821 894 821 q 817 806 836 821 q 792 770 797 792 q 786 714 788 749 l 786 163 q 792 106 788 128 q 817 70 797 85 q 876 56 836 56 l 885 56 q 903 51 897 56 q 911 26 910 46 q 905 5 911 14 q 886 -4 899 -4 q 719 0 797 0 q 549 -4 639 0 z "},"Ц":{"ha":1132,"x_min":71,"x_max":1132,"o":"m 389 -342 q 353 -317 364 -342 q 342 -262 342 -292 q 400 -145 342 -183 q 538 -107 458 -107 q 633 -122 588 -107 q 744 -167 679 -137 q 857 -210 811 -196 q 951 -225 903 -225 q 1038 -195 1007 -225 q 1069 -122 1069 -165 q 1033 -35 1069 -71 q 922 0 997 0 l 258 0 q 96 -4 186 0 q 77 5 83 -4 q 71 26 71 14 q 80 51 72 47 q 106 56 88 56 q 165 70 146 56 q 190 106 185 85 q 196 163 194 128 l 196 714 q 190 770 194 749 q 165 806 185 792 q 106 821 146 821 l 97 821 q 78 826 85 821 q 71 850 72 831 q 77 872 71 863 q 96 881 83 881 q 257 876 185 876 q 435 881 344 876 q 452 872 446 881 q 458 850 458 863 q 450 825 457 829 q 424 821 443 821 q 364 806 383 821 q 340 770 344 792 q 333 714 335 749 l 333 171 q 356 79 333 103 q 438 56 378 56 l 756 56 l 756 714 q 749 770 754 749 q 725 806 744 792 q 665 821 706 821 l 657 821 q 637 826 643 821 q 629 850 631 831 q 636 872 629 863 q 654 881 643 881 q 821 876 744 876 q 993 881 903 876 q 1012 872 1006 881 q 1018 850 1018 863 q 1009 825 1017 829 q 982 821 1001 821 q 922 806 942 821 q 898 770 903 792 q 892 714 893 749 l 892 185 q 906 114 892 140 q 943 74 921 88 q 1001 46 965 61 q 1067 13 1042 29 q 1110 -35 1092 -3 q 1132 -121 1129 -67 q 1067 -281 1132 -221 q 875 -342 1003 -342 q 764 -324 815 -342 q 642 -269 713 -306 q 547 -226 585 -240 q 469 -211 508 -211 q 414 -228 433 -211 q 394 -271 394 -246 q 406 -299 394 -285 q 417 -317 417 -312 q 408 -334 417 -326 q 389 -342 400 -342 z "},"Ш":{"ha":1475,"x_min":71,"x_max":1404,"o":"m 96 -4 q 77 5 83 -4 q 71 26 71 14 q 79 51 72 47 q 106 56 86 56 q 165 70 146 56 q 190 106 185 85 q 196 163 194 128 l 196 714 q 190 770 194 749 q 165 806 185 792 q 106 821 146 821 l 97 821 q 78 826 83 821 q 71 850 72 831 q 77 872 71 863 q 96 881 83 881 q 260 876 185 876 q 424 881 333 876 q 442 872 436 881 q 449 850 449 863 q 440 825 447 829 q 414 821 432 821 q 356 806 374 821 q 337 775 339 792 q 333 714 335 758 l 333 171 q 355 79 333 103 q 436 56 376 56 l 668 56 l 668 714 q 667 754 668 721 q 647 804 667 788 q 586 821 626 821 l 578 821 q 558 826 564 821 q 550 850 551 831 q 557 872 550 863 q 575 881 564 881 q 733 876 664 876 q 896 881 807 876 q 915 872 908 881 q 921 850 921 863 q 913 825 919 829 q 886 821 906 821 q 828 806 846 821 q 809 775 811 792 q 806 714 807 758 l 806 171 q 828 79 806 103 q 910 56 850 56 l 1142 56 l 1142 714 q 1141 753 1142 719 q 1119 804 1140 788 q 1058 821 1099 821 l 1050 821 q 1031 826 1036 821 q 1024 850 1025 831 q 1030 872 1024 863 q 1047 881 1036 881 q 1207 876 1136 876 q 1379 881 1289 876 q 1398 872 1392 881 q 1404 850 1404 863 q 1395 825 1403 829 q 1368 821 1388 821 q 1308 806 1328 821 q 1284 770 1289 792 q 1278 714 1279 749 l 1278 163 q 1284 106 1279 128 q 1308 70 1289 85 q 1368 56 1328 56 l 1376 56 q 1397 51 1390 56 q 1404 26 1403 46 q 1398 5 1404 14 q 1379 -4 1392 -4 q 1206 0 1290 0 l 261 0 q 96 -4 186 0 z "},"Щ":{"ha":1547,"x_min":71,"x_max":1519,"o":"m 706 -342 q 669 -317 681 -342 q 658 -262 658 -292 q 717 -144 658 -183 q 854 -106 775 -106 q 958 -120 907 -106 q 1082 -162 1010 -135 q 1217 -208 1158 -192 q 1339 -225 1275 -224 q 1426 -195 1394 -225 q 1457 -122 1457 -165 q 1421 -35 1457 -71 q 1310 0 1385 0 l 263 0 q 96 -4 186 0 q 77 5 83 -4 q 71 26 71 14 q 80 51 72 47 q 106 56 88 56 q 165 70 146 56 q 190 106 185 85 q 196 163 194 128 l 196 714 q 190 770 194 749 q 165 806 185 792 q 106 821 146 821 l 97 821 q 78 826 85 821 q 71 850 72 831 q 77 872 71 863 q 96 881 83 881 q 261 876 185 876 q 424 881 333 876 q 442 872 436 881 q 449 850 449 863 q 440 825 447 829 q 414 821 433 821 q 356 806 374 821 q 337 775 339 792 q 333 714 335 758 l 333 171 q 356 79 333 103 q 438 56 378 56 l 669 56 l 669 714 q 669 753 669 719 q 647 804 668 788 q 586 821 626 821 l 578 821 q 558 826 564 821 q 551 850 553 831 q 558 872 551 863 q 575 881 564 881 q 733 876 664 876 q 896 881 807 876 q 915 872 908 881 q 921 850 921 863 q 913 825 919 829 q 886 821 906 821 q 828 806 846 821 q 809 775 811 792 q 806 714 807 758 l 806 171 q 828 79 806 103 q 910 56 850 56 l 1142 56 l 1142 714 q 1141 753 1142 719 q 1119 804 1140 788 q 1058 821 1099 821 l 1050 821 q 1031 826 1036 821 q 1024 850 1025 831 q 1030 872 1024 863 q 1049 881 1036 881 q 1207 876 1138 876 q 1379 881 1289 876 q 1398 872 1392 881 q 1404 850 1404 863 q 1395 825 1403 829 q 1369 821 1388 821 q 1310 806 1329 821 q 1285 770 1290 792 q 1279 714 1281 749 l 1279 185 q 1294 114 1279 140 q 1331 74 1308 88 q 1389 46 1353 61 q 1454 13 1429 29 q 1498 -35 1479 -3 q 1519 -121 1517 -67 q 1444 -287 1518 -232 q 1244 -342 1371 -342 q 1135 -325 1188 -342 q 1006 -276 1082 -308 q 891 -232 936 -247 q 796 -211 846 -217 q 733 -226 754 -208 q 711 -271 711 -244 q 722 -299 711 -285 q 733 -317 733 -312 q 725 -334 733 -326 q 706 -342 717 -342 z "},"Џ":{"ha":1044,"x_min":60,"x_max":986,"o":"m 960 56 q 979 51 974 56 q 986 26 985 46 q 980 5 986 14 q 961 -4 974 -4 q 797 0 872 0 l 546 0 q 577 -142 565 -69 q 589 -261 589 -215 q 571 -317 589 -296 q 522 -339 553 -339 q 476 -317 494 -339 q 458 -261 458 -296 q 470 -141 458 -214 q 500 0 482 -68 l 257 0 q 85 -4 175 0 q 67 5 74 -4 q 60 26 60 14 q 69 51 61 47 q 96 56 76 56 q 156 70 136 56 q 180 106 175 85 q 186 163 185 128 l 186 714 q 180 770 185 749 q 156 806 175 792 q 96 821 136 821 l 88 821 q 67 826 74 821 q 60 850 61 831 q 67 872 60 863 q 85 881 74 881 q 258 876 175 876 q 424 881 333 876 q 442 872 436 881 q 449 850 449 863 q 440 825 447 829 q 414 821 432 821 q 354 806 374 821 q 329 771 335 792 q 322 714 324 750 l 322 56 l 633 56 q 697 68 678 54 q 720 102 717 82 q 724 163 724 122 l 724 714 q 717 770 722 749 q 693 806 713 792 q 633 821 674 821 l 625 821 q 606 826 611 821 q 599 850 600 831 q 605 872 599 863 q 624 881 611 881 q 796 876 714 876 q 961 881 871 876 q 980 872 974 881 q 986 850 986 863 q 978 825 985 829 q 951 821 971 821 q 892 806 911 821 q 867 770 872 792 q 861 714 863 749 l 861 163 q 867 106 863 128 q 892 70 872 85 q 951 56 911 56 l 960 56 z "},"Ь":{"ha":869,"x_min":71,"x_max":818,"o":"m 96 -4 q 77 5 83 -4 q 71 26 71 14 q 79 51 72 47 q 106 56 86 56 q 165 70 146 56 q 190 106 185 85 q 196 163 194 128 l 196 714 q 190 770 194 749 q 165 806 185 792 q 106 821 146 821 l 97 821 q 78 826 83 821 q 71 850 72 831 q 77 872 71 863 q 96 881 83 881 q 260 876 185 876 q 433 881 343 876 q 452 872 446 881 q 458 850 458 863 q 449 825 457 829 q 424 821 442 821 q 364 806 383 821 q 340 770 344 792 q 333 714 335 749 l 333 522 q 476 535 410 535 q 663 499 586 535 q 779 402 740 463 q 818 267 818 342 q 760 110 818 169 q 614 25 701 50 q 432 0 526 0 l 261 0 q 96 -4 186 0 m 421 56 q 599 104 535 57 q 664 265 664 151 q 592 421 664 368 q 421 474 519 474 q 333 465 367 474 l 333 165 q 340 95 332 118 q 367 64 349 72 q 421 56 385 56 z "},"Ъ":{"ha":979,"x_min":36,"x_max":928,"o":"m 233 -4 q 215 5 221 -4 q 208 26 208 14 q 217 51 210 47 q 243 56 225 56 q 303 70 283 56 q 327 106 322 85 q 333 163 332 128 l 333 817 l 254 817 q 181 797 207 815 q 142 741 156 778 q 118 635 129 704 q 103 616 117 622 q 75 610 90 610 q 49 617 61 610 q 36 638 36 625 l 40 843 q 78 876 40 876 l 399 876 q 572 881 482 876 q 590 872 583 881 q 596 850 596 863 q 588 825 594 829 q 561 821 581 821 q 501 806 521 821 q 477 770 482 792 q 471 714 472 749 l 471 522 q 614 535 550 535 q 786 499 715 535 q 892 402 857 463 q 928 267 928 342 q 874 110 928 169 q 738 25 819 50 q 571 0 657 0 l 400 0 q 233 -4 324 0 m 558 56 q 717 104 660 57 q 774 265 774 151 q 713 422 774 369 q 558 474 653 474 q 471 465 504 474 l 471 165 q 478 95 471 118 q 504 64 486 72 q 558 56 522 56 z "},"Ы":{"ha":1240,"x_min":60,"x_max":1182,"o":"m 85 -4 q 66 5 72 -4 q 60 26 60 14 q 67 51 60 47 q 94 56 75 56 q 154 70 135 56 q 178 106 174 85 q 185 163 183 128 l 185 714 q 178 770 183 749 q 154 806 174 792 q 94 821 135 821 l 86 821 q 66 826 72 821 q 60 850 60 831 q 66 872 60 863 q 85 881 72 882 q 249 876 144 876 l 332 878 q 422 881 390 881 q 441 872 435 881 q 447 850 447 863 q 440 825 447 829 q 413 821 432 821 q 353 806 372 821 q 328 770 333 792 q 322 714 324 749 l 322 522 q 465 535 401 535 q 638 499 567 535 q 744 402 708 463 q 779 267 779 342 q 725 110 779 169 q 590 25 671 50 q 421 0 508 0 l 250 0 l 171 -1 q 85 -4 115 -4 m 819 -4 q 801 5 807 -4 q 794 26 794 14 q 803 51 796 47 q 829 56 811 56 q 889 70 869 56 q 913 106 908 85 q 919 163 918 128 l 919 714 q 913 770 918 749 q 889 806 908 792 q 829 821 869 821 l 821 821 q 802 826 808 821 q 794 850 796 831 q 801 872 794 863 q 819 881 807 881 q 992 876 910 876 q 1157 881 1068 876 q 1176 872 1169 881 q 1182 850 1182 863 q 1174 825 1181 829 q 1147 821 1167 821 q 1088 806 1107 821 q 1063 770 1068 792 q 1057 714 1058 749 l 1057 163 q 1063 106 1058 128 q 1088 70 1068 85 q 1147 56 1107 56 l 1156 56 q 1175 51 1169 56 q 1182 26 1181 46 q 1176 5 1182 14 q 1157 -4 1169 -4 q 993 0 1068 0 q 819 -4 910 0 m 403 56 q 567 103 508 56 q 625 265 625 150 q 561 421 625 368 q 410 474 497 474 q 322 465 356 474 l 322 165 q 338 77 321 99 q 403 56 356 56 z "},"Љ":{"ha":1282,"x_min":38,"x_max":1231,"o":"m 1231 267 q 1144 73 1231 138 q 936 -3 1058 8 q 925 -4 933 -4 l 917 -4 l 874 -4 l 874 -1 q 760 0 835 0 l 676 -1 q 588 -4 618 -4 q 569 5 575 -4 q 563 26 563 14 q 570 51 563 47 q 597 56 578 56 q 657 70 638 56 q 681 106 676 85 q 688 163 686 128 l 688 817 l 549 817 q 507 811 521 817 q 484 785 493 806 q 471 724 475 765 q 420 320 446 469 q 342 78 394 171 q 200 -14 290 -14 q 81 23 124 -14 q 38 115 38 60 q 66 190 38 161 q 138 219 94 219 q 163 215 153 219 q 176 207 174 211 q 169 189 176 203 q 161 156 161 175 q 219 101 161 101 q 303 174 271 101 q 356 372 336 247 q 397 714 375 496 q 399 744 399 725 q 380 804 399 788 q 313 821 361 821 l 304 821 q 284 826 290 821 q 278 850 278 831 q 284 872 278 863 q 303 881 290 882 q 467 876 363 876 l 761 876 l 840 878 q 925 881 893 881 q 944 872 938 881 q 950 850 950 863 q 942 825 950 829 q 915 821 935 821 q 844 794 864 821 q 825 714 825 768 l 825 528 q 931 535 888 535 q 1094 499 1026 535 q 1197 402 1163 463 q 1231 267 1231 342 m 903 56 q 1031 108 985 60 q 1076 265 1076 157 q 1017 421 1076 368 q 875 474 957 474 q 825 472 842 474 l 825 163 q 831 109 826 129 q 851 74 835 89 q 903 56 868 58 z "},"Њ":{"ha":1361,"x_min":60,"x_max":1310,"o":"m 85 -4 q 66 5 72 -4 q 60 26 60 14 q 67 51 60 47 q 94 56 75 56 q 154 70 135 56 q 178 106 174 85 q 185 163 183 128 l 185 714 q 178 770 183 749 q 154 806 174 792 q 94 821 135 821 l 86 821 q 66 826 72 821 q 60 850 60 831 q 66 872 60 863 q 85 881 72 882 q 249 876 144 876 l 332 878 q 422 881 390 881 q 441 872 435 881 q 447 850 447 863 q 440 825 447 829 q 413 821 432 821 q 353 806 372 821 q 328 770 333 792 q 322 714 324 749 l 322 468 l 731 468 l 731 714 q 724 770 729 749 q 700 806 719 792 q 640 821 681 821 l 632 821 q 612 826 618 821 q 604 850 606 831 q 611 872 604 863 q 629 881 618 881 q 803 876 718 876 q 968 881 879 876 q 987 872 981 881 q 993 850 993 863 q 984 825 992 829 q 958 821 976 821 q 898 806 918 821 q 873 770 878 792 q 867 714 868 749 l 867 522 q 1010 535 946 535 q 1174 499 1106 535 q 1276 402 1242 463 q 1310 267 1310 342 q 1258 110 1310 169 q 1127 25 1206 50 q 965 0 1049 0 l 801 0 q 629 -4 719 0 q 611 5 618 -4 q 604 26 604 14 q 613 51 606 47 q 640 56 621 56 q 700 70 681 56 q 724 106 719 85 q 731 163 729 128 l 731 408 l 322 408 l 322 163 q 328 106 324 128 q 353 70 333 85 q 413 56 372 56 l 421 56 q 441 51 435 56 q 447 26 447 46 q 441 4 447 14 q 422 -4 435 -6 q 250 0 363 0 l 171 -1 q 85 -4 115 -4 m 958 56 q 1104 104 1053 57 q 1156 265 1156 151 q 1096 421 1156 368 q 954 474 1036 474 q 867 465 900 474 l 867 163 q 873 106 868 128 q 898 70 878 85 q 958 56 918 56 z "},"Ѕ":{"ha":757,"x_min":68,"x_max":693,"o":"m 368 -28 q 145 23 222 -28 q 68 172 68 74 q 102 255 68 222 q 190 288 136 288 q 239 272 222 286 q 256 244 256 257 q 242 235 256 243 q 217 210 228 226 q 206 164 206 193 q 245 63 206 99 q 368 28 285 28 q 468 50 425 28 q 534 109 511 72 q 557 186 557 146 q 528 272 557 236 q 458 333 500 308 q 344 389 417 357 q 210 457 261 426 q 122 538 158 488 q 86 664 86 589 q 169 844 86 785 q 386 904 251 904 q 570 860 492 904 q 649 729 649 815 q 615 647 649 679 q 526 614 581 614 q 478 630 494 615 q 461 657 461 644 q 480 667 461 658 q 513 692 499 675 q 528 738 528 708 q 488 818 528 789 q 388 847 449 847 q 259 808 303 847 q 215 710 215 768 q 242 628 215 661 q 326 564 268 596 q 429 514 374 539 q 570 440 518 474 q 658 353 622 407 q 693 218 693 299 q 649 92 693 149 q 531 4 606 36 q 368 -28 457 -28 z "},"Є":{"ha":888,"x_min":68,"x_max":839,"o":"m 817 176 q 839 146 839 161 q 833 132 839 138 q 734 31 781 65 q 633 -15 688 -3 q 497 -28 579 -28 q 281 28 379 -28 q 126 189 183 85 q 68 432 68 293 q 124 679 68 572 q 282 845 179 786 q 522 904 385 904 q 735 856 642 904 q 828 708 828 808 q 790 602 829 646 q 686 558 751 558 q 644 567 661 558 q 618 589 626 576 q 611 608 610 601 q 631 624 611 611 q 665 658 650 636 q 681 713 681 681 q 638 812 681 775 q 521 849 596 849 q 375 804 439 849 q 273 674 311 760 q 231 468 235 588 l 571 468 q 586 458 581 467 q 592 436 592 449 q 586 417 592 425 q 571 408 581 408 l 232 408 q 278 221 238 304 q 389 89 319 138 q 547 40 458 40 q 676 72 622 40 q 772 172 729 103 q 792 185 779 185 q 817 176 803 185 z "},"Э":{"ha":935,"x_min":85,"x_max":846,"o":"m 393 -28 q 206 6 300 -28 q 88 133 113 39 q 85 164 85 153 q 122 269 85 225 q 221 311 158 313 q 277 294 257 310 q 299 264 297 278 q 281 247 299 261 q 248 213 263 233 q 233 163 233 192 q 256 88 232 119 q 320 42 281 57 q 403 28 360 26 q 573 88 513 33 q 656 222 633 142 q 682 408 678 301 l 340 408 q 325 417 331 408 q 319 436 319 425 q 325 458 319 449 q 340 468 331 467 l 682 468 q 607 739 679 640 q 417 838 535 838 q 265 785 322 838 q 193 629 208 732 q 178 610 192 617 q 150 604 165 604 q 124 612 136 604 q 111 632 111 619 l 126 838 q 407 904 269 906 q 661 837 563 904 q 803 669 760 769 q 846 467 846 569 q 772 165 846 275 q 595 13 697 54 q 393 -28 493 -28 z "},"І":{"ha":506,"x_min":58,"x_max":447,"o":"m 83 -4 q 65 5 71 -4 q 58 26 58 14 q 67 51 60 47 q 93 56 75 56 q 153 70 133 56 q 178 106 172 85 q 185 163 183 126 l 185 714 q 178 771 183 750 q 153 806 172 792 q 93 821 133 821 l 85 821 q 66 826 72 821 q 58 850 60 831 q 65 872 58 863 q 83 881 71 881 q 249 876 174 876 q 422 881 332 876 q 441 872 435 881 q 447 850 447 863 q 438 825 446 829 q 411 821 431 821 q 351 806 371 821 q 327 770 332 792 q 321 714 322 749 l 321 163 q 327 106 322 128 q 351 70 332 85 q 411 56 371 56 l 419 56 q 440 51 433 56 q 447 26 446 46 q 441 5 447 14 q 422 -4 435 -4 q 250 0 333 0 q 83 -4 174 0 z "},"Ї":{"ha":506,"x_min":33,"x_max":471,"o":"m 83 -4 q 65 5 71 -4 q 58 26 58 14 q 67 51 60 47 q 93 56 75 56 q 153 70 133 56 q 178 106 172 85 q 185 163 183 126 l 185 714 q 178 771 183 750 q 153 806 172 792 q 93 821 133 821 l 85 821 q 66 826 72 821 q 58 850 60 831 q 65 872 58 863 q 83 881 71 881 q 249 876 174 876 q 422 881 332 876 q 441 872 435 881 q 447 850 447 863 q 438 825 446 829 q 411 821 431 821 q 351 806 371 821 q 327 770 332 792 q 321 714 322 749 l 321 163 q 327 106 322 128 q 351 70 332 85 q 411 56 371 56 l 419 56 q 440 51 433 56 q 447 26 446 46 q 441 5 447 14 q 422 -4 435 -4 q 250 0 333 0 q 83 -4 174 0 m 119 988 q 59 1013 85 988 q 33 1071 33 1038 q 58 1131 33 1107 q 121 1154 83 1154 q 181 1131 157 1154 q 204 1071 204 1107 q 180 1013 204 1038 q 119 988 156 988 m 386 988 q 326 1013 351 988 q 300 1071 300 1038 q 325 1131 300 1107 q 388 1154 350 1154 q 447 1131 424 1154 q 471 1071 471 1107 q 447 1013 471 1038 q 386 988 422 988 z "},"Ј":{"ha":501,"x_min":21,"x_max":454,"o":"m 49 -267 q 22 -243 29 -267 q 21 -231 21 -239 q 36 -208 21 -214 q 139 -125 106 -179 q 182 9 172 -71 q 192 225 192 89 l 192 714 q 185 770 190 749 q 161 806 181 792 q 101 821 142 821 l 93 821 q 73 826 79 821 q 65 850 67 831 q 72 872 65 863 q 90 881 79 881 q 256 876 179 876 q 429 881 340 876 q 448 872 442 881 q 454 850 454 863 q 445 825 453 829 q 418 821 438 821 q 358 806 378 821 q 334 770 339 792 q 328 714 329 749 l 328 178 q 265 -116 328 -1 q 54 -267 201 -231 l 49 -267 z "},"Ћ":{"ha":1115,"x_min":36,"x_max":1053,"o":"m 1025 56 q 1046 51 1039 56 q 1053 26 1053 46 q 1046 4 1053 14 q 1028 -4 1039 -6 q 917 0 988 0 l 863 0 l 779 -1 q 689 -4 721 -4 q 670 5 676 -4 q 664 26 664 14 q 672 51 664 47 q 699 56 679 56 q 758 70 739 56 q 783 106 778 85 q 790 163 789 126 l 790 244 q 742 390 790 344 q 615 436 694 436 q 458 394 544 436 l 458 163 q 465 106 460 128 q 489 70 469 85 q 549 56 508 56 l 557 56 q 576 51 569 56 q 583 26 582 46 q 577 5 583 14 q 558 -4 571 -4 q 394 0 469 0 q 221 -4 310 0 q 202 5 208 -4 q 196 26 196 14 q 204 51 197 47 q 231 56 211 56 q 290 70 271 56 q 315 106 310 85 q 321 163 319 128 l 321 825 l 253 825 q 181 805 206 824 q 142 750 156 786 q 118 644 129 714 q 101 626 117 633 q 69 619 86 619 q 47 627 57 619 q 36 647 36 635 l 40 843 q 78 876 40 876 l 757 876 q 783 869 774 876 q 793 843 792 861 l 799 647 q 788 627 799 635 q 764 619 776 619 q 733 626 747 619 q 717 644 718 633 q 692 750 706 714 q 653 805 679 786 q 581 825 628 824 l 458 825 l 458 454 q 599 501 558 492 q 685 511 639 511 q 864 449 801 511 q 926 260 926 386 l 926 163 q 933 106 928 128 q 957 70 938 85 q 1017 56 976 56 l 1025 56 z "},"Ю":{"ha":1450,"x_min":71,"x_max":1361,"o":"m 942 -28 q 723 32 815 -28 q 581 191 631 92 q 528 408 532 290 l 333 408 l 333 163 q 340 106 335 128 q 364 70 344 85 q 424 56 383 56 l 432 56 q 451 51 444 56 q 458 26 457 46 q 452 5 458 14 q 433 -4 446 -4 q 261 0 343 0 q 94 -4 185 0 q 77 5 83 -4 q 71 26 71 14 q 79 51 72 47 q 106 56 86 56 q 165 70 146 56 q 190 106 185 85 q 196 163 194 128 l 196 714 q 190 770 194 749 q 165 806 185 792 q 106 821 146 821 l 97 821 q 78 826 83 821 q 71 850 72 831 q 77 872 71 863 q 94 881 83 881 q 260 876 183 876 q 433 881 343 876 q 452 872 446 881 q 458 850 458 863 q 449 825 457 829 q 424 821 442 821 q 364 806 383 821 q 340 770 344 792 q 333 714 335 749 l 333 468 l 529 468 q 598 701 538 603 q 750 852 658 800 q 942 904 842 904 q 1170 842 1075 904 q 1313 676 1265 779 q 1361 451 1361 572 q 1301 196 1361 304 q 1144 30 1240 88 q 942 -28 1047 -28 m 940 33 q 1137 149 1078 33 q 1196 451 1196 264 q 1135 735 1196 625 q 940 844 1075 844 q 692 431 692 844 q 750 144 692 254 q 940 33 808 33 z "},"Я":{"ha":1017,"x_min":31,"x_max":946,"o":"m 167 -14 q 81 8 121 -14 q 31 74 40 29 l 31 79 q 36 98 31 90 q 51 106 42 106 q 64 100 58 106 q 78 83 69 94 q 101 58 90 67 q 131 49 111 49 q 200 84 171 49 q 269 194 229 119 l 307 260 q 379 354 340 315 q 469 413 418 393 l 469 417 q 264 489 354 419 q 194 642 194 549 q 293 825 194 772 q 510 878 392 878 l 539 876 l 754 876 q 921 881 832 876 q 940 872 933 881 q 946 850 946 863 q 937 825 944 829 q 910 821 929 821 q 850 806 869 821 q 826 770 831 792 q 819 714 821 749 l 819 163 q 826 106 821 128 q 850 70 831 85 q 910 56 869 56 l 918 56 q 938 51 932 56 q 946 26 944 46 q 940 5 946 14 q 921 -4 933 -4 q 756 0 832 0 q 582 -4 672 0 q 563 5 569 -4 q 557 26 557 14 q 566 51 558 47 q 592 56 574 56 q 651 70 632 56 q 676 106 671 85 q 683 163 682 126 l 683 396 l 650 396 q 560 372 597 396 q 499 313 524 349 q 446 218 475 276 q 378 95 407 140 q 298 18 350 50 q 167 -14 246 -14 m 683 447 l 683 714 q 675 786 683 764 q 646 815 667 808 q 582 821 625 821 q 410 772 471 821 q 350 632 350 722 q 430 481 350 514 q 613 447 510 447 l 683 447 z "},"Ђ":{"ha":1018,"x_min":36,"x_max":940,"o":"m 669 519 q 864 456 788 519 q 940 279 940 392 q 905 138 940 203 q 806 35 869 74 q 663 -4 743 -4 q 642 0 649 -4 q 636 17 636 4 q 641 38 636 32 q 660 47 646 44 q 755 123 724 63 q 786 265 786 183 q 739 410 786 372 q 610 449 692 449 q 458 422 538 449 l 458 163 q 470 82 460 108 q 521 56 481 56 l 529 56 q 548 51 542 56 q 556 26 554 46 q 549 5 556 14 q 531 -4 543 -4 q 394 0 456 0 q 221 -4 310 0 q 202 5 208 -4 q 196 26 196 14 q 204 51 197 47 q 231 56 211 56 q 290 70 271 56 q 315 106 310 85 q 321 163 319 128 l 321 825 l 253 825 q 181 805 206 824 q 142 750 156 786 q 118 644 129 714 q 101 626 117 633 q 69 619 86 619 q 47 627 57 619 q 36 647 36 635 l 40 843 q 78 876 40 876 l 757 876 q 783 869 774 876 q 793 843 792 861 l 799 675 q 788 655 799 663 q 764 647 776 647 q 733 654 747 647 q 717 672 718 661 q 692 762 706 731 q 653 808 679 793 q 581 825 628 824 l 458 825 l 458 469 q 669 519 565 519 z "},"Ѣ":{"ha":994,"x_min":36,"x_max":943,"o":"m 601 535 q 788 499 711 535 q 904 402 865 463 q 943 267 943 342 q 885 110 943 169 q 739 25 826 50 q 557 0 651 0 l 386 0 q 221 -4 310 0 q 202 5 208 -4 q 196 26 196 14 q 204 51 197 47 q 231 56 211 56 q 290 70 271 56 q 315 106 310 85 q 321 163 319 128 l 321 769 l 253 769 q 181 749 206 768 q 142 694 156 731 q 118 589 129 658 q 101 571 117 578 q 69 564 86 564 q 47 572 57 564 q 36 592 36 579 l 40 788 q 78 821 40 821 l 321 821 l 321 839 q 315 895 319 874 q 290 931 310 917 q 231 946 271 946 l 222 946 q 202 951 208 946 q 196 975 196 956 q 202 997 196 988 q 221 1006 208 1007 q 385 1001 281 1001 l 468 1003 q 558 1006 526 1006 q 577 997 571 1006 q 583 975 583 988 q 576 950 583 954 q 549 946 568 946 q 489 931 508 946 q 465 895 469 917 q 458 839 460 874 l 458 821 l 757 821 q 783 813 774 821 q 793 788 792 806 l 799 619 q 788 599 799 607 q 764 592 776 592 q 733 599 747 592 q 717 617 718 606 q 694 706 707 675 q 654 752 681 736 q 581 769 628 768 l 458 769 l 458 522 q 601 535 536 535 m 546 56 q 724 104 660 57 q 789 265 789 151 q 717 421 789 368 q 546 474 644 474 q 458 465 492 474 l 458 165 q 465 95 457 118 q 492 64 474 72 q 546 56 510 56 z "},"Ѫ":{"ha":1296,"x_min":26,"x_max":1275,"o":"m 1240 56 q 1268 50 1261 56 q 1275 26 1275 44 q 1269 4 1275 13 q 1250 -4 1263 -4 l 1189 -1 l 1131 0 l 1042 0 l 939 278 q 860 379 914 346 q 724 417 806 413 q 722 394 722 410 l 722 163 q 728 106 724 128 q 753 70 733 85 q 814 56 774 56 l 822 56 q 841 51 835 56 q 849 26 847 46 q 842 5 849 14 q 824 -4 836 -4 q 657 0 735 0 q 485 -4 575 0 q 467 5 474 -4 q 460 26 460 14 q 469 51 461 47 q 496 56 476 56 q 570 83 554 56 q 586 163 586 111 l 586 417 q 442 381 490 414 q 368 276 393 349 l 275 0 l 172 0 l 113 -1 l 51 -4 q 26 26 26 -4 q 34 50 26 43 q 61 57 42 57 q 135 81 106 57 q 185 163 165 104 l 228 289 q 341 426 260 385 q 557 468 422 468 l 574 468 q 432 678 546 521 l 406 715 q 343 798 363 778 q 290 824 324 818 q 263 834 271 826 q 256 856 256 842 q 297 883 256 883 q 353 881 311 883 q 454 876 432 876 l 933 876 q 1026 879 985 876 q 1060 881 1039 881 q 1086 851 1086 881 q 1050 821 1086 821 q 918 726 986 821 l 751 493 q 736 468 740 476 l 739 468 q 952 426 860 468 q 1079 289 1044 383 l 1126 163 q 1174 80 1147 104 q 1240 56 1201 56 m 501 821 q 564 739 529 796 l 703 526 l 911 821 l 501 821 z "},"Ѳ":{"ha":1063,"x_min":86,"x_max":976,"o":"m 529 904 q 765 841 663 904 q 922 674 867 778 q 976 451 976 571 q 910 197 976 306 q 739 30 843 88 q 529 -28 635 -28 q 297 35 397 -28 q 141 203 196 99 q 86 426 86 307 q 152 681 86 572 q 321 847 218 789 q 529 904 424 904 m 528 844 q 323 733 393 844 q 249 450 253 622 q 340 510 290 488 q 440 533 390 533 q 506 524 474 533 q 579 496 538 514 q 656 467 629 475 q 715 458 683 458 q 811 469 778 458 q 776 658 808 574 q 680 794 743 743 q 528 844 617 844 m 528 33 q 732 142 660 33 q 811 419 804 251 q 681 379 747 379 q 619 388 647 379 q 538 418 590 397 q 501 432 531 421 q 444 449 471 443 q 396 454 418 454 q 249 406 304 454 q 326 139 254 244 q 528 33 397 33 z "},"Ѵ":{"ha":1039,"x_min":61,"x_max":1010,"o":"m 906 892 q 983 864 957 892 q 1010 788 1010 836 q 986 723 1010 749 q 935 697 963 697 q 914 707 917 697 q 919 719 914 711 q 925 740 925 726 q 913 768 925 757 q 879 779 901 779 q 790 693 821 779 l 536 -14 l 471 -14 q 339 349 429 100 q 207 708 249 597 q 161 792 183 768 q 96 824 139 815 q 79 827 90 825 q 65 835 68 829 q 61 856 61 842 q 70 878 61 872 q 99 883 79 883 q 257 851 203 883 q 343 738 311 819 l 544 196 l 549 196 l 740 739 q 809 856 769 819 q 906 892 849 892 z "},"Ғ":{"ha":790,"x_min":79,"x_max":738,"o":"m 738 647 q 727 627 738 635 q 704 619 717 619 q 673 626 688 619 q 657 644 658 633 q 633 749 646 713 q 594 802 619 785 q 521 821 568 819 l 342 821 l 342 471 l 492 471 q 515 463 507 471 q 524 440 524 454 q 515 418 524 426 q 492 410 507 410 l 342 410 l 342 163 q 348 106 343 128 q 372 70 353 85 q 432 56 392 56 l 440 56 q 459 51 453 56 q 467 26 465 46 q 460 5 467 14 q 442 -4 454 -4 q 269 0 353 0 q 103 -4 193 0 q 85 5 92 -4 q 79 26 79 14 q 88 51 81 47 q 114 56 94 56 q 174 70 154 56 q 198 106 193 85 q 204 163 203 128 l 204 410 l 118 410 q 94 418 103 410 q 86 440 86 426 q 94 463 86 454 q 118 471 103 471 l 204 471 l 204 714 q 198 770 203 749 q 174 806 193 792 q 114 821 154 821 l 106 821 q 86 826 92 821 q 79 850 81 831 q 85 872 79 863 q 103 881 92 881 q 268 876 193 876 l 697 876 q 733 843 733 876 l 738 647 z "},"Ҕ":{"ha":853,"x_min":60,"x_max":772,"o":"m 501 492 q 640 456 578 492 q 737 354 701 419 q 772 207 772 289 q 732 28 772 104 q 628 -89 692 -49 q 494 -129 564 -129 q 474 -125 481 -129 q 468 -108 468 -121 q 474 -86 468 -92 q 492 -78 479 -81 q 590 6 557 -67 q 624 194 624 78 q 571 364 624 307 q 442 421 518 421 q 322 404 386 421 l 322 163 q 328 106 324 128 q 353 70 333 85 q 413 56 372 56 l 421 56 q 440 51 433 56 q 447 26 446 46 q 441 5 447 14 q 422 -4 435 -4 q 250 0 333 0 q 83 -4 174 0 q 66 5 72 -4 q 60 26 60 14 q 68 51 61 47 q 94 56 75 56 q 154 70 135 56 q 178 106 174 85 q 185 163 183 128 l 185 714 q 178 770 183 749 q 154 806 174 792 q 94 821 135 821 l 86 821 q 67 826 72 821 q 60 850 61 831 q 66 872 60 863 q 83 881 72 881 q 249 876 174 876 l 678 876 q 714 843 714 876 l 718 647 q 708 627 718 635 q 685 619 697 619 q 653 626 668 619 q 638 644 639 633 q 613 749 626 713 q 574 802 600 785 q 501 821 549 819 l 322 821 l 322 456 q 501 492 411 492 z "},"Җ":{"ha":1556,"x_min":64,"x_max":1493,"o":"m 1463 67 q 1486 57 1479 67 q 1490 33 1493 47 q 1456 -217 1471 -135 q 1417 -247 1449 -247 q 1364 -199 1361 -247 l 1365 -157 q 1299 -8 1365 -22 q 1213 40 1249 6 q 1154 116 1176 74 q 1104 224 1132 158 q 1049 338 1074 296 q 983 410 1024 381 q 883 439 943 439 l 851 439 l 851 163 q 858 106 853 128 q 883 70 863 85 q 943 56 903 56 l 951 56 q 970 51 964 56 q 978 26 976 46 q 972 5 978 14 q 953 -4 965 -4 q 786 0 864 0 q 614 -4 704 0 q 596 5 603 -4 q 589 26 589 14 q 598 51 590 47 q 625 56 606 56 q 685 70 665 56 q 709 106 704 85 q 715 163 714 128 l 715 439 l 683 439 q 583 410 624 439 q 518 339 543 382 q 464 225 493 296 q 401 99 429 146 q 324 19 372 51 q 200 -14 275 -14 q 114 8 154 -14 q 64 74 74 29 l 64 79 q 69 98 64 90 q 85 106 75 106 q 97 100 92 106 q 111 83 103 94 q 134 58 124 67 q 164 49 144 49 q 231 86 204 49 q 294 208 257 124 q 363 344 332 292 q 447 434 394 396 q 572 472 499 472 l 572 476 q 502 515 535 483 q 444 597 469 546 l 429 632 q 377 738 404 699 q 306 778 350 778 q 256 751 275 778 q 238 685 238 724 q 228 678 238 678 q 192 690 213 678 q 156 726 171 703 q 140 781 140 750 q 178 867 140 828 q 278 906 215 906 q 366 869 329 903 q 426 792 403 836 q 476 682 449 749 q 508 608 499 628 q 654 494 567 494 l 715 494 l 715 714 q 709 770 714 749 q 685 806 704 792 q 625 821 665 821 l 617 821 q 597 826 603 821 q 589 850 590 831 q 596 872 589 863 q 614 881 603 881 q 788 876 703 876 q 953 881 864 876 q 972 872 965 881 q 978 850 978 863 q 969 825 976 829 q 943 821 961 821 q 883 806 903 821 q 858 770 863 792 q 851 714 853 749 l 851 494 l 913 494 q 1058 608 1000 494 q 1090 682 1068 628 q 1141 792 1118 749 q 1201 869 1164 836 q 1289 906 1238 903 q 1389 867 1351 906 q 1426 781 1426 828 q 1411 726 1426 750 q 1375 690 1396 703 q 1339 678 1354 678 q 1329 685 1329 678 q 1310 751 1329 724 q 1261 778 1292 778 q 1190 738 1217 778 q 1138 632 1163 699 l 1122 597 q 1065 515 1097 546 q 994 476 1032 483 l 994 472 q 1122 434 1069 472 q 1204 344 1174 396 q 1272 210 1235 292 q 1335 92 1308 129 q 1400 54 1361 54 q 1429 60 1413 54 q 1463 67 1446 67 z "},"Ҙ":{"ha":822,"x_min":88,"x_max":746,"o":"m 746 242 q 665 58 746 126 q 458 -25 583 -11 l 443 -214 q 397 -250 442 -250 q 351 -218 354 -250 q 333 -72 346 -118 q 300 -21 321 -26 l 303 -21 q 146 44 204 -4 q 88 172 88 92 q 124 270 88 229 q 218 311 161 311 q 276 294 254 311 q 299 264 297 278 q 281 247 299 261 q 248 213 263 233 q 233 163 233 192 q 278 63 231 97 q 403 28 326 28 q 543 82 490 28 q 596 238 596 136 q 535 378 596 322 q 383 436 474 433 l 332 436 q 317 444 322 436 q 311 464 311 453 q 317 485 311 476 q 332 496 322 494 l 383 496 q 553 664 553 508 q 512 794 553 740 q 393 847 471 847 q 272 794 317 847 q 204 635 228 740 q 188 618 201 624 q 157 615 174 613 q 133 627 144 618 q 124 649 122 636 l 140 851 q 194 867 158 856 q 313 895 264 886 q 428 904 363 904 q 572 874 510 904 q 668 793 635 844 q 701 679 701 742 q 653 550 701 601 q 515 474 604 499 l 515 469 q 689 389 632 451 q 746 242 746 326 z "},"Қ":{"ha":1029,"x_min":71,"x_max":997,"o":"m 963 67 q 993 33 997 67 l 989 -6 q 958 -217 972 -149 q 919 -247 951 -247 q 878 -234 892 -247 q 867 -199 864 -221 q 868 -153 868 -183 q 801 -8 868 -22 q 709 37 747 3 q 647 114 671 71 q 593 225 622 157 q 535 340 561 297 q 469 410 510 382 q 369 439 429 439 l 333 439 l 333 163 q 340 106 335 128 q 364 70 344 85 q 424 56 383 56 l 432 56 q 452 51 446 56 q 460 26 458 46 q 453 5 460 14 q 435 -4 447 -4 q 263 0 346 0 q 96 -4 186 0 q 77 5 83 -4 q 71 26 71 14 q 80 51 72 47 q 106 56 88 56 q 165 70 146 56 q 190 106 185 85 q 197 163 196 126 l 197 714 q 190 771 196 750 q 165 806 185 792 q 106 821 146 821 l 97 821 q 78 826 85 821 q 71 850 72 831 q 77 872 71 863 q 96 881 83 881 q 261 876 185 876 q 435 881 344 876 q 453 872 447 881 q 460 850 460 863 q 451 825 458 829 q 424 821 443 821 q 364 806 383 821 q 340 770 344 792 q 333 714 335 749 l 333 494 l 399 494 q 485 522 443 494 q 558 608 528 550 q 590 682 568 628 q 641 792 618 749 q 701 869 664 836 q 789 906 738 903 q 889 867 851 906 q 926 781 926 828 q 910 726 926 750 q 874 690 894 703 q 839 678 853 678 q 828 685 828 678 q 810 749 828 721 q 765 778 792 778 q 691 740 718 778 q 638 636 664 703 q 621 597 626 608 q 564 515 597 547 q 494 476 531 483 l 494 472 q 626 432 572 472 q 712 338 679 392 q 782 199 744 283 q 838 89 815 124 q 893 54 861 54 q 933 61 906 54 q 963 67 953 67 z "},"Ҝ":{"ha":1039,"x_min":71,"x_max":1004,"o":"m 979 106 q 998 96 992 106 q 1001 74 1004 86 q 952 8 993 29 q 865 -14 911 -14 q 742 19 792 -14 q 663 99 693 51 q 597 225 633 146 q 539 337 564 296 q 479 404 514 378 l 479 300 q 471 276 479 285 q 449 268 463 268 q 426 277 435 268 q 418 300 418 286 l 418 433 q 369 439 397 439 l 333 439 l 333 163 q 340 106 335 128 q 364 70 344 85 q 424 56 383 56 l 432 56 q 452 51 446 56 q 460 26 458 46 q 453 5 460 14 q 435 -4 447 -4 q 263 0 346 0 q 96 -4 186 0 q 77 5 83 -4 q 71 26 71 14 q 80 51 72 47 q 106 56 88 56 q 165 70 146 56 q 190 106 185 85 q 197 163 196 126 l 197 714 q 190 771 196 750 q 165 806 185 792 q 106 821 146 821 l 97 821 q 78 826 85 821 q 71 850 72 831 q 77 872 71 863 q 96 881 83 881 q 261 876 185 876 q 435 881 344 876 q 453 872 447 881 q 460 850 460 863 q 451 825 458 829 q 424 821 443 821 q 364 806 383 821 q 340 770 344 792 q 333 714 335 749 l 333 494 l 399 494 q 418 496 411 494 l 418 604 q 426 627 418 618 q 449 636 435 636 q 471 628 463 636 q 479 604 479 619 l 479 518 q 558 608 526 547 q 590 682 568 628 q 641 792 618 749 q 701 869 664 836 q 789 906 738 903 q 889 867 851 906 q 926 781 926 828 q 910 726 926 750 q 874 690 894 703 q 839 678 853 678 q 828 685 828 678 q 810 749 828 721 q 765 778 792 778 q 691 740 718 778 q 638 636 664 703 q 621 597 626 608 q 564 515 597 547 q 494 476 531 483 l 494 472 q 619 434 568 472 q 703 342 671 396 q 771 208 735 289 q 835 87 808 125 q 903 49 863 49 q 933 58 921 49 q 956 85 944 68 q 978 106 968 106 l 979 106 z "},"Ҡ":{"ha":1199,"x_min":36,"x_max":1181,"o":"m 1042 -14 q 918 19 968 -14 q 838 99 868 51 q 774 225 808 147 q 715 340 740 297 q 647 410 689 382 q 546 439 606 439 l 510 439 l 510 163 q 516 106 511 128 q 540 70 521 85 q 600 56 560 56 l 608 56 q 628 51 622 56 q 636 26 635 46 q 630 5 636 14 q 611 -4 624 -4 q 439 0 522 0 q 272 -4 363 0 q 253 5 260 -4 q 247 26 247 14 q 256 51 249 47 q 282 56 264 56 q 342 70 322 56 q 367 106 361 85 q 374 163 372 126 l 374 714 q 296 825 368 825 l 253 825 q 181 806 206 825 q 142 751 156 788 q 118 644 129 715 q 71 619 114 619 q 36 647 36 619 l 40 843 q 78 876 40 876 l 438 876 q 611 881 522 876 q 630 872 624 881 q 636 850 636 863 q 627 825 635 829 q 600 821 619 821 q 540 806 560 821 q 516 770 521 792 q 510 714 511 749 l 510 494 l 575 494 q 662 522 619 494 q 735 608 704 550 q 767 682 744 628 q 817 792 794 749 q 877 869 840 836 q 965 906 914 903 q 1065 867 1028 906 q 1103 781 1103 828 q 1087 726 1103 750 q 1050 690 1071 703 q 1015 678 1029 678 q 1004 685 1004 678 q 986 749 1004 721 q 942 778 968 778 q 867 740 894 778 q 814 636 840 703 q 797 597 803 608 q 740 515 774 547 q 671 476 707 483 l 671 472 q 796 434 744 472 q 879 342 847 396 q 947 208 911 289 q 1012 87 985 125 q 1079 49 1039 49 q 1109 58 1097 49 q 1132 85 1121 68 q 1154 106 1144 106 l 1156 106 q 1174 96 1168 106 q 1178 74 1181 86 q 1128 8 1169 29 q 1042 -14 1088 -14 z "},"Ң":{"ha":1079,"x_min":60,"x_max":1053,"o":"m 1007 60 q 1053 15 1053 60 l 1053 -214 q 1040 -239 1053 -229 q 1013 -249 1028 -249 q 961 -218 967 -249 q 933 -86 947 -129 q 890 -22 919 -43 q 804 0 861 -1 q 657 -4 735 0 q 639 5 646 -4 q 632 26 632 14 q 641 51 633 47 q 668 56 649 56 q 728 70 708 56 q 752 106 747 85 q 758 163 757 128 l 758 408 l 322 408 l 322 163 q 328 106 324 128 q 353 70 333 85 q 413 56 372 56 l 421 56 q 440 51 435 56 q 447 26 446 46 q 441 5 447 14 q 422 -4 435 -4 q 250 0 333 0 q 85 -4 175 0 q 66 5 72 -4 q 60 26 60 14 q 68 51 61 47 q 94 56 75 56 q 154 70 135 56 q 178 106 174 85 q 185 163 183 128 l 185 714 q 178 770 183 749 q 154 806 174 792 q 94 821 135 821 l 86 821 q 67 826 72 821 q 60 850 61 831 q 66 872 60 863 q 85 881 72 881 q 249 876 175 876 q 422 881 332 876 q 441 872 435 881 q 447 850 447 863 q 439 825 446 829 q 413 821 432 821 q 353 806 372 821 q 328 770 333 792 q 322 714 324 749 l 322 468 l 758 468 l 758 714 q 752 770 757 749 q 728 806 747 792 q 668 821 708 821 l 660 821 q 640 826 646 821 q 632 850 633 831 q 639 872 632 863 q 657 881 646 881 q 831 876 747 876 q 996 881 907 876 q 1015 872 1008 881 q 1021 850 1021 863 q 1012 825 1019 829 q 986 821 1004 821 q 926 806 946 821 q 901 770 906 792 q 894 714 896 749 l 894 192 q 901 112 894 138 q 931 73 907 86 q 1007 60 954 60 z "},"Ҫ":{"ha":938,"x_min":89,"x_max":860,"o":"m 838 176 q 860 146 860 161 q 854 132 860 138 q 734 17 790 51 q 599 -25 678 -17 l 583 -214 q 538 -250 582 -250 q 492 -218 494 -250 q 474 -74 485 -121 q 443 -22 463 -28 q 263 54 343 -6 q 135 211 182 114 q 89 432 89 308 q 144 679 89 572 q 303 845 200 786 q 543 904 406 904 q 756 856 663 904 q 849 708 849 808 q 811 602 850 646 q 707 558 772 558 q 665 567 682 558 q 639 589 647 576 q 632 608 631 601 q 651 624 632 611 q 686 658 671 636 q 701 713 701 681 q 659 812 701 775 q 542 849 617 849 q 391 801 457 849 q 288 660 325 753 q 251 440 251 568 q 291 238 251 329 q 403 94 331 147 q 568 40 475 40 q 697 72 643 40 q 793 172 750 103 q 813 185 800 185 q 838 176 824 185 z "},"Ү":{"ha":863,"x_min":6,"x_max":876,"o":"m 264 -4 q 245 5 251 -4 q 239 26 239 14 q 248 51 240 47 q 274 56 256 56 q 333 70 314 56 q 358 106 353 85 q 364 163 363 128 l 364 336 q 295 498 364 358 q 183 715 226 638 q 122 790 156 765 q 40 824 89 814 q 24 827 35 825 q 9 835 13 829 q 6 856 6 842 q 15 878 6 872 q 43 883 24 883 q 217 853 154 883 q 328 739 279 824 q 393 607 351 693 q 474 449 454 485 l 478 449 l 632 753 q 644 793 644 781 q 627 815 644 810 q 571 821 610 821 l 563 821 q 543 826 549 821 q 536 850 538 831 q 542 872 536 863 q 560 881 549 881 q 711 876 650 876 q 851 881 763 876 q 870 872 864 881 q 876 850 876 863 q 869 826 875 831 q 850 821 864 821 q 758 799 793 821 q 696 726 724 778 l 539 431 q 522 397 535 422 q 506 349 510 371 q 501 297 501 328 l 501 163 q 508 106 503 128 q 532 70 513 85 q 592 56 551 56 l 600 56 q 619 51 614 56 q 626 26 625 46 q 620 5 626 14 q 603 -4 614 -4 q 436 0 514 0 q 264 -4 354 0 z "},"Ұ":{"ha":863,"x_min":6,"x_max":876,"o":"m 851 881 q 870 872 864 881 q 876 850 876 863 q 869 826 875 831 q 850 821 864 821 q 758 799 793 821 q 696 726 724 778 l 539 431 q 525 403 536 426 q 508 360 514 379 l 604 360 q 628 351 619 360 q 636 329 636 343 q 628 307 636 315 q 604 299 619 299 l 501 299 l 501 297 l 501 163 q 508 106 503 128 q 532 70 513 85 q 592 56 551 56 l 600 56 q 619 51 614 56 q 626 26 625 46 q 620 5 626 14 q 603 -4 614 -4 q 436 0 514 0 q 264 -4 354 0 q 245 5 251 -4 q 239 26 239 14 q 248 51 240 47 q 274 56 256 56 q 333 70 314 56 q 358 106 353 85 q 364 163 363 128 l 364 299 l 258 299 q 235 307 243 299 q 226 329 226 315 q 235 351 226 343 q 258 360 243 360 l 358 360 q 280 531 340 411 q 183 715 219 651 q 122 790 156 765 q 40 824 89 814 q 24 827 35 825 q 9 835 13 829 q 6 856 6 842 q 15 878 6 872 q 43 883 24 883 q 217 853 154 883 q 328 739 279 824 q 393 607 351 693 q 474 449 454 485 l 478 449 l 632 753 q 644 793 644 781 q 627 815 644 810 q 571 821 610 821 l 563 821 q 543 826 549 821 q 536 850 538 831 q 542 872 536 863 q 560 881 549 881 q 711 876 650 876 q 851 881 763 876 z "},"Ҷ":{"ha":982,"x_min":26,"x_max":944,"o":"m 899 60 q 944 15 944 60 l 944 -214 q 932 -239 944 -229 q 904 -249 919 -249 q 853 -218 858 -249 q 825 -86 839 -129 q 782 -22 811 -43 q 696 0 753 -1 q 549 -4 625 0 q 530 5 536 -4 q 524 26 524 14 q 532 51 525 47 q 558 56 539 56 q 618 70 599 56 q 642 106 638 85 q 649 163 647 128 l 649 408 q 508 361 549 371 q 424 351 468 351 q 288 376 350 351 q 196 442 226 401 q 164 504 175 468 q 153 603 153 540 l 153 714 q 147 770 151 749 q 122 806 142 792 q 63 821 103 821 l 54 821 q 34 826 40 821 q 26 850 28 831 q 33 872 26 863 q 51 881 40 881 q 217 876 140 876 q 390 881 300 876 q 409 872 403 881 q 415 850 415 863 q 406 825 414 829 q 381 821 399 821 q 321 806 340 821 q 296 771 301 792 q 289 714 290 750 l 289 618 q 344 472 289 518 q 492 426 400 426 q 649 468 563 426 l 649 714 q 642 770 647 749 q 618 806 638 792 q 558 821 599 821 l 550 821 q 531 826 536 821 q 524 850 525 831 q 530 872 524 863 q 549 881 536 881 q 722 876 639 876 q 886 881 796 876 q 905 872 899 881 q 911 850 911 863 q 902 825 910 829 q 876 821 894 821 q 817 806 836 821 q 792 770 797 792 q 786 714 788 749 l 786 192 q 792 112 786 138 q 822 73 799 86 q 899 60 846 60 z "},"Ҹ":{"ha":982,"x_min":26,"x_max":911,"o":"m 885 56 q 903 51 897 56 q 911 26 910 46 q 905 5 911 14 q 886 -4 899 -4 q 719 0 797 0 q 549 -4 639 0 q 530 5 536 -4 q 524 26 524 14 q 532 51 525 47 q 558 56 539 56 q 618 70 599 56 q 642 106 638 85 q 649 163 647 128 l 649 408 q 538 369 571 379 l 538 263 q 529 239 538 247 q 507 231 521 231 q 485 240 493 231 q 476 263 476 249 l 476 356 q 452 352 463 353 q 435 351 442 351 q 293 375 358 350 q 196 442 228 400 q 164 504 175 468 q 153 603 153 540 l 153 714 q 147 770 151 749 q 122 806 142 792 q 63 821 103 821 l 54 821 q 34 826 40 821 q 26 850 28 831 q 33 872 26 863 q 51 881 40 881 q 217 876 140 876 q 390 881 300 876 q 409 872 403 881 q 415 850 415 863 q 406 825 414 829 q 381 821 399 821 q 321 806 340 821 q 296 771 301 792 q 289 714 290 750 l 289 618 q 340 476 289 522 q 476 426 392 429 l 476 567 q 485 590 476 581 q 507 599 493 599 q 529 590 521 599 q 538 567 538 582 l 538 431 q 649 468 589 438 l 649 714 q 642 770 647 749 q 618 806 638 792 q 558 821 599 821 l 550 821 q 531 826 536 821 q 524 850 525 831 q 530 872 524 863 q 549 881 536 881 q 722 876 639 876 q 886 881 796 876 q 905 872 899 881 q 911 850 911 863 q 902 825 910 829 q 876 821 894 821 q 817 806 836 821 q 792 770 797 792 q 786 714 788 749 l 786 163 q 792 106 788 128 q 817 70 797 85 q 876 56 836 56 l 885 56 z "},"Һ":{"ha":982,"x_min":71,"x_max":956,"o":"m 433 881 q 452 872 446 881 q 458 850 458 863 q 450 825 457 829 q 424 821 443 821 q 364 806 383 821 q 340 770 344 792 q 333 714 335 749 l 333 468 q 474 515 433 506 q 558 525 514 525 q 694 500 632 525 q 786 435 756 475 q 818 372 807 408 q 829 274 829 336 l 829 163 q 835 106 831 128 q 860 70 840 85 q 919 56 879 56 l 928 56 q 948 51 942 56 q 956 26 954 46 q 949 5 956 14 q 931 -4 943 -4 q 765 0 842 0 q 592 -4 682 0 q 573 5 579 -4 q 567 26 567 14 q 576 51 568 47 q 601 56 583 56 q 661 70 642 56 q 686 106 681 85 q 693 163 692 126 l 693 258 q 638 404 693 358 q 490 450 582 450 q 333 408 419 450 l 333 163 q 340 106 335 128 q 364 70 344 85 q 424 56 383 56 l 432 56 q 451 51 446 56 q 458 26 457 46 q 452 5 458 14 q 433 -4 446 -4 q 260 0 343 0 q 96 -4 186 0 q 77 5 83 -4 q 71 26 71 14 q 80 51 72 47 q 106 56 88 56 q 165 70 146 56 q 190 106 185 85 q 196 163 194 128 l 196 714 q 190 770 194 749 q 165 806 185 792 q 106 821 146 821 l 97 821 q 78 826 85 821 q 71 850 72 831 q 77 872 71 863 q 96 881 83 881 q 263 876 185 876 q 433 881 343 876 z "},"Ӏ":{"ha":506,"x_min":58,"x_max":447,"o":"m 83 -4 q 65 5 71 -4 q 58 26 58 14 q 67 51 60 47 q 93 56 75 56 q 153 70 133 56 q 178 106 172 85 q 185 163 183 126 l 185 714 q 178 771 183 750 q 153 806 172 792 q 93 821 133 821 l 85 821 q 66 826 72 821 q 58 850 60 831 q 65 872 58 863 q 83 881 71 881 q 249 876 174 876 q 422 881 332 876 q 441 872 435 881 q 447 850 447 863 q 438 825 446 829 q 411 821 431 821 q 351 806 371 821 q 327 770 332 792 q 321 714 322 749 l 321 163 q 327 106 322 128 q 351 70 332 85 q 411 56 371 56 l 419 56 q 440 51 433 56 q 447 26 446 46 q 441 5 447 14 q 422 -4 435 -4 q 250 0 333 0 q 83 -4 174 0 z "},"Ӂ":{"ha":1481,"x_min":21,"x_max":1460,"o":"m 157 -14 q 71 8 111 -14 q 21 74 31 29 l 21 79 q 26 98 21 90 q 42 106 32 106 q 54 100 49 106 q 68 83 60 94 q 91 58 81 67 q 121 49 101 49 q 188 86 161 49 q 251 208 214 124 q 320 344 289 292 q 403 434 351 396 q 529 472 456 472 l 529 476 q 459 515 492 483 q 401 597 426 546 l 386 632 q 334 738 361 699 q 263 778 307 778 q 213 751 232 778 q 194 685 194 724 q 185 678 194 678 q 149 690 169 678 q 113 726 128 703 q 97 781 97 750 q 135 867 97 828 q 235 906 172 906 q 323 869 286 903 q 383 792 360 836 q 433 682 406 749 q 465 608 456 628 q 611 494 524 494 l 672 494 l 672 714 q 666 770 671 749 q 642 806 661 792 q 582 821 622 821 l 574 821 q 553 826 560 821 q 546 850 547 831 q 553 872 546 863 q 571 881 560 881 q 744 876 660 876 q 910 881 821 876 q 928 872 922 881 q 935 850 935 863 q 926 825 933 829 q 900 821 918 821 q 840 806 860 821 q 815 770 819 792 q 808 714 810 749 l 808 494 l 869 494 q 1015 608 957 494 q 1047 682 1025 628 q 1098 792 1075 749 q 1158 869 1121 836 q 1246 906 1194 903 q 1346 867 1308 906 q 1383 781 1383 828 q 1368 726 1383 750 q 1332 690 1353 703 q 1296 678 1311 678 q 1286 685 1286 678 q 1267 751 1286 724 q 1218 778 1249 778 q 1147 738 1174 778 q 1094 632 1119 699 l 1079 597 q 1022 515 1054 546 q 951 476 989 483 l 951 472 q 1077 434 1025 472 q 1160 344 1129 396 q 1229 208 1192 292 q 1293 86 1267 124 q 1360 49 1319 49 q 1390 58 1379 49 q 1413 85 1401 67 q 1421 97 1414 88 q 1436 106 1428 106 l 1438 106 q 1456 96 1450 106 q 1460 74 1463 86 q 1410 8 1450 29 q 1324 -14 1369 -14 q 1200 19 1249 -14 q 1123 99 1151 51 q 1060 225 1094 146 q 1006 339 1031 296 q 940 410 981 382 q 840 439 900 439 l 808 439 l 808 163 q 815 106 810 128 q 840 70 819 85 q 900 56 860 56 l 908 56 q 927 51 921 56 q 935 26 933 46 q 928 5 935 14 q 910 -4 922 -4 q 743 0 821 0 q 571 -4 661 0 q 553 5 560 -4 q 546 26 546 14 q 555 51 547 47 q 582 56 563 56 q 642 70 622 56 q 666 106 661 85 q 672 163 671 128 l 672 439 l 640 439 q 540 410 581 439 q 475 339 500 382 q 421 225 450 296 q 358 99 386 146 q 281 19 329 51 q 157 -14 232 -14 m 939 1179 q 988 1160 969 1179 q 1007 1108 1007 1142 q 928 999 1007 1038 q 740 961 849 961 q 553 999 632 961 q 474 1108 474 1038 q 492 1160 474 1142 q 542 1179 511 1179 q 590 1160 572 1179 q 626 1101 608 1140 q 672 1033 649 1057 q 740 1008 696 1008 q 808 1033 785 1008 q 854 1101 832 1057 q 890 1160 872 1140 q 939 1179 908 1179 z "},"Ӌ":{"ha":1018,"x_min":28,"x_max":913,"o":"m 886 56 q 905 51 899 56 q 913 26 911 46 q 906 5 913 14 q 888 -4 900 -4 q 732 0 804 0 q 644 -21 674 0 q 599 -85 614 -42 q 571 -218 585 -128 q 519 -249 565 -249 q 492 -239 504 -249 q 479 -214 479 -229 l 479 15 q 525 60 479 60 q 601 73 578 60 q 631 112 625 86 q 638 192 638 138 l 650 168 l 650 408 q 510 361 550 371 q 425 351 469 351 q 290 376 351 351 q 197 442 228 401 q 165 504 176 468 q 154 603 154 540 l 154 714 q 148 770 153 749 q 124 806 143 792 q 64 821 104 821 l 56 821 q 35 826 42 821 q 28 850 29 831 q 35 872 28 863 q 53 881 42 881 q 218 876 143 876 q 392 881 301 876 q 410 872 404 881 q 417 850 417 863 q 408 825 415 829 q 382 821 400 821 q 322 806 342 821 q 297 771 303 792 q 290 714 292 750 l 290 618 q 346 472 290 518 q 493 426 401 426 q 650 468 564 426 l 650 714 q 644 770 649 749 q 619 806 639 792 q 560 821 600 821 l 551 821 q 532 826 538 821 q 525 850 526 831 q 531 872 525 863 q 550 881 538 881 q 724 876 640 876 q 888 881 797 876 q 906 872 900 881 q 913 850 913 863 q 903 825 911 829 q 878 821 896 821 q 818 806 838 821 q 794 770 799 792 q 788 714 789 749 l 788 163 q 794 106 789 128 q 818 70 799 85 q 878 56 838 56 l 886 56 z "},"Ӑ":{"ha":907,"x_min":-17,"x_max":915,"o":"m 590 1175 q 635 1156 618 1175 q 653 1104 653 1138 q 581 995 653 1033 q 413 957 510 957 q 243 995 314 957 q 172 1104 172 1033 q 190 1156 172 1138 q 233 1175 207 1175 q 276 1156 261 1175 q 310 1097 292 1138 q 352 1027 332 1050 q 413 1004 372 1004 q 474 1028 453 1004 q 515 1099 494 1051 q 549 1156 533 1138 q 590 1175 564 1175 m 8 -4 q -10 5 -4 -4 q -17 26 -17 14 q -8 51 -15 47 q 8 56 -1 56 q 21 56 18 56 q 82 77 63 56 q 113 126 101 99 q 129 163 125 153 l 372 738 q 381 771 381 758 q 361 807 381 796 q 307 825 342 818 q 278 833 283 829 q 272 857 272 838 q 281 879 272 874 q 310 885 290 885 q 420 874 379 885 q 492 833 461 864 q 549 738 522 801 l 782 163 q 822 83 803 110 q 881 56 842 57 l 889 56 q 908 51 903 56 q 915 26 914 46 q 909 5 915 14 q 890 -4 903 -4 q 738 0 801 0 q 565 -4 654 0 q 547 5 553 -4 q 540 26 540 14 q 547 51 542 46 q 567 56 553 56 q 633 65 614 56 q 653 97 653 74 q 636 163 653 115 l 589 278 l 246 278 q 206 178 211 192 q 201 163 201 164 q 185 94 185 110 q 206 63 185 71 q 285 56 226 56 l 293 56 q 313 51 307 56 q 319 26 318 46 q 313 5 319 14 q 294 -4 307 -4 q 143 0 206 0 q 8 -4 99 0 m 272 338 l 564 338 l 424 694 l 419 694 l 272 338 z "},"Ӓ":{"ha":907,"x_min":-17,"x_max":915,"o":"m 8 -4 q -10 5 -4 -4 q -17 26 -17 14 q -8 51 -15 47 q 8 56 -1 56 q 21 56 18 56 q 82 77 63 56 q 113 126 101 99 q 129 163 125 153 l 372 738 q 381 771 381 758 q 361 807 381 796 q 307 825 342 818 q 278 833 283 829 q 272 857 272 838 q 281 879 272 874 q 310 885 290 885 q 420 874 379 885 q 492 833 461 864 q 549 738 522 801 l 782 163 q 822 83 803 110 q 881 56 842 57 l 889 56 q 908 51 903 56 q 915 26 914 46 q 909 5 915 14 q 890 -4 903 -4 q 738 0 801 0 q 565 -4 654 0 q 547 5 553 -4 q 540 26 540 14 q 547 51 542 46 q 567 56 553 56 q 633 65 614 56 q 653 97 653 74 q 636 163 653 115 l 589 278 l 246 278 q 206 178 211 192 q 201 163 201 164 q 185 94 185 110 q 206 63 185 71 q 285 56 226 56 l 293 56 q 313 51 307 56 q 319 26 318 46 q 313 5 319 14 q 294 -4 307 -4 q 143 0 206 0 q 8 -4 99 0 m 272 338 l 564 338 l 424 694 l 419 694 l 272 338 m 279 988 q 219 1013 244 988 q 193 1071 193 1038 q 218 1131 193 1107 q 281 1154 243 1154 q 340 1131 317 1154 q 364 1071 364 1107 q 340 1013 364 1038 q 279 988 315 988 m 546 988 q 485 1013 511 988 q 460 1071 460 1038 q 485 1131 460 1107 q 547 1154 510 1154 q 607 1131 583 1154 q 631 1071 631 1107 q 606 1013 631 1038 q 546 988 582 988 z "},"Ӗ":{"ha":825,"x_min":60,"x_max":776,"o":"m 83 -4 q 66 5 72 -4 q 60 26 60 14 q 68 51 61 47 q 94 56 75 56 q 154 70 135 56 q 178 106 174 85 q 185 163 183 128 l 185 714 q 178 770 183 749 q 154 806 174 792 q 94 821 135 821 l 86 821 q 67 826 72 821 q 60 850 61 831 q 66 872 60 863 q 83 881 72 881 q 249 876 175 876 l 685 876 q 721 843 721 876 l 725 649 q 713 628 725 636 q 688 621 700 621 q 658 627 671 621 q 644 646 646 633 q 620 749 633 714 q 581 802 607 785 q 508 821 556 819 l 322 821 l 322 468 l 574 468 q 589 458 583 467 q 594 436 594 449 q 589 417 594 425 q 574 408 583 408 l 322 408 l 322 146 q 329 99 325 117 q 354 68 333 82 q 419 56 375 54 l 547 56 q 621 72 596 57 q 660 117 646 86 q 696 217 675 147 q 743 236 706 242 q 767 225 757 233 q 776 204 778 217 l 749 29 q 736 6 744 11 q 708 0 728 0 l 250 0 q 83 -4 175 0 m 625 1175 q 674 1156 656 1175 q 693 1104 693 1138 q 614 995 693 1033 q 426 957 535 957 q 239 995 318 957 q 160 1104 160 1033 q 178 1156 160 1138 q 228 1175 197 1175 q 276 1156 258 1175 q 313 1097 294 1136 q 358 1028 335 1053 q 426 1004 382 1004 q 494 1028 471 1004 q 540 1097 518 1053 q 576 1156 558 1136 q 625 1175 594 1175 z "},"Ә":{"ha":968,"x_min":65,"x_max":903,"o":"m 451 904 q 692 840 589 904 q 849 669 794 776 q 903 436 903 563 q 852 212 903 318 q 705 39 801 106 q 475 -28 608 -28 q 262 25 356 -28 q 117 166 168 78 q 65 356 65 254 q 76 386 65 375 q 107 397 88 397 l 733 397 q 666 719 736 597 q 447 842 596 842 q 281 794 340 842 q 197 636 221 747 q 158 615 193 615 q 127 625 139 615 q 117 651 115 635 l 133 851 q 285 892 210 879 q 451 904 361 904 m 475 33 q 653 113 585 33 q 732 338 721 193 l 233 338 q 262 190 233 260 q 345 77 290 121 q 475 33 400 33 z "},"Ӝ":{"ha":1481,"x_min":21,"x_max":1460,"o":"m 157 -14 q 71 8 111 -14 q 21 74 31 29 l 21 79 q 26 98 21 90 q 42 106 32 106 q 54 100 49 106 q 68 83 60 94 q 91 58 81 67 q 121 49 101 49 q 188 86 161 49 q 251 208 214 124 q 320 344 289 292 q 403 434 351 396 q 529 472 456 472 l 529 476 q 459 515 492 483 q 401 597 426 546 l 386 632 q 334 738 361 699 q 263 778 307 778 q 213 751 232 778 q 194 685 194 724 q 185 678 194 678 q 149 690 169 678 q 113 726 128 703 q 97 781 97 750 q 135 867 97 828 q 235 906 172 906 q 323 869 286 903 q 383 792 360 836 q 433 682 406 749 q 465 608 456 628 q 611 494 524 494 l 672 494 l 672 714 q 666 770 671 749 q 642 806 661 792 q 582 821 622 821 l 574 821 q 553 826 560 821 q 546 850 547 831 q 553 872 546 863 q 571 881 560 881 q 744 876 660 876 q 910 881 821 876 q 928 872 922 881 q 935 850 935 863 q 926 825 933 829 q 900 821 918 821 q 840 806 860 821 q 815 770 819 792 q 808 714 810 749 l 808 494 l 869 494 q 1015 608 957 494 q 1047 682 1025 628 q 1098 792 1075 749 q 1158 869 1121 836 q 1246 906 1194 903 q 1346 867 1308 906 q 1383 781 1383 828 q 1368 726 1383 750 q 1332 690 1353 703 q 1296 678 1311 678 q 1286 685 1286 678 q 1267 751 1286 724 q 1218 778 1249 778 q 1147 738 1174 778 q 1094 632 1119 699 l 1079 597 q 1022 515 1054 546 q 951 476 989 483 l 951 472 q 1077 434 1025 472 q 1160 344 1129 396 q 1229 208 1192 292 q 1293 86 1267 124 q 1360 49 1319 49 q 1390 58 1379 49 q 1413 85 1401 67 q 1421 97 1414 88 q 1436 106 1428 106 l 1438 106 q 1456 96 1450 106 q 1460 74 1463 86 q 1410 8 1450 29 q 1324 -14 1369 -14 q 1200 19 1249 -14 q 1123 99 1151 51 q 1060 225 1094 146 q 1006 339 1031 296 q 940 410 981 382 q 840 439 900 439 l 808 439 l 808 163 q 815 106 810 128 q 840 70 819 85 q 900 56 860 56 l 908 56 q 927 51 921 56 q 935 26 933 46 q 928 5 935 14 q 910 -4 922 -4 q 743 0 821 0 q 571 -4 661 0 q 553 5 560 -4 q 546 26 546 14 q 555 51 547 47 q 582 56 563 56 q 642 70 622 56 q 666 106 661 85 q 672 163 671 128 l 672 439 l 640 439 q 540 410 581 439 q 475 339 500 382 q 421 225 450 296 q 358 99 386 146 q 281 19 329 51 q 157 -14 232 -14 m 607 992 q 547 1017 572 992 q 521 1075 521 1042 q 546 1135 521 1111 q 608 1158 571 1158 q 668 1135 644 1158 q 692 1075 692 1111 q 667 1017 692 1042 q 607 992 643 992 m 874 992 q 813 1017 839 992 q 788 1075 788 1042 q 813 1135 788 1111 q 875 1158 838 1158 q 935 1135 911 1158 q 958 1075 958 1111 q 934 1017 958 1042 q 874 992 910 992 z "},"Ӟ":{"ha":822,"x_min":82,"x_max":740,"o":"m 397 -28 q 172 22 261 -28 q 82 172 82 71 q 119 270 82 229 q 213 311 156 311 q 270 294 249 311 q 293 264 292 278 q 275 247 293 261 q 242 213 257 233 q 228 163 228 192 q 273 63 225 97 q 397 28 321 28 q 538 82 485 28 q 590 238 590 136 q 529 378 590 322 q 378 436 468 433 l 326 436 q 311 444 317 436 q 306 464 306 453 q 311 485 306 476 q 326 496 317 494 l 378 496 q 547 664 547 508 q 506 794 547 740 q 388 847 465 847 q 267 794 311 847 q 199 635 222 740 q 182 618 196 624 q 151 615 168 613 q 128 627 139 618 q 118 649 117 636 l 135 851 q 189 867 153 856 q 308 895 258 886 q 422 904 357 904 q 567 874 504 904 q 663 793 629 844 q 696 679 696 742 q 647 550 696 601 q 510 474 599 499 l 510 469 q 683 389 626 451 q 740 242 740 326 q 693 94 740 156 q 567 3 646 33 q 397 -28 489 -28 m 272 988 q 212 1013 238 988 q 186 1071 186 1038 q 211 1131 186 1107 q 274 1154 236 1154 q 333 1131 310 1154 q 357 1071 357 1107 q 333 1013 357 1038 q 272 988 308 988 m 539 988 q 478 1013 504 988 q 453 1071 453 1038 q 478 1131 453 1107 q 540 1154 503 1154 q 600 1131 576 1154 q 624 1071 624 1107 q 599 1013 624 1038 q 539 988 575 988 z "},"Ӣ":{"ha":1089,"x_min":71,"x_max":1018,"o":"m 96 -4 q 71 26 71 -3 q 79 51 72 47 q 106 56 86 56 q 165 70 146 56 q 190 106 185 85 q 196 163 194 128 l 196 714 q 190 770 194 749 q 165 806 185 792 q 106 821 146 821 l 97 821 q 78 826 83 821 q 71 850 72 831 q 77 872 71 863 q 96 881 83 881 q 260 876 185 876 q 433 881 343 876 q 452 872 446 881 q 458 850 458 863 q 450 825 457 829 q 424 821 443 821 q 364 806 383 821 q 340 770 344 792 q 333 714 335 749 l 333 222 l 732 725 q 815 822 785 792 q 869 864 846 853 q 922 878 892 875 q 993 881 956 881 q 1018 850 1018 881 q 1010 825 1017 829 q 983 821 1003 821 q 924 806 943 821 q 899 770 904 792 q 893 714 894 749 l 893 163 q 899 106 894 128 q 924 70 904 85 q 983 56 943 56 l 992 56 q 1011 51 1006 56 q 1018 26 1017 46 q 1012 5 1018 14 q 993 -4 1006 -4 q 829 0 904 0 q 657 -4 747 0 q 638 5 644 -4 q 632 26 632 14 q 641 51 633 47 q 667 56 649 56 q 726 70 707 56 q 751 106 746 85 q 757 163 756 128 l 757 653 l 357 153 q 276 58 304 88 q 226 15 247 28 q 176 -1 204 1 q 96 -4 131 -6 m 365 1053 q 342 1065 351 1053 q 333 1090 333 1076 q 342 1117 333 1106 q 365 1128 351 1128 l 696 1128 q 719 1117 710 1128 q 728 1090 728 1106 q 719 1065 728 1076 q 696 1053 710 1053 l 365 1053 z "},"Ӥ":{"ha":1089,"x_min":71,"x_max":1018,"o":"m 96 -4 q 71 26 71 -3 q 79 51 72 47 q 106 56 86 56 q 165 70 146 56 q 190 106 185 85 q 196 163 194 128 l 196 714 q 190 770 194 749 q 165 806 185 792 q 106 821 146 821 l 97 821 q 78 826 83 821 q 71 850 72 831 q 77 872 71 863 q 96 881 83 881 q 260 876 185 876 q 433 881 343 876 q 452 872 446 881 q 458 850 458 863 q 450 825 457 829 q 424 821 443 821 q 364 806 383 821 q 340 770 344 792 q 333 714 335 749 l 333 222 l 732 725 q 815 822 785 792 q 869 864 846 853 q 922 878 892 875 q 993 881 956 881 q 1018 850 1018 881 q 1010 825 1017 829 q 983 821 1003 821 q 924 806 943 821 q 899 770 904 792 q 893 714 894 749 l 893 163 q 899 106 894 128 q 924 70 904 85 q 983 56 943 56 l 992 56 q 1011 51 1006 56 q 1018 26 1017 46 q 1012 5 1018 14 q 993 -4 1006 -4 q 829 0 904 0 q 657 -4 747 0 q 638 5 644 -4 q 632 26 632 14 q 641 51 633 47 q 667 56 649 56 q 726 70 707 56 q 751 106 746 85 q 757 163 756 128 l 757 653 l 357 153 q 276 58 304 88 q 226 15 247 28 q 176 -1 204 1 q 96 -4 131 -6 m 411 988 q 351 1013 376 988 q 325 1071 325 1038 q 350 1131 325 1107 q 413 1154 375 1154 q 472 1131 449 1154 q 496 1071 496 1107 q 472 1013 496 1038 q 411 988 447 988 m 678 988 q 617 1013 643 988 q 592 1071 592 1038 q 617 1131 592 1107 q 679 1154 642 1154 q 739 1131 715 1154 q 763 1071 763 1107 q 738 1013 763 1038 q 678 988 714 988 z "},"Ӧ":{"ha":1021,"x_min":65,"x_max":956,"o":"m 508 -28 q 276 35 376 -28 q 120 203 175 99 q 65 426 65 307 q 131 681 65 572 q 300 847 197 789 q 508 904 403 904 q 744 841 642 904 q 901 674 846 778 q 956 451 956 571 q 889 197 956 306 q 718 30 822 88 q 508 -28 614 -28 m 507 33 q 665 90 601 33 q 759 241 728 146 q 790 451 790 336 q 758 648 790 558 q 663 791 726 738 q 507 844 599 844 q 298 727 368 844 q 228 431 228 610 q 259 232 228 322 q 353 88 290 142 q 507 33 415 33 m 378 988 q 317 1013 343 988 q 292 1071 292 1038 q 317 1131 292 1107 q 379 1154 342 1154 q 439 1131 415 1154 q 463 1071 463 1107 q 438 1013 463 1038 q 378 988 414 988 m 644 988 q 584 1013 610 988 q 558 1071 558 1038 q 583 1131 558 1107 q 646 1154 608 1154 q 706 1131 682 1154 q 729 1071 729 1107 q 705 1013 729 1038 q 644 988 681 988 z "},"Ө":{"ha":1021,"x_min":65,"x_max":956,"o":"m 508 904 q 744 841 642 904 q 901 674 846 778 q 956 451 956 571 q 889 197 956 306 q 718 30 822 88 q 508 -28 614 -28 q 276 35 376 -28 q 120 203 175 99 q 65 426 65 307 q 131 681 65 572 q 300 847 197 789 q 508 904 403 904 m 507 844 q 306 740 375 844 q 229 469 236 635 l 790 469 q 755 658 788 574 q 659 794 722 743 q 507 844 596 844 m 507 33 q 709 139 638 33 q 789 408 781 244 l 228 408 q 305 140 233 247 q 507 33 376 33 z "},"Ӯ":{"ha":914,"x_min":39,"x_max":921,"o":"m 261 -24 q 140 13 185 -24 q 94 107 94 50 q 124 188 94 157 q 196 218 154 218 q 238 208 221 218 q 256 189 256 197 q 243 172 256 186 q 231 131 231 158 q 249 79 231 100 q 301 58 267 58 q 385 90 349 58 q 453 189 422 122 q 283 518 393 296 q 182 715 215 654 q 148 776 160 758 q 119 806 136 794 q 74 824 103 818 q 57 827 68 825 q 42 835 46 829 q 39 856 39 842 q 47 879 39 874 q 74 885 56 885 q 189 873 147 885 q 259 831 231 861 q 324 739 288 801 q 367 649 335 718 q 524 343 446 482 l 528 343 l 707 751 q 713 778 713 764 q 686 813 713 806 q 608 821 660 821 l 600 821 q 581 826 586 821 q 574 850 575 831 q 580 872 574 863 q 597 881 586 881 q 758 876 688 876 q 896 881 807 876 q 915 872 908 881 q 921 850 921 863 q 914 826 919 831 q 894 821 908 821 q 837 812 856 821 q 808 788 818 803 q 776 726 799 772 l 525 192 q 410 30 474 83 q 261 -24 347 -24 m 283 1053 q 260 1065 269 1053 q 251 1090 251 1076 q 260 1117 251 1106 q 283 1128 269 1128 l 614 1128 q 637 1117 628 1128 q 646 1090 646 1106 q 637 1065 646 1076 q 614 1053 628 1053 l 283 1053 z "},"Ӱ":{"ha":914,"x_min":39,"x_max":921,"o":"m 261 -24 q 140 13 185 -24 q 94 107 94 50 q 124 188 94 157 q 196 218 154 218 q 238 208 221 218 q 256 189 256 197 q 243 172 256 186 q 231 131 231 158 q 249 79 231 100 q 301 58 267 58 q 385 90 349 58 q 453 189 422 122 q 283 518 393 296 q 182 715 215 654 q 148 776 160 758 q 119 806 136 794 q 74 824 103 818 q 57 827 68 825 q 42 835 46 829 q 39 856 39 842 q 47 879 39 874 q 74 885 56 885 q 189 873 147 885 q 259 831 231 861 q 324 739 288 801 q 367 649 335 718 q 524 343 446 482 l 528 343 l 707 751 q 713 778 713 764 q 686 813 713 806 q 608 821 660 821 l 600 821 q 581 826 586 821 q 574 850 575 831 q 580 872 574 863 q 597 881 586 881 q 758 876 688 876 q 896 881 807 876 q 915 872 908 881 q 921 850 921 863 q 914 826 919 831 q 894 821 908 821 q 837 812 856 821 q 808 788 818 803 q 776 726 799 772 l 525 192 q 410 30 474 83 q 261 -24 347 -24 m 329 988 q 269 1013 294 988 q 243 1071 243 1038 q 268 1131 243 1107 q 331 1154 293 1154 q 390 1131 367 1154 q 414 1071 414 1107 q 390 1013 414 1038 q 329 988 365 988 m 596 988 q 535 1013 561 988 q 510 1071 510 1038 q 535 1131 510 1107 q 597 1154 560 1154 q 657 1131 633 1154 q 681 1071 681 1107 q 656 1013 681 1038 q 596 988 632 988 z "},"Ӳ":{"ha":914,"x_min":39,"x_max":921,"o":"m 261 -24 q 140 13 185 -24 q 94 107 94 50 q 124 188 94 157 q 196 218 154 218 q 238 208 221 218 q 256 189 256 197 q 243 172 256 186 q 231 131 231 158 q 249 79 231 100 q 301 58 267 58 q 385 90 349 58 q 453 189 422 122 q 283 518 393 296 q 182 715 215 654 q 148 776 160 758 q 119 806 136 794 q 74 824 103 818 q 57 827 68 825 q 42 835 46 829 q 39 856 39 842 q 47 879 39 874 q 74 885 56 885 q 189 873 147 885 q 259 831 231 861 q 324 739 288 801 q 367 649 335 718 q 524 343 446 482 l 528 343 l 707 751 q 713 778 713 764 q 686 813 713 806 q 608 821 660 821 l 600 821 q 581 826 586 821 q 574 850 575 831 q 580 872 574 863 q 597 881 586 881 q 758 876 688 876 q 896 881 807 876 q 915 872 908 881 q 921 850 921 863 q 914 826 919 831 q 894 821 908 821 q 837 812 856 821 q 808 788 818 803 q 776 726 799 772 l 525 192 q 410 30 474 83 q 261 -24 347 -24 m 308 933 q 296 931 304 931 q 272 941 282 931 q 261 964 261 951 q 268 981 261 974 q 323 1036 275 988 q 415 1118 371 1085 q 452 1143 436 1135 q 482 1151 468 1151 q 518 1132 503 1151 q 532 1100 532 1117 q 481 1036 532 1071 q 308 933 375 968 m 572 933 q 560 931 568 931 q 535 941 546 931 q 525 964 525 951 q 532 981 525 974 q 587 1036 539 988 q 679 1118 635 1085 q 717 1143 701 1135 q 746 1151 732 1151 q 782 1132 767 1151 q 796 1100 796 1117 q 744 1036 796 1071 q 572 933 639 968 z "}}}
